<?xml version="1.0" encoding="UTF-8"?>
<!-- Generator: Adobe Illustrator 23.0.3, SVG Export Plug-In . SVG Version: 6.00 Build 0)  -->
<svg version="1.1" xmlns="http://www.w3.org/2000/svg" xmlns:xlink="http://www.w3.org/1999/xlink" x="0px" y="0px" viewBox="0 0 1925.8 606.33" style="enable-background:new 0 0 1925.8 606.33;" xml:space="preserve">
<style type="text/css">
	.st0{fill-rule:evenodd;clip-rule:evenodd;}
	.st1{fill-rule:evenodd;clip-rule:evenodd;fill:#4554A5;}
	.st2{fill-rule:evenodd;clip-rule:evenodd;fill:#FFFFFF;}
	.st3{fill-rule:evenodd;clip-rule:evenodd;fill:#D6D6D6;}
	.st4{fill-rule:evenodd;clip-rule:evenodd;fill:#FFFF00;}
	.st5{fill-rule:evenodd;clip-rule:evenodd;fill:#FF003F;}
	.st6{fill-opacity:0.9412;}
	.st7{fill:#4554A5;}
	.st8{display:none;}
	.st9{display:inline;}
	.st10{fill:none;stroke:#000000;stroke-width:0.7087;stroke-linecap:round;stroke-linejoin:round;stroke-miterlimit:10;}
	.st11{fill:none;stroke:#FF0000;stroke-width:0.7087;stroke-linecap:round;stroke-linejoin:round;stroke-miterlimit:10;}
	.st12{fill:none;stroke:#ED1F24;stroke-width:0.7087;stroke-linecap:round;stroke-linejoin:round;stroke-miterlimit:10;}
</style>
<g id="TV_Boy_Color">
	<g id="HATCH">
		<path class="st0" d="M1925.8,561.33H0.8v5h1925V561.33z M1925.8,551.33H0.8v5h1925V551.33z M1925.8,541.33H0.8v5h1925V541.33z     M1925.8,531.33H0.8v5h1925V531.33z M1925.8,521.33H0.8v5h1925V521.33z M1925.8,511.33H0.8v5h1925V511.33z M1925.8,501.33H0.8v5    h1925V501.33z M1925.8,491.33H0.8v5h1925V491.33z M1925.8,481.33H0.8v5h1925V481.33z M1925.8,471.33H0.8v5h1925V471.33z     M1925.8,461.33H0.8v5h1925V461.33z M1925.8,451.33H0.8v5h1925V451.33z M1925.8,441.33H0.8v5h1925V441.33z M1925.8,431.33H0.8v5    h1925V431.33z M1925.8,421.33H0.8v5h1925V421.33z M1925.8,411.33H0.8v5h1925V411.33z M1925.8,401.33H0.8v5h1925V401.33z     M1925.8,391.33H0.8v5h1925V391.33z M1925.8,381.33H0.8v5h1925V381.33z M1925.8,371.33H0.8v5h1925V371.33z M1925.8,361.33H0.8v5    h1925V361.33z M1925.8,351.33H0.8v5h1925V351.33z M1925.8,341.33H0.8v5h1925V341.33z M1925.8,331.33H0.8v5h1925V331.33z     M1925.8,321.33H0.8v5h1925V321.33z M1925.8,311.33H0.8v5h1925V311.33z M1925.8,301.33H0.8v5h1925V301.33z M1925.8,291.33H0.8v5    h1925V291.33z M1925.8,281.33H0.8v5h1925V281.33z M1925.8,271.33H0.8v5h1925V271.33z M1925.8,261.33H0.8v5h1925V261.33z     M1925.8,251.33H0.8v5h1925V251.33z M1925.8,241.33H0.8v5h1925V241.33z M1925.8,231.33H0.8v5h1925V231.33z M1925.8,221.34H0.8v5    h1925V221.34z M1925.8,211.34H0.8v5h1925V211.34z M1925.8,201.34H0.8v5h1925V201.34z"/>
	</g>
	<g id="HATCH_1_">
		<path class="st1" d="M1925.8,556.33H0.8v5h1925V556.33z M1925.8,546.33H0.8v5h1925V546.33z M1925.8,536.33H0.8v5h1925V536.33z     M1925.8,526.33H0.8v5h1925V526.33z M1925.8,516.33H0.8v5h1925V516.33z M1925.8,506.33H0.8v5h1925V506.33z M1925.8,496.33H0.8v5    h1925V496.33z M1925.8,486.33H0.8v5h1925V486.33z M1925.8,476.33H0.8v5h1925V476.33z M1925.8,466.33H0.8v5h1925V466.33z     M1925.8,456.33H0.8v5h1925V456.33z M1925.8,446.33H0.8v5h1925V446.33z M1925.8,436.33H0.8v5h1925V436.33z M1925.8,426.33H0.8v5    h1925V426.33z M1925.8,416.33H0.8v5h1925V416.33z M1925.8,406.33H0.8v5h1925V406.33z M1925.8,396.33H0.8v5h1925V396.33z     M1925.8,386.33H0.8v5h1925V386.33z M1925.8,376.33H0.8v5h1925V376.33z M1925.8,366.33H0.8v5h1925V366.33z M1925.8,356.33H0.8v5    h1925V356.33z M1925.8,346.33H0.8v5h1925V346.33z M1925.8,336.33H0.8v5h1925V336.33z M1925.8,326.33H0.8v5h1925V326.33z     M1925.8,316.33H0.8v5h1925V316.33z M1925.8,306.33H0.8v5h1925V306.33z M1925.8,296.33H0.8v5h1925V296.33z M1925.8,286.33H0.8v5    h1925V286.33z M1925.8,276.33H0.8v5h1925V276.33z M1925.8,266.33H0.8v5h1925V266.33z M1925.8,256.33H0.8v5h1925V256.33z     M1925.8,246.33H0.8v5h1925V246.33z M1925.8,236.33H0.8v5h1925V236.33z M1925.8,226.34H0.8v5h1925V226.34z M1925.8,216.34H0.8v5    h1925V216.34z M1925.8,206.34H0.8v5h1925V206.34z"/>
	</g>
	<g id="HATCH_2_">
		<path class="st2" d="M1925.8,566.34l-1925-0.01v10h1925V566.34z M1925.8,596.34l-1925-0.01v10h1925V596.34z"/>
	</g>
	<g id="HATCH_3_">
		<rect x="0.8" y="1.34" class="st3" width="1925" height="200"/>
	</g>
	<g id="HATCH_4_">
		<path class="st0" d="M594.9,261.33H370.85l-44.24,75h75.87l-98.78,190h95.83l84.49-190h83.1L594.9,261.33z M563.64,331.33h-82.87    l-84.49,190h-84.34l98.78-190h-75.35l38.34-65h214.01L563.64,331.33z M592.45,526.33l104.31,0l136.11-265h-80.09l-73.04,120    l-9.52-120H594.9L592.45,526.33z M599.86,266.33h65.74l10.38,130.8l79.61-130.8h69.09l-130.97,255l-96.21,0L599.86,266.33z     M823.4,336.33h91.63l-8.02,190l56.3,0l56.29,0l-7.95-190h91.63l-9.47-75h-85.29l-1.67-40h-87l-1.67,40h-85.29L823.4,336.33z     M837.28,266.33h85.68l1.67-40h77.41l1.67,40h85.68l8.21,65h-91.17l7.95,190l-51.08,0l-51.08,0l8.02-190h-91.17L837.28,266.33z     M817.64,381.33l-18.32,145l84.85,0l8.66-145H817.64z M887.53,386.33l-8.07,135l-74.46,0l17.05-135H887.53z M1033.76,381.33    l8.66,145l84.85,0l-18.32-145H1033.76z M1104.55,386.33l17.05,135l-74.46,0l-8.07-135H1104.55z M1123.39,336.33h50.42l-14.35-75    h-46.93L1123.39,336.33z M1127.72,331.33l-9.42-65h37.02l12.44,65H1127.72z M1186.22,336.33h49.6l-18.64-75h-46.17L1186.22,336.33    z M1190.3,331.33l-13.18-65h36.14l16.15,65H1190.3z M1142.23,466.33h182.86l54.07-34.24l-31.36-89.66l-69.03,38.9h-148.85    L1142.23,466.33z M1135.69,386.33h144.38l64.97-36.61l28.08,80.27l-49.49,31.34h-177.08L1135.69,386.33z M1530.37,336.33h74.83    l-44.19-75h-69.29l-130.66,73.62l32.16,88.23l68.16-43.16l64.21,146.31h103.62L1530.37,336.33z M1522.14,331.33l98.83,190h-92.11    l-65.23-148.64l-67.83,42.95l-28.58-78.41l125.82-70.9h65.13l38.29,65H1522.14z"/>
	</g>
	<g id="HATCH_5_">
		<path class="st4" d="M1323.63,461.33l49.49-31.34l-28.08-80.27l-64.97,36.61h-144.38l10.87,75H1323.63z M1367.21,337.23    l28.58,78.41l67.83-42.95l65.23,148.64h92.11l-98.83-190h74.31l-38.29-65h-65.13L1367.21,337.23z M1213.26,266.33h-36.14l13.18,65    h39.12L1213.26,266.33z M1155.33,266.33h-37.02l9.42,65h40.05L1155.33,266.33z M1047.14,521.33l74.46,0l-17.05-135h-65.48    L1047.14,521.33z M1006.43,331.33h91.17l-8.21-65h-85.68l-1.67-40h-77.41l-1.67,40h-85.68l-8.21,65h91.17l-8.02,190l51.08,0    l51.08,0L1006.43,331.33z M805,521.33l74.46,0l8.07-135h-65.48L805,521.33z M597.5,521.33l96.21,0l130.97-255h-69.09l-79.61,130.8    l-10.38-130.8h-65.74L597.5,521.33z M373.71,266.33l-38.34,65h75.35l-98.78,190h84.34l84.49-190h82.87l24.07-65H373.71z"/>
	</g>
	<g id="HATCH_6_">
		<rect x="0.8" y="576.33" class="st5" width="1925" height="20"/>
	</g>
	<path id="path3423" class="st6" d="M237.29,120.44c0,31.98-25.92,57.9-57.9,57.9c-31.97,0-57.89-25.92-57.89-57.9   c0-31.97,25.92-57.88,57.89-57.88c25.4,0,46.92,16.37,54.73,39.11h-27.67c-5.74-9.56-15.7-15.9-27.06-15.9   c-17.79,0-32.2,15.53-32.2,34.67c0,19.16,14.42,34.68,32.2,34.68c12.32,0,23.01-7.44,28.42-18.37h-34.1v-23.61h63.07   C237.04,115.45,237.29,117.95,237.29,120.44 M305.55,96.87c-6.25-3.47-13.43-5.47-21.08-5.47c-23.98,0-43.43,19.44-43.43,43.42   s17.49,43.42,43.43,43.42c5.9,0,12.96-2.37,19.66-6.46c0.48-0.29,1.42,0.28,1.42,0.88v3.08h24.61V93.17h-24.61V96.87z    M307.33,133.97c0,12.82-9.64,23.22-21.53,23.22c-11.89,0-21.54-10.39-21.54-23.22c0-12.82,9.65-23.21,21.54-23.21   S307.33,121.15,307.33,133.97 M417.68,93.17h-28.46l-24.88,34.24v-59.8h-25.6v108.12h25.6v-32.18l21.72,32.02h29.44l-27.03-41.73   L417.68,93.17L417.68,93.17z M499.19,93.17h-28.45l-24.88,34.24v-59.8h-25.61v108.12h25.61v-32.18l21.71,32.02h29.45L470,133.84   L499.19,93.17L499.19,93.17z M516.87,143.44c2.8,9.36,10.28,16.06,19.1,16.06c6.55,0,12.38-3.72,16.08-9.47h25.79   c-6.38,16.53-22.69,28.32-41.86,28.32c-24.73,0-44.79-19.58-44.79-43.73c0-24.16,20.06-43.73,44.79-43.73   c24.73,0,44.78,19.58,44.78,43.73c0,3.03-0.35,5.97-0.96,8.83H516.87L516.87,143.44z M517.54,125.25h36.84   c-3.21-8.31-10.23-14.1-18.42-14.1S520.75,116.94,517.54,125.25 M661.51,121.95c0-17.19-14.42-31.14-32.21-31.14   c-6.66,0-12.85,1.97-17.98,5.31v-2.95h-25.61v82.56h25.61V127.9c0-7.67,5.72-13.88,12.79-13.88c7.07,0,12.78,6.21,12.78,13.88   v47.83h24.62V121.95z"/>
	<g>
		<path class="st7" d="M728.78,136.55c0-17.51,9.83-21.64,26.35-21.64h21.56c26.1,0,29.49,5.62,29.33,22.55h-18.34v-1.65    c0-4.3-3.14-5.53-8.59-5.53h-19.99c-9.67,0-11.48,4.54-11.48,11.98v6.44c0,8.67,1.82,11.98,10.49,11.98h19.58    c8.26,0,10.74-0.83,10.74-8.26h18.34v5.62c0,10.08-3.63,18.01-22.06,18.01h-29.57c-16.52,0-26.35-4.13-26.35-21.64V136.55z"/>
		<path class="st7" d="M816.5,136.55c0-17.51,9.83-21.64,26.35-21.64h29.41c16.52,0,26.35,4.13,26.35,21.64v17.84    c0,17.51-9.83,21.64-26.35,21.64h-29.41c-16.52,0-26.35-4.13-26.35-21.64V136.55z M835.34,148.7c0,8.67,1.82,11.98,10.49,11.98    h23.46c8.67,0,10.49-3.3,10.49-11.98v-6.44c0-7.44-1.82-11.98-11.48-11.98h-21.48c-9.67,0-11.48,4.54-11.48,11.98V148.7z"/>
		<path class="st7" d="M909.68,115.57h28.17l20.74,38.5l20.74-38.5h28.17v59.81h-17.84v-42.96h-0.17l-24.04,42.96h-13.71    l-24.04-42.96h-0.17v42.96h-17.84V115.57z"/>
		<path class="st7" d="M1019.87,115.57h49.98c17.43,0,21.64,8.76,21.64,20.49v5.12c0,8.92-3.88,19.17-16.85,19.17h-36.43v15.04    h-18.34V115.57z M1038.21,145.47h28.5c4.3,0,5.95-2.81,5.95-6.36v-2.31c0-4.05-1.98-6.36-7.52-6.36h-26.93V145.47z"/>
		<path class="st7" d="M1123.38,115.57h23.88l32.88,59.81h-20.41l-5.7-10.57h-37.17l-5.37,10.57H1091L1123.38,115.57z     M1123.71,151.92h23.46l-11.9-22.47L1123.71,151.92z"/>
		<path class="st7" d="M1185.33,136.55c0-17.51,9.83-21.64,26.35-21.64h21.56c26.11,0,29.49,5.62,29.33,22.55h-18.34v-1.65    c0-4.3-3.14-5.53-8.59-5.53h-19.99c-9.67,0-11.48,4.54-11.48,11.98v6.44c0,8.67,1.82,11.98,10.49,11.98h19.58    c8.26,0,10.74-0.83,10.74-8.26h18.34v5.62c0,10.08-3.64,18.01-22.06,18.01h-29.58c-16.52,0-26.35-4.13-26.35-21.64V136.55z"/>
		<path class="st7" d="M1270,115.57h69.89v14.87h-25.77v44.94h-18.34v-44.94H1270V115.57z"/>
	</g>
	<g>
		<path class="st7" d="M1396.11,115.92h20.07l23.38,44.44l23.38-44.44h20.08l-32.14,59.81h-22.64L1396.11,115.92z"/>
		<path class="st7" d="M1490.61,115.92h18.34v59.81h-18.34V115.92z"/>
		<path class="st7" d="M1521.26,156.15h18.34c0.08,6.36,2.64,6.86,7.93,6.86H1570c3.88,0,7.85-0.41,7.85-5.04    c0-5.2-2.15-5.54-25.78-5.54c-27.59,0-30.73-3.3-30.73-18.01c0-10.82,0.99-19.17,24.12-19.17h25.61    c21.15,0,23.13,7.19,23.13,17.68v1.9h-18.34c0-4.38-0.5-6.2-8.92-6.2h-20.32c-4.13,0-6.94,1.4-6.94,4.63    c0,5.2,2.23,5.37,21.89,5.29c28.5-0.08,35.11,1.65,35.11,19.08c0,16.11-5.45,18.75-29.82,18.75h-22.22    c-16.69,0-23.38-3.14-23.38-16.11V156.15z"/>
		<path class="st7" d="M1608.98,115.92h18.34v59.81h-18.34V115.92z"/>
		<path class="st7" d="M1639.38,136.9c0-17.51,9.83-21.64,26.35-21.64h29.41c16.52,0,26.35,4.13,26.35,21.64v17.84    c0,17.51-9.83,21.64-26.35,21.64h-29.41c-16.52,0-26.35-4.13-26.35-21.64V136.9z M1658.22,149.05c0,8.67,1.82,11.98,10.49,11.98    h23.46c8.67,0,10.49-3.3,10.49-11.98v-6.44c0-7.44-1.82-11.98-11.48-11.98h-21.48c-9.67,0-11.48,4.54-11.48,11.98V149.05z"/>
		<path class="st7" d="M1732.56,115.92h28.42l34.45,43.45h0.17v-43.45h18.34v59.81h-28.42l-34.45-43.45h-0.17v43.45h-18.34V115.92z"/>
	</g>
</g>
<g id="TV_Boy_wire" class="st8">
	<g id="LWPOLYLINE" class="st9">
		<rect x="-4.2" y="597" class="st10" width="1925" height="5"/>
	</g>
	<g id="LWPOLYLINE_1_" class="st9">
		<rect x="-4.2" y="607" class="st10" width="1925" height="5"/>
	</g>
	<g id="LWPOLYLINE_2_" class="st9">
		<rect x="-4.2" y="602" class="st10" width="1925" height="5"/>
	</g>
	<g id="LWPOLYLINE_3_" class="st9">
		<rect x="-4.2" y="612" class="st10" width="1925" height="10"/>
	</g>
	<g id="LWPOLYLINE_4_" class="st9">
		<rect x="-4.2" y="582" class="st10" width="1925" height="5"/>
	</g>
	<g id="LWPOLYLINE_5_" class="st9">
		<rect x="-4.2" y="592" class="st10" width="1925" height="5"/>
	</g>
	<g id="LWPOLYLINE_6_" class="st9">
		<rect x="-4.2" y="587" class="st10" width="1925" height="5"/>
	</g>
	<g id="LWPOLYLINE_7_" class="st9">
		<rect x="-4.2" y="567" class="st10" width="1925" height="5"/>
	</g>
	<g id="LWPOLYLINE_8_" class="st9">
		<rect x="-4.2" y="577" class="st10" width="1925" height="5"/>
	</g>
	<g id="LWPOLYLINE_9_" class="st9">
		<rect x="-4.2" y="572" class="st10" width="1925" height="5"/>
	</g>
	<g id="LWPOLYLINE_10_" class="st9">
		<rect x="-4.2" y="552" class="st10" width="1925" height="5"/>
	</g>
	<g id="LWPOLYLINE_11_" class="st9">
		<rect x="-4.2" y="562" class="st10" width="1925" height="5"/>
	</g>
	<g id="LWPOLYLINE_12_" class="st9">
		<rect x="-4.2" y="557" class="st10" width="1925" height="5"/>
	</g>
	<g id="LWPOLYLINE_13_" class="st9">
		<rect x="-4.2" y="537" class="st10" width="1925" height="5"/>
	</g>
	<g id="LWPOLYLINE_14_" class="st9">
		<rect x="-4.2" y="547" class="st10" width="1925" height="5"/>
	</g>
	<g id="LWPOLYLINE_15_" class="st9">
		<rect x="-4.2" y="542" class="st10" width="1925" height="5"/>
	</g>
	<g id="LWPOLYLINE_16_" class="st9">
		<rect x="-4.2" y="522" class="st10" width="1925" height="5"/>
	</g>
	<g id="LWPOLYLINE_17_" class="st9">
		<rect x="-4.2" y="532" class="st10" width="1925" height="5"/>
	</g>
	<g id="LWPOLYLINE_18_" class="st9">
		<rect x="-4.2" y="527" class="st10" width="1925" height="5"/>
	</g>
	<g id="LWPOLYLINE_19_" class="st9">
		<rect x="-4.2" y="507" class="st10" width="1925" height="5"/>
	</g>
	<g id="LWPOLYLINE_20_" class="st9">
		<rect x="-4.2" y="517" class="st10" width="1925" height="5"/>
	</g>
	<g id="LWPOLYLINE_21_" class="st9">
		<rect x="-4.2" y="512" class="st10" width="1925" height="5"/>
	</g>
	<g id="LWPOLYLINE_22_" class="st9">
		<rect x="-4.2" y="492" class="st10" width="1925" height="5"/>
	</g>
	<g id="LWPOLYLINE_23_" class="st9">
		<rect x="-4.2" y="502" class="st10" width="1925" height="5"/>
	</g>
	<g id="LWPOLYLINE_24_" class="st9">
		<rect x="-4.2" y="497" class="st10" width="1925" height="5"/>
	</g>
	<g id="LWPOLYLINE_25_" class="st9">
		<rect x="-4.2" y="477" class="st10" width="1925" height="5"/>
	</g>
	<g id="LWPOLYLINE_26_" class="st9">
		<rect x="-4.2" y="487" class="st10" width="1925" height="5"/>
	</g>
	<g id="LWPOLYLINE_27_" class="st9">
		<rect x="-4.2" y="482" class="st10" width="1925" height="5"/>
	</g>
	<g id="LWPOLYLINE_28_" class="st9">
		<rect x="-4.2" y="462" class="st10" width="1925" height="5"/>
	</g>
	<g id="LWPOLYLINE_29_" class="st9">
		<rect x="-4.2" y="472" class="st10" width="1925" height="5"/>
	</g>
	<g id="LWPOLYLINE_30_" class="st9">
		<rect x="-4.2" y="467" class="st10" width="1925" height="5"/>
	</g>
	<g id="LWPOLYLINE_31_" class="st9">
		<rect x="-4.2" y="447" class="st10" width="1925" height="5"/>
	</g>
	<g id="LWPOLYLINE_32_" class="st9">
		<rect x="-4.2" y="457" class="st10" width="1925" height="5"/>
	</g>
	<g id="LWPOLYLINE_33_" class="st9">
		<rect x="-4.2" y="452" class="st10" width="1925" height="5"/>
	</g>
	<g id="LWPOLYLINE_34_" class="st9">
		<rect x="-4.2" y="432" class="st10" width="1925" height="5"/>
	</g>
	<g id="LWPOLYLINE_35_" class="st9">
		<rect x="-4.2" y="442" class="st10" width="1925" height="5"/>
	</g>
	<g id="LWPOLYLINE_36_" class="st9">
		<rect x="-4.2" y="437" class="st10" width="1925" height="5"/>
	</g>
	<g id="LWPOLYLINE_37_" class="st9">
		<rect x="-4.2" y="417" class="st10" width="1925" height="5"/>
	</g>
	<g id="LWPOLYLINE_38_" class="st9">
		<rect x="-4.2" y="427" class="st10" width="1925" height="5"/>
	</g>
	<g id="LWPOLYLINE_39_" class="st9">
		<rect x="-4.2" y="422" class="st10" width="1925" height="5"/>
	</g>
	<g id="LWPOLYLINE_40_" class="st9">
		<rect x="-4.2" y="402" class="st10" width="1925" height="5"/>
	</g>
	<g id="LWPOLYLINE_41_" class="st9">
		<rect x="-4.2" y="412" class="st10" width="1925" height="5"/>
	</g>
	<g id="LWPOLYLINE_42_" class="st9">
		<rect x="-4.2" y="407" class="st10" width="1925" height="5"/>
	</g>
	<g id="LWPOLYLINE_43_" class="st9">
		<rect x="-4.2" y="387" class="st10" width="1925" height="5"/>
	</g>
	<g id="LWPOLYLINE_44_" class="st9">
		<rect x="-4.2" y="397" class="st10" width="1925" height="5"/>
	</g>
	<g id="LWPOLYLINE_45_" class="st9">
		<rect x="-4.2" y="392" class="st10" width="1925" height="5"/>
	</g>
	<g id="LWPOLYLINE_46_" class="st9">
		<rect x="-4.2" y="372" class="st10" width="1925" height="5"/>
	</g>
	<g id="LWPOLYLINE_47_" class="st9">
		<rect x="-4.2" y="382" class="st10" width="1925" height="5"/>
	</g>
	<g id="LWPOLYLINE_48_" class="st9">
		<rect x="-4.2" y="377" class="st10" width="1925" height="5"/>
	</g>
	<g id="LWPOLYLINE_49_" class="st9">
		<rect x="-4.2" y="357" class="st10" width="1925" height="5"/>
	</g>
	<g id="LWPOLYLINE_50_" class="st9">
		<rect x="-4.2" y="367" class="st10" width="1925" height="5"/>
	</g>
	<g id="LWPOLYLINE_51_" class="st9">
		<rect x="-4.2" y="362" class="st10" width="1925" height="5"/>
	</g>
	<g id="LWPOLYLINE_52_" class="st9">
		<rect x="-4.2" y="342" class="st10" width="1925" height="5"/>
	</g>
	<g id="LWPOLYLINE_53_" class="st9">
		<rect x="-4.2" y="352" class="st10" width="1925" height="5"/>
	</g>
	<g id="LWPOLYLINE_54_" class="st9">
		<rect x="-4.2" y="347" class="st10" width="1925" height="5"/>
	</g>
	<g id="LWPOLYLINE_55_" class="st9">
		<rect x="-4.2" y="327" class="st10" width="1925" height="5"/>
	</g>
	<g id="LWPOLYLINE_56_" class="st9">
		<rect x="-4.2" y="337" class="st10" width="1925" height="5"/>
	</g>
	<g id="LWPOLYLINE_57_" class="st9">
		<rect x="-4.2" y="332" class="st10" width="1925" height="5"/>
	</g>
	<g id="LWPOLYLINE_58_" class="st9">
		<rect x="-4.2" y="312" class="st10" width="1925" height="5"/>
	</g>
	<g id="LWPOLYLINE_59_" class="st9">
		<rect x="-4.2" y="322" class="st10" width="1925" height="5"/>
	</g>
	<g id="LWPOLYLINE_60_" class="st9">
		<rect x="-4.2" y="317" class="st10" width="1925" height="5"/>
	</g>
	<g id="LWPOLYLINE_61_" class="st9">
		<rect x="-4.2" y="297" class="st10" width="1925" height="5"/>
	</g>
	<g id="LWPOLYLINE_62_" class="st9">
		<rect x="-4.2" y="307" class="st10" width="1925" height="5"/>
	</g>
	<g id="LWPOLYLINE_63_" class="st9">
		<rect x="-4.2" y="302" class="st10" width="1925" height="5"/>
	</g>
	<g id="LWPOLYLINE_64_" class="st9">
		<rect x="-4.2" y="282" class="st10" width="1925" height="5"/>
	</g>
	<g id="LWPOLYLINE_65_" class="st9">
		<rect x="-4.2" y="292" class="st10" width="1925" height="5"/>
	</g>
	<g id="LWPOLYLINE_66_" class="st9">
		<rect x="-4.2" y="287" class="st10" width="1925" height="5"/>
	</g>
	<g id="LWPOLYLINE_67_" class="st9">
		<rect x="-4.2" y="257" class="st10" width="1925" height="5"/>
	</g>
	<g id="LWPOLYLINE_68_" class="st9">
		<rect x="-4.2" y="267" class="st10" width="1925" height="5"/>
	</g>
	<g id="LWPOLYLINE_69_" class="st9">
		<rect x="-4.2" y="277" class="st10" width="1925" height="5"/>
	</g>
	<g id="LWPOLYLINE_70_" class="st9">
		<rect x="-4.2" y="272" class="st10" width="1925" height="5"/>
	</g>
	<g id="LWPOLYLINE_71_" class="st9">
		<rect x="-4.2" y="252" class="st10" width="1925" height="5"/>
	</g>
	<g id="LWPOLYLINE_72_" class="st9">
		<rect x="-4.2" y="262" class="st10" width="1925" height="5"/>
	</g>
	<g id="LWPOLYLINE_73_" class="st9">
		<rect x="-4.2" y="622" class="st10" width="1925" height="20"/>
	</g>
	<g id="LWPOLYLINE_74_" class="st9">
		<rect x="-4.2" y="247" class="st10" width="1925" height="5"/>
	</g>
	<g id="LWPOLYLINE_75_" class="st9">
		<rect x="-4.2" y="47" class="st10" width="1925" height="200"/>
	</g>
	<g id="LWPOLYLINE_76_" class="st9">
		<rect x="-4.2" y="642" class="st10" width="1925" height="10"/>
	</g>
	<g id="LWPOLYLINE_77_" class="st9">
		<polyline class="st11" points="298.7,572 394.53,572 479.02,382 562.12,382 589.9,307 365.85,307 321.61,382 397.48,382     298.7,572   "/>
	</g>
	<g id="LWPOLYLINE_78_" class="st9">
		<polygon class="st11" points="306.94,567 391.28,567 475.77,377 558.64,377 582.72,312 368.71,312 330.37,377 405.72,377   "/>
	</g>
	<g id="LWPOLYLINE_79_" class="st9">
		<polygon class="st12" points="1168.81,382 1154.46,307 1107.53,307 1118.39,382   "/>
	</g>
	<g id="LWPOLYLINE_80_" class="st9">
		<polygon class="st12" points="1162.77,377 1150.33,312 1113.3,312 1122.72,377   "/>
	</g>
	<g id="LWPOLYLINE_81_" class="st9">
		<polygon class="st12" points="1122.27,572 1037.43,572 1028.76,427 1103.96,427   "/>
	</g>
	<g id="LWPOLYLINE_82_" class="st9">
		<polygon class="st12" points="1116.6,567 1042.14,567 1034.07,432 1099.55,432   "/>
	</g>
	<g id="LWPOLYLINE_83_" class="st9">
		<polygon class="st11" points="1273.76,427 1124.91,427 1137.23,512 1320.08,512 1374.15,477.76 1342.79,388.1   "/>
	</g>
	<g id="LWPOLYLINE_84_" class="st9">
		<polygon class="st11" points="1275.07,432 1130.69,432 1141.55,507 1318.63,507 1368.12,475.66 1340.04,395.39   "/>
	</g>
	<g id="LWPOLYLINE_85_" class="st9">
		<polygon class="st11" points="1486.72,307 1356.06,380.62 1388.22,468.85 1456.38,425.69 1520.59,572 1624.2,572 1525.37,382     1600.2,382 1556.01,307   "/>
	</g>
	<g id="LWPOLYLINE_86_" class="st9">
		<polygon class="st11" points="1488.03,312 1362.21,382.9 1390.79,461.31 1458.62,418.35 1523.85,567 1615.97,567 1517.14,377     1591.45,377 1553.16,312   "/>
	</g>
	<g id="LWPOLYLINE_87_" class="st9">
		<polygon class="st12" points="1166.01,307 1181.22,382 1230.81,382 1212.17,307   "/>
	</g>
	<g id="LWPOLYLINE_88_" class="st9">
		<polygon class="st12" points="1172.12,312 1185.3,377 1224.42,377 1208.26,312   "/>
	</g>
	<g id="LWPOLYLINE_89_" class="st9">
		<polyline class="st12" points="827.87,307 747.78,307 674.74,427 665.22,307 589.9,307 587.45,572 691.77,572 827.87,307   "/>
	</g>
	<g id="LWPOLYLINE_90_" class="st9">
		<polygon class="st12" points="819.68,312 750.59,312 670.98,442.8 660.6,312 594.86,312 592.5,567 688.71,567   "/>
	</g>
	<g id="LWPOLYLINE_91_" class="st9">
		<polyline class="st11" points="1014.59,572 958.3,572 902,572 910.03,382 818.4,382 827.87,307 913.16,307 914.84,267     1001.83,267 1003.51,307 1088.8,307 1098.27,382 1006.64,382 1014.59,572   "/>
	</g>
	<g id="LWPOLYLINE_92_" class="st9">
		<polygon class="st11" points="1009.38,567 958.3,567 907.22,567 915.24,377 824.07,377 832.28,312 917.96,312 919.63,272     997.04,272 998.71,312 1084.39,312 1092.6,377 1001.43,377   "/>
	</g>
	<g id="LWPOLYLINE_93_" class="st9">
		<polygon class="st12" points="794.33,572 879.17,572 887.84,427 812.64,427   "/>
	</g>
	<g id="LWPOLYLINE_94_" class="st9">
		<polygon class="st12" points="800,567 874.46,567 882.53,432 817.05,432   "/>
	</g>
</g>
</svg>