<?xml version="1.0" encoding="UTF-8" standalone="no"?>
<svg
   xmlns:dc="http://purl.org/dc/elements/1.1/"
   xmlns:cc="http://creativecommons.org/ns#"
   xmlns:rdf="http://www.w3.org/1999/02/22-rdf-syntax-ns#"
   xmlns:svg="http://www.w3.org/2000/svg"
   xmlns="http://www.w3.org/2000/svg"
   xmlns:sodipodi="http://sodipodi.sourceforge.net/DTD/sodipodi-0.dtd"
   xmlns:inkscape="http://www.inkscape.org/namespaces/inkscape"
   width="570"
   height="160"
   viewBox="0 -0.001 569.99998 160"
   xml:space="preserve"
   version="1.1"
   id="svg270"
   sodipodi:docname="mame.svg"
   inkscape:version="0.92.4 (5da689c313, 2019-01-14)"><metadata
   id="metadata276"><rdf:RDF><cc:Work
       rdf:about=""><dc:format>image/svg+xml</dc:format><dc:type
         rdf:resource="http://purl.org/dc/dcmitype/StillImage" /><dc:title></dc:title></cc:Work></rdf:RDF></metadata><defs
   id="defs274" /><sodipodi:namedview
   pagecolor="#ffffff"
   bordercolor="#666666"
   borderopacity="1"
   objecttolerance="10"
   gridtolerance="10"
   guidetolerance="10"
   inkscape:pageopacity="0"
   inkscape:pageshadow="2"
   inkscape:window-width="640"
   inkscape:window-height="480"
   id="namedview272"
   showgrid="false"
   inkscape:zoom="1.7810845"
   inkscape:cx="224.91813"
   inkscape:cy="83.408855"
   inkscape:current-layer="svg270" />
    <linearGradient
   id="a"
   gradientUnits="userSpaceOnUse"
   x1="558.12799"
   y1="955.59802"
   x2="11.77"
   y2="955.59802"
   gradientTransform="translate(1.504367,-874.87438)">
        <stop
   offset="0"
   style="stop-color:#013a67"
   id="stop2" />
        <stop
   offset="1"
   style="stop-color:#6cd1ff"
   id="stop4" />
    </linearGradient>
    <path
   d="m 492.87538,28.197633 45.586,0.284 21.172,-22.0189989 -77.998,-0.285 -73.289,73.5749989 -10.262,0.567 0.286,-70.7829997 -41.205,42.0539997 -9.856,1.169 V 9.9096333 l -84.361,83.4679997 -10.489,1.116 0.892,-85.8809991 -73.73,74.8629991 -9.682,0.047 -1.135,-71.898 -39.778,40.061 -11.064,0.567 0.419,-42.7779997 -105.106012,105.9559867 34.618,-0.567 45.389,-44.051987 h 8.705012 l -0.42,44.263987 36.152,-36.996987 h 8.644 v 37.686987 l -39.787,39.5 38.127,-0.565 75.017,-75.865987 h 10.104 v 37.270987 l 46.757,0.284 45.218,-45.500987 8.728,-0.567 -0.135,43.012987 36.131,-36.131987 h 8.536 l 0.566,36.434987 -0.738,1.896 h 109.175 l 20.901,-21.182987 -67.881,-1.154 -0.617,-9.852 10.576,-11.139 25.611,-0.003 22.248,-22.534 -13.447,-0.568 v -9.483 z"
   id="path7"
   inkscape:connector-curvature="0"
   style="fill:url(#a)" />
    <linearGradient
   id="b"
   gradientUnits="userSpaceOnUse"
   x1="64.709999"
   y1="938.789"
   x2="60.764999"
   y2="934.84497"
   gradientTransform="translate(1.504367,-874.87438)">
        <stop
   offset="0"
   style="stop-color:#08406f"
   id="stop9" />
        <stop
   offset="1"
   style="stop-color:#60c5f5"
   id="stop11" />
    </linearGradient>
    <path
   d="M 116.37638,13.748633 15.261368,114.86362 l -11.4710009,4.313 c 0,0 -0.604,0.039 -0.271,-0.445 0,0 117.2600129,-117.2919859 117.4720129,-117.4709859 0.212,-0.181 0.467,-0.028 0.467,-0.028 z"
   id="path14"
   inkscape:connector-curvature="0"
   style="fill:url(#b)" />
    <linearGradient
   id="c"
   gradientUnits="userSpaceOnUse"
   x1="123.295"
   y1="1013.91"
   x2="119.67"
   y2="1010.285"
   gradientTransform="translate(1.504367,-874.87438)">
        <stop
   offset="0"
   style="stop-color:#08406f"
   id="stop16" />
        <stop
   offset="1"
   style="stop-color:#60c5f5"
   id="stop18" />
    </linearGradient>
    <path
   d="m 147.49838,116.33262 -37.518,37.521 -11.065012,4.457 c 0,0 -0.576,0.065 -0.236,-0.407 l 43.929012,-43.749 z"
   id="path21"
   inkscape:connector-curvature="0"
   style="fill:url(#c)" />
    <linearGradient
   id="d"
   gradientUnits="userSpaceOnUse"
   x1="25.724001"
   y1="994.05103"
   x2="25.724001"
   y2="989.73798"
   gradientTransform="translate(1.504367,-874.87438)">
        <stop
   offset="0"
   style="stop-color:#08406f"
   id="stop23" />
        <stop
   offset="1"
   style="stop-color:#60c5f5"
   id="stop25" />
    </linearGradient>
    <path
   d="M 50.666368,119.17662 H 3.7903671 l 11.4970009,-4.313 h 32.606 z"
   id="path28"
   inkscape:connector-curvature="0"
   style="fill:url(#d)" />
    <linearGradient
   id="e"
   gradientUnits="userSpaceOnUse"
   x1="121.186"
   y1="1033.182"
   x2="121.186"
   y2="1028.725"
   gradientTransform="translate(1.504367,-874.87438)">
        <stop
   offset="0"
   style="stop-color:#08406f"
   id="stop30" />
        <stop
   offset="1"
   style="stop-color:#60c5f5"
   id="stop32" />
    </linearGradient>
    <path
   d="M 146.46538,158.30662 H 98.914368 l 11.066012,-4.457 h 33.872 z"
   id="path35"
   inkscape:connector-curvature="0"
   style="fill:url(#e)" />
    <linearGradient
   id="f"
   gradientUnits="userSpaceOnUse"
   x1="427.694"
   y1="994.02301"
   x2="427.694"
   y2="989.55701"
   gradientTransform="translate(1.504367,-874.87438)">
        <stop
   offset="0"
   style="stop-color:#08406f"
   id="stop37" />
        <stop
   offset="1"
   style="stop-color:#60c5f5"
   id="stop39" />
    </linearGradient>
    <path
   d="m 486.47138,119.14862 -114.545,-0.029 3.81,-4.436 107.477,-0.002 z"
   id="path42"
   inkscape:connector-curvature="0"
   style="fill:url(#f)" />
    <linearGradient
   id="g"
   gradientUnits="userSpaceOnUse"
   x1="251.065"
   y1="994.89398"
   x2="251.065"
   y2="990.41602"
   gradientTransform="translate(1.504367,-874.87438)">
        <stop
   offset="0"
   style="stop-color:#08406f"
   id="stop44" />
        <stop
   offset="1"
   style="stop-color:#60c5f5"
   id="stop46" />
    </linearGradient>
    <path
   d="m 278.73738,120.01962 -51.527,-0.029 c -0.333,0.005 -0.81,-0.335 -0.81,-0.335 l 4.561,-4.115 h 45.054 z"
   id="path49"
   inkscape:connector-curvature="0"
   style="fill:url(#g)" />
    <linearGradient
   id="h"
   gradientUnits="userSpaceOnUse"
   x1="522.28101"
   y1="882.18799"
   x2="522.28101"
   y2="877.32397"
   gradientTransform="translate(1.504367,-874.87438)">
        <stop
   offset="0"
   style="stop-color:#08406f"
   id="stop51" />
        <stop
   offset="1"
   style="stop-color:#60c5f5"
   id="stop53" />
    </linearGradient>
    <path
   d="m 479.06638,2.4486341 h 88.652 c 0.785,0 0.785,0.313 0.785,0.313 l -10.572,4.55 h -75.164 z"
   id="path56"
   inkscape:connector-curvature="0"
   style="fill:url(#h)" />
    <linearGradient
   id="i"
   gradientUnits="userSpaceOnUse"
   x1="515.013"
   y1="906.71503"
   x2="515.013"
   y2="902.505"
   gradientTransform="translate(1.504367,-874.87438)">
        <stop
   offset="0"
   style="stop-color:#08406f"
   id="stop58" />
        <stop
   offset="1"
   style="stop-color:#60c5f5"
   id="stop60" />
    </linearGradient>
    <path
   d="m 540.72638,31.839633 h -46.345 l -2.072,-4.21 h 45.302 z"
   id="path63"
   inkscape:connector-curvature="0"
   style="fill:url(#i)" />
    <linearGradient
   id="j"
   gradientUnits="userSpaceOnUse"
   x1="459.37"
   y1="950.23102"
   x2="459.37"
   y2="946.51202"
   gradientTransform="translate(1.504367,-874.87438)">
        <stop
   offset="0"
   style="stop-color:#08406f"
   id="stop65" />
        <stop
   offset="1"
   style="stop-color:#60c5f5"
   id="stop67" />
    </linearGradient>
    <path
   d="m 475.27338,75.355633 h -24.679 l -4.119,-3.718 25.611,-0.002 z"
   id="path70"
   inkscape:connector-curvature="0"
   style="fill:url(#j)" />
    <linearGradient
   id="k"
   gradientUnits="userSpaceOnUse"
   x1="490.16101"
   y1="925.11102"
   x2="490.16101"
   y2="919.55701"
   gradientTransform="translate(1.504367,-874.87438)">
        <stop
   offset="0"
   style="stop-color:#08406f"
   id="stop72" />
        <stop
   offset="1"
   style="stop-color:#60c5f5"
   id="stop74" />
    </linearGradient>
    <path
   d="m 493.48438,50.235633 h -13.58 l -1.193,-5.548 h 25.467 c 0.346,-0.043 0.441,0.146 0.441,0.146 z"
   id="path77"
   inkscape:connector-curvature="0"
   style="fill:url(#k)" />
    <linearGradient
   id="l"
   gradientUnits="userSpaceOnUse"
   x1="74.389"
   y1="968.82501"
   x2="70.846001"
   y2="965.28198"
   gradientTransform="translate(1.504367,-874.87438)">
        <stop
   offset="0"
   style="stop-color:#08406f"
   id="stop79" />
        <stop
   offset="1"
   style="stop-color:#60c5f5"
   id="stop81" />
    </linearGradient>
    <path
   d="m 98.556368,71.169633 -47.89,48.008987 -2.773,-4.313 46.601,-46.364987 c 2,-2.313 4.675,-1.731 4.675,-1.731 z"
   id="path84"
   inkscape:connector-curvature="0"
   style="fill:url(#l)" />
    <linearGradient
   id="m"
   gradientUnits="userSpaceOnUse"
   x1="120.255"
   y1="904.36902"
   x2="114.889"
   y2="904.36902"
   gradientTransform="translate(1.504367,-874.87438)">
        <stop
   offset="0"
   style="stop-color:#08406f"
   id="stop86" />
        <stop
   offset="1"
   style="stop-color:#60c5f5"
   id="stop88" />
    </linearGradient>
    <path
   d="m 116.39438,52.204633 v -38.476 l 5.063,-12.4989989 c 0,0 0.303,0.075 0.303,0.571 V 55.447633 l -0.315,2.311 c 0,10e-4 -4.496,0.025 -5.051,-5.554 z"
   id="path91"
   inkscape:connector-curvature="0"
   style="fill:url(#m)" />
    <linearGradient
   id="n"
   gradientUnits="userSpaceOnUse"
   x1="173.08099"
   y1="919.961"
   x2="166.42101"
   y2="919.961"
   gradientTransform="translate(1.504367,-874.87438)">
        <stop
   offset="0"
   style="stop-color:#08406f"
   id="stop93" />
        <stop
   offset="1"
   style="stop-color:#60c5f5"
   id="stop95" />
    </linearGradient>
    <path
   d="m 174.58638,89.378633 c 0,0 -6.539,1.95 -6.621,-5.625 -0.08,-7.313 -0.013,-69.291 -0.013,-69.291 l 5.214,-13.89599888 c 0,0 0.182,-0.027 0.182,0.72499998 l -0.017,81.7929989 z"
   id="path98"
   inkscape:connector-curvature="0"
   style="fill:url(#n)" />
    <linearGradient
   id="o"
   gradientUnits="userSpaceOnUse"
   x1="255.98801"
   y1="925.216"
   x2="249.995"
   y2="925.216"
   gradientTransform="translate(1.504367,-874.87438)">
        <stop
   offset="0"
   style="stop-color:#08406f"
   id="stop100" />
        <stop
   offset="1"
   style="stop-color:#60c5f5"
   id="stop102" />
    </linearGradient>
    <path
   d="m 257.49338,99.445624 c 0,0 -5.889,0.576996 -5.96,-6.087991 l -0.033,-80.063 4.651,-12.0709989 c 0,0 0.583,0.153 0.583,0.907 l -0.016,91.1399989 z"
   id="path105"
   inkscape:connector-curvature="0"
   style="fill:url(#o)" />
    <linearGradient
   id="p"
   gradientUnits="userSpaceOnUse"
   x1="349.27701"
   y1="904.625"
   x2="343.57599"
   y2="904.625"
   gradientTransform="translate(1.504367,-874.87438)">
        <stop
   offset="0"
   style="stop-color:#08406f"
   id="stop107" />
        <stop
   offset="1"
   style="stop-color:#60c5f5"
   id="stop109" />
    </linearGradient>
    <path
   d="m 350.78138,57.960633 c 0,0 -4.868,0.452 -5.701,-4.563 v -39.723 l 4.393,-12.1469989 c 0,0 0.563,0.134 0.563,0.886 V 52.080633 Z"
   id="path112"
   inkscape:connector-curvature="0"
   style="fill:url(#p)" />
    <linearGradient
   id="q"
   gradientUnits="userSpaceOnUse"
   x1="400.95999"
   y1="918.44598"
   x2="395.164"
   y2="918.44598"
   gradientTransform="translate(1.504367,-874.87438)">
        <stop
   offset="0"
   style="stop-color:#08406f"
   id="stop114" />
        <stop
   offset="1"
   style="stop-color:#60c5f5"
   id="stop116" />
    </linearGradient>
    <path
   d="m 402.46538,85.868633 c 0,0 -4.938,0.643 -5.797,-4.373 v -67.706 l 4.85,-12.5439989 c 0,0 0.268,0.221 0.268,1.708 V 80.179633 Z"
   id="path119"
   inkscape:connector-curvature="0"
   style="fill:url(#q)" />
    <linearGradient
   id="r"
   gradientUnits="userSpaceOnUse"
   x1="101.765"
   y1="968.93799"
   x2="96.653999"
   y2="968.93799"
   gradientTransform="translate(1.504367,-874.87438)">
        <stop
   offset="0"
   style="stop-color:#08406f"
   id="stop121" />
        <stop
   offset="1"
   style="stop-color:#60c5f5"
   id="stop123" />
    </linearGradient>
    <path
   d="m 99.443364,121.35562 c 0,0 -0.832996,-0.069 -0.808996,-1.149 l -0.078,-49.035987 c 0,0 -1.218,-1.577 0.613,-4.4 0.546996,0.131 3.495012,0.727 4.101012,4.256 v 40.369987 z"
   id="path126"
   inkscape:connector-curvature="0"
   style="fill:url(#r)" />
    <linearGradient
   id="s"
   gradientUnits="userSpaceOnUse"
   x1="121.249"
   y1="973.83801"
   x2="117.696"
   y2="970.28601"
   gradientTransform="translate(1.504367,-874.87438)">
        <stop
   offset="0"
   style="stop-color:#08406f"
   id="stop128" />
        <stop
   offset="1"
   style="stop-color:#60c5f5"
   id="stop130" />
    </linearGradient>
    <path
   d="m 142.52738,79.133633 c 0,0 -41.48901,41.547987 -41.88301,41.937987 -0.346,0.379 -1.202006,0.282 -1.202006,0.282 l 3.827016,-9.963 36.059,-36.087987 c 0,0 1.34,-1.727 3.831,-1.637 z"
   id="path133"
   inkscape:connector-curvature="0"
   style="fill:url(#s)" />
    <linearGradient
   id="t"
   gradientUnits="userSpaceOnUse"
   x1="553.43597"
   y1="892.5"
   x2="549.76703"
   y2="888.83099"
   gradientTransform="translate(1.504367,-874.87438)">
        <stop
   offset="0"
   style="stop-color:#08406f"
   id="stop135" />
        <stop
   offset="1"
   style="stop-color:#60c5f5"
   id="stop137" />
    </linearGradient>
    <path
   d="m 568.29338,4.1746341 -27.566,27.6649989 -3.115,-4.211 20.312,-20.3239989 10.582,-4.542 c 0,10e-4 0.349,0.847 -0.213,1.412 z"
   id="path140"
   inkscape:connector-curvature="0"
   style="fill:url(#t)" />
    <linearGradient
   id="u"
   gradientUnits="userSpaceOnUse"
   x1="145.994"
   y1="969.87903"
   x2="140.59599"
   y2="969.87903"
   gradientTransform="translate(1.504367,-874.87438)">
        <stop
   offset="0"
   style="stop-color:#08406f"
   id="stop142" />
        <stop
   offset="1"
   style="stop-color:#60c5f5"
   id="stop144" />
    </linearGradient>
    <path
   d="m 142.60838,114.15162 -0.079,-35.024987 c 0,0 -1.301,-2.633 0.631,-5.456 0.593,-0.007 3.7,0.421 4.339,4.146 l -0.001,38.519987 z"
   id="path147"
   inkscape:connector-curvature="0"
   style="fill:url(#u)" />
    <linearGradient
   id="v"
   gradientUnits="userSpaceOnUse"
   x1="148.77699"
   y1="907.01001"
   x2="144.289"
   y2="902.52197"
   gradientTransform="translate(1.504367,-874.87438)">
        <stop
   offset="0"
   style="stop-color:#08406f"
   id="stop149" />
        <stop
   offset="1"
   style="stop-color:#60c5f5"
   id="stop151" />
    </linearGradient>
    <path
   d="m 167.95338,14.461633 -41.462,41.463 c -1.987,1.986 -5.045,1.836 -5.045,1.836 -1.795,-3.531 0.315,-6.065 0.315,-6.065 0,0 50.503,-50.4899989 50.867,-50.86999888 0.331,-0.41699998 0.541,-0.264 0.541,-0.264 z"
   id="path154"
   inkscape:connector-curvature="0"
   style="fill:url(#v)" />
    <linearGradient
   id="w"
   gradientUnits="userSpaceOnUse"
   x1="215.84599"
   y1="922.32098"
   x2="211.688"
   y2="918.164"
   gradientTransform="translate(1.504367,-874.87438)">
        <stop
   offset="0"
   style="stop-color:#08406f"
   id="stop156" />
        <stop
   offset="1"
   style="stop-color:#60c5f5"
   id="stop158" />
    </linearGradient>
    <path
   d="m 251.49938,13.297633 -74.376,74.375 c -1.55,1.551 -2.537,1.703 -2.537,1.703 -3.781,-1.878 -1.213,-6.255 -1.213,-6.255 0,0 80.652,-80.6349989 81.016,-81.0149989 0.943,-1.093 1.761,-0.883 1.761,-0.883 z"
   id="path161"
   inkscape:connector-curvature="0"
   style="fill:url(#w)" />
    <linearGradient
   id="x"
   gradientUnits="userSpaceOnUse"
   x1="304.31601"
   y1="927.81097"
   x2="299.93201"
   y2="923.42603"
   gradientTransform="translate(1.504367,-874.87438)">
        <stop
   offset="0"
   style="stop-color:#08406f"
   id="stop163" />
        <stop
   offset="1"
   style="stop-color:#60c5f5"
   id="stop165" />
    </linearGradient>
    <path
   d="m 345.08038,13.674633 -84.163,84.161 c -1.429,1.431995 -3.424,1.607991 -3.424,1.607991 -3.115,-1.555991 -0.776,-6.174991 -0.776,-6.174991 0,0 90.61,-90.4999989 90.974,-90.8809989 0.941,-1.098 1.781,-0.862 1.781,-0.862 z"
   id="path168"
   inkscape:connector-curvature="0"
   style="fill:url(#x)" />
    <linearGradient
   id="y"
   gradientUnits="userSpaceOnUse"
   x1="376.97101"
   y1="906.86102"
   x2="372.763"
   y2="902.65302"
   gradientTransform="translate(1.504367,-874.87438)">
        <stop
   offset="0"
   style="stop-color:#08406f"
   id="stop170" />
        <stop
   offset="1"
   style="stop-color:#60c5f5"
   id="stop172" />
    </linearGradient>
    <path
   d="m 396.66838,13.789633 -42.513,42.514 c -1.429,1.432 -3.374,1.657 -3.374,1.657 -2.932,-1.908 -0.588,-5.983 -0.588,-5.983 0,0 49.584,-49.6899989 49.947,-50.0699989 1.047,-1.03299998 1.377,-0.66 1.377,-0.66 z"
   id="path175"
   inkscape:connector-curvature="0"
   style="fill:url(#y)" />
    <linearGradient
   id="z"
   gradientUnits="userSpaceOnUse"
   x1="488.73801"
   y1="935.26501"
   x2="485.28201"
   y2="931.80902"
   gradientTransform="translate(1.504367,-874.87438)">
        <stop
   offset="0"
   style="stop-color:#08406f"
   id="stop177" />
        <stop
   offset="1"
   style="stop-color:#60c5f5"
   id="stop179" />
    </linearGradient>
    <path
   d="m 504.64238,45.988633 -29.369,29.367 -3.188,-3.722 21.399,-21.398 11.135,-5.401 c 0,0 0.414,0.294 0.023,1.154 z"
   id="path182"
   inkscape:connector-curvature="0"
   style="fill:url(#z)" />
    <linearGradient
   id="A"
   gradientUnits="userSpaceOnUse"
   x1="499.80801"
   y1="979.37701"
   x2="495.849"
   y2="975.41803"
   gradientTransform="translate(1.504367,-874.87438)">
        <stop
   offset="0"
   style="stop-color:#08406f"
   id="stop184" />
        <stop
   offset="1"
   style="stop-color:#60c5f5"
   id="stop186" />
    </linearGradient>
    <path
   d="m 515.31838,90.495633 -28.848,28.650987 -3.258,-4.465 20.049,-20.048987 12.289,-5.38 c 10e-4,0.003 0.397,0.435 -0.232,1.243 z"
   id="path189"
   inkscape:connector-curvature="0"
   style="fill:url(#A)" />
    <linearGradient
   id="B"
   gradientUnits="userSpaceOnUse"
   x1="441.83701"
   y1="921.61298"
   x2="437.55499"
   y2="917.33099"
   gradientTransform="translate(1.504367,-874.87438)">
        <stop
   offset="0"
   style="stop-color:#08406f"
   id="stop191" />
        <stop
   offset="1"
   style="stop-color:#60c5f5"
   id="stop193" />
    </linearGradient>
    <path
   d="m 482.76738,7.3126341 -76.912,76.9129989 c -1.43,1.432 -3.395,1.644 -3.395,1.644 -2.449,-3.092 -0.686,-5.979 -0.686,-5.979 l 77.289,-77.4399989 z"
   id="path196"
   inkscape:connector-curvature="0"
   style="fill:url(#B)" />
    <linearGradient
   id="C"
   gradientUnits="userSpaceOnUse"
   x1="486.85901"
   y1="916.64899"
   x2="481.745"
   y2="911.53497"
   gradientTransform="translate(1.504367,-874.87438)">
        <stop
   offset="0"
   style="stop-color:#08406f"
   id="stop198" />
        <stop
   offset="1"
   style="stop-color:#60c5f5"
   id="stop200" />
    </linearGradient>
    <path
   d="m 494.38138,31.839633 -12.676,12.786 c -2.771,2.282 -1.801,5.608 -1.801,5.608 -2.25,-0.21 -3.125,-2.065 -3.412,-3.695 -0.285,-1.63 0.303,-3.422 1.348,-4.467 l 14.469,-14.44 z"
   id="path203"
   inkscape:connector-curvature="0"
   style="fill:url(#C)" />
    <linearGradient
   id="D"
   gradientUnits="userSpaceOnUse"
   x1="185.97701"
   y1="992.33002"
   x2="182.33501"
   y2="988.68799"
   gradientTransform="translate(1.504367,-874.87438)">
        <stop
   offset="0"
   style="stop-color:#08406f"
   id="stop205" />
        <stop
   offset="1"
   style="stop-color:#60c5f5"
   id="stop207" />
    </linearGradient>
    <path
   d="m 143.85438,153.85162 77.913,-77.942987 c 0,0 1.437,-1.873 4.267,-1.771 l -0.456,5.223 c 0,0 -78.666,78.505987 -79.113,78.947987 z"
   id="path210"
   inkscape:connector-curvature="0"
   style="fill:url(#D)" />
    <linearGradient
   id="E"
   gradientUnits="userSpaceOnUse"
   x1="303.02802"
   y1="969.14001"
   x2="299.38699"
   y2="965.49902"
   gradientTransform="translate(1.504367,-874.87438)">
        <stop
   offset="0"
   style="stop-color:#08406f"
   id="stop212" />
        <stop
   offset="1"
   style="stop-color:#60c5f5"
   id="stop214" />
    </linearGradient>
    <path
   d="m 276.01438,115.53962 47.643,-47.658987 c 0,0 1.437,-1.871 4.267,-1.771 l -0.857,5.621 -48.325,48.289987 z"
   id="path217"
   inkscape:connector-curvature="0"
   style="fill:url(#E)" />
    <linearGradient
   id="F"
   gradientUnits="userSpaceOnUse"
   x1="349.88901"
   y1="973.08502"
   x2="346.38"
   y2="969.57599"
   gradientTransform="translate(1.504367,-874.87438)">
        <stop
   offset="0"
   style="stop-color:#08406f"
   id="stop219" />
        <stop
   offset="1"
   style="stop-color:#60c5f5"
   id="stop221" />
    </linearGradient>
    <path
   d="m 331.80938,110.78562 36.779,-36.788987 c 0.842,-0.843 1.779,-1.771 3.396,-1.771 l -0.107,5.501 -43.081,43.042987 c -0.569,0.563 -1.019,0.399 -1.019,0.399 z"
   id="path224"
   inkscape:connector-curvature="0"
   style="fill:url(#F)" />
    <linearGradient
   id="G"
   gradientUnits="userSpaceOnUse"
   x1="370.80399"
   y1="993.64001"
   x2="366.38101"
   y2="989.21698"
   gradientTransform="translate(1.504367,-874.87438)">
        <stop
   offset="0"
   style="stop-color:#08406f"
   id="stop226" />
        <stop
   offset="1"
   style="stop-color:#60c5f5"
   id="stop228" />
    </linearGradient>
    <path
   d="m 363.66838,118.59262 7.25,-7.281 5.557,2.326 -0.734,1.047 -3.813,4.437 -0.272,0.3 h -7.72 c -0.34,0.014 -0.521,-0.271 -0.521,-0.271 0,0 -0.155,-0.147 0.253,-0.558 z"
   id="path231"
   inkscape:connector-curvature="0"
   style="fill:url(#G)" />
    <linearGradient
   id="H"
   gradientUnits="userSpaceOnUse"
   x1="229.457"
   y1="971.76898"
   x2="223.41901"
   y2="971.76898"
   gradientTransform="translate(1.504367,-874.87438)">
        <stop
   offset="0"
   style="stop-color:#08406f"
   id="stop233" />
        <stop
   offset="1"
   style="stop-color:#60c5f5"
   id="stop235" />
    </linearGradient>
    <path
   d="m 225.66738,117.87362 -0.09,-38.514987 c 0,0 -1.738,-2.016 0.457,-5.223 0.673,-0.01 4.202,0.478 4.928,4.707 l -0.001,36.693987 -4.561,4.115 c 0,0.003 -0.73,-0.475 -0.733,-1.778 z"
   id="path238"
   inkscape:connector-curvature="0"
   style="fill:url(#H)" />
    <linearGradient
   id="I"
   gradientUnits="userSpaceOnUse"
   x1="330.30399"
   y1="968.51898"
   x2="325.09201"
   y2="968.51898"
   gradientTransform="translate(1.504367,-874.87438)">
        <stop
   offset="0"
   style="stop-color:#08406f"
   id="stop240" />
        <stop
   offset="1"
   style="stop-color:#60c5f5"
   id="stop242" />
    </linearGradient>
    <path
   d="m 327.13338,120.48062 -0.08,-48.749987 c 0,0 -1.472,-2.681 0.871,-5.621 0.596,-0.009 3.243,0.472 3.885,4.702 v 39.974987 l -4.028,10.39 c -0.004,-0.002 -0.605,-0.143 -0.648,-0.696 z"
   id="path245"
   inkscape:connector-curvature="0"
   style="fill:url(#I)" />
    <linearGradient
   id="J"
   gradientUnits="userSpaceOnUse"
   x1="374.97"
   y1="967.80701"
   x2="368.72501"
   y2="967.80701"
   gradientTransform="translate(1.504367,-874.87438)">
        <stop
   offset="0"
   style="stop-color:#08406f"
   id="stop247" />
        <stop
   offset="1"
   style="stop-color:#60c5f5"
   id="stop249" />
    </linearGradient>
    <path
   d="M 370.91838,111.31062 V 78.681633 c 0,0 -2.113,-3.379 1.064,-6.456 0.693,-0.008 4.132,0.24 4.492,4.323 v 37.087987 z"
   id="path252"
   inkscape:connector-curvature="0"
   style="fill:url(#J)" />
    <linearGradient
   id="K"
   gradientUnits="userSpaceOnUse"
   x1="440.63699"
   y1="959.67499"
   x2="436.21899"
   y2="955.25702"
   gradientTransform="translate(1.504367,-874.87438)">
        <stop
   offset="0"
   style="stop-color:#08406f"
   id="stop254" />
        <stop
   offset="1"
   style="stop-color:#60c5f5"
   id="stop256" />
    </linearGradient>
    <path
   d="m 450.59438,75.355633 -13.451,13.479 -3.844,4.809 c -3.896,-2.458 -1.953,-6.874 -0.912,-7.925 l 14.088,-14.079 z"
   id="path259"
   inkscape:connector-curvature="0"
   style="fill:url(#K)" />
    <linearGradient
   id="L"
   gradientUnits="userSpaceOnUse"
   x1="472.92001"
   y1="969.51001"
   x2="472.92001"
   y2="963.70801"
   gradientTransform="translate(1.504367,-874.87438)">
        <stop
   offset="0"
   style="stop-color:#08406f"
   id="stop261" />
        <stop
   offset="1"
   style="stop-color:#60c5f5"
   id="stop263" />
    </linearGradient>
    <path
   d="m 503.26438,94.633633 h -66.391 c -2.502,-0.196 -3.574,-0.992 -3.574,-0.992 -0.012,-3.571 3.844,-4.809 3.844,-4.809 l 77.746,0.001 c 0.543,-0.001 0.662,0.422 0.662,0.422 z"
   id="path266"
   inkscape:connector-curvature="0"
   style="fill:url(#L)" />
    <path
   d="m 1.6843671,142.59062 v -9.521 h 2.876 l 1.728,6.494 1.708,-6.494 h 2.8829999 v 9.521 H 9.0943671 v -7.496 l -1.89,7.496 h -1.851 l -1.883,-7.496 v 7.496 z m 17.2240009,-9.523 h 1.922 v 5.155 c 0,0.816 0.024,1.35 0.071,1.592 0.083,0.391 0.278,0.701 0.588,0.938 0.31,0.237 0.732,0.354 1.27,0.354 0.545,0 0.957,-0.11 1.234,-0.334 0.277,-0.223 0.443,-0.496 0.5,-0.821 0.056,-0.324 0.084,-0.863 0.084,-1.616 v -5.268 h 1.922 v 5.001 c 0,1.144 -0.052,1.95 -0.155,2.423 -0.104,0.472 -0.296,0.87 -0.575,1.193 -0.279,0.324 -0.652,0.582 -1.12,0.773 -0.468,0.192 -1.078,0.289 -1.832,0.289 -0.909,0 -1.599,-0.104 -2.068,-0.313 -0.47,-0.211 -0.841,-0.482 -1.114,-0.818 a 2.622,2.622 0 0 1 -0.539,-1.057 c -0.125,-0.545 -0.188,-1.353 -0.188,-2.416 z m 15.801,9.523 v -9.443 h 1.922 v 7.84 h 4.78 v 1.604 h -6.702 z m 15.36,0 v -7.91 h -2.825 v -1.61 h 7.566 v 1.61 h -2.819 v 7.91 z m 12.053,0 v -9.521 h 1.922 v 9.521 z m 9.886,0 v -9.521 h 3.085 c 1.169,0 1.931,0.048 2.286,0.144 a 2.5,2.5 0 0 1 1.37,0.935 c 0.368,0.479 0.552,1.098 0.552,1.854 0,0.584 -0.106,1.075 -0.318,1.477 a 2.625,2.625 0 0 1 -0.809,0.938 2.765,2.765 0 0 1 -0.997,0.452 c -0.459,0.09 -1.124,0.136 -1.994,0.136 h -1.253 v 3.594 z m 1.922,-7.91 v 2.701 h 1.052 c 0.757,0 1.264,-0.053 1.52,-0.15 a 1.245,1.245 0 0 0 0.818,-1.207 c 0,-0.346 -0.102,-0.633 -0.305,-0.856 a 1.352,1.352 0 0 0 -0.773,-0.422 c -0.229,-0.043 -0.691,-0.063 -1.383,-0.063 z m 13.132,7.91 v -9.443 h 1.922 v 7.84 h 4.78 v 1.604 h -6.702 z m 14.204012,0 v -9.521 h 7.059 v 1.609 h -5.137 v 2.108 h 4.78 v 1.604 h -4.78 v 2.592 h 5.319 v 1.604 z m 90.384,0 h -2.091 l -0.831,-2.164 h -3.806 l -0.786,2.164 h -2.039 l 3.708,-9.521 h 2.032 z m -3.539,-3.769 -1.313,-3.532 -1.286,3.532 z m 10.697,3.769 v -9.521 h 4.046 c 1.018,0 1.757,0.086 2.218,0.258 0.461,0.171 0.83,0.477 1.107,0.912 0.277,0.438 0.416,0.938 0.416,1.5 0,0.714 -0.21,1.304 -0.63,1.771 -0.419,0.465 -1.047,0.758 -1.883,0.879 0.416,0.242 0.758,0.51 1.029,0.799 0.271,0.291 0.635,0.808 1.094,1.548 l 1.162,1.856 h -2.299 l -1.39,-2.072 c -0.493,-0.739 -0.832,-1.207 -1.013,-1.398 a 1.541,1.541 0 0 0 -0.578,-0.396 c -0.203,-0.069 -0.526,-0.104 -0.968,-0.104 h -0.389 v 3.978 h -1.922 z m 1.922,-5.496 h 1.422 c 0.922,0 1.498,-0.037 1.727,-0.115 0.23,-0.077 0.409,-0.213 0.539,-0.402 0.13,-0.188 0.195,-0.43 0.195,-0.714 0,-0.32 -0.085,-0.579 -0.256,-0.776 -0.171,-0.193 -0.412,-0.318 -0.724,-0.371 -0.156,-0.021 -0.623,-0.031 -1.403,-0.031 h -1.5 z m 19.899,1.993 1.864,0.593 c -0.286,1.041 -0.761,1.813 -1.425,2.313 -0.664,0.504 -1.508,0.757 -2.53,0.757 -1.264,0 -2.303,-0.433 -3.117,-1.296 -0.814,-0.86 -1.221,-2.044 -1.221,-3.542 0,-1.585 0.409,-2.813 1.228,-3.689 0.818,-0.877 1.894,-1.313 3.228,-1.313 1.165,0 2.11,0.344 2.838,1.03 0.433,0.406 0.757,0.992 0.974,1.755 l -1.903,0.452 c -0.113,-0.491 -0.347,-0.881 -0.705,-1.168 -0.358,-0.284 -0.791,-0.428 -1.302,-0.428 -0.706,0 -1.278,0.252 -1.718,0.76 -0.44,0.507 -0.66,1.326 -0.66,2.461 0,1.203 0.217,2.062 0.65,2.572 0.433,0.51 0.996,0.767 1.688,0.767 0.511,0 0.95,-0.162 1.318,-0.486 0.369,-0.33 0.633,-0.84 0.793,-1.538 z m 18.23,3.503 h -2.091 l -0.832,-2.164 h -3.806 l -0.786,2.164 h -2.039 l 3.708,-9.521 h 2.033 z m -3.539,-3.769 -1.313,-3.532 -1.286,3.532 z m 10.684,-5.754 h 3.514 c 0.792,0 1.396,0.062 1.812,0.183 a 3.183,3.183 0 0 1 1.435,0.877 c 0.398,0.419 0.702,0.936 0.91,1.542 0.208,0.608 0.312,1.358 0.312,2.251 0,0.782 -0.098,1.458 -0.292,2.025 -0.238,0.691 -0.578,1.254 -1.02,1.682 -0.333,0.325 -0.784,0.578 -1.351,0.762 -0.424,0.136 -0.991,0.203 -1.701,0.203 h -3.617 v -9.521 z m 1.922,1.613 v 6.307 h 1.435 c 0.537,0 0.924,-0.03 1.163,-0.092 0.312,-0.077 0.57,-0.211 0.776,-0.396 0.206,-0.188 0.374,-0.49 0.503,-0.92 0.13,-0.426 0.195,-1.007 0.195,-1.743 0,-0.733 -0.065,-1.301 -0.195,-1.692 -0.13,-0.396 -0.312,-0.701 -0.545,-0.924 a 1.81,1.81 0 0 0 -0.89,-0.447 c -0.269,-0.063 -0.795,-0.09 -1.578,-0.09 z m 13.821,7.91 v -9.521 h 7.059 v 1.609 h -5.137 v 2.108 h 4.78 v 1.604 h -4.78 v 2.592 h 5.319 v 1.604 z m 23.117,0 v -9.521 h 2.877 l 1.729,6.494 1.707,-6.494 h 2.883 v 9.521 h -1.785 v -7.496 l -1.891,7.496 h -1.854 l -1.887,-7.496 v 7.496 z m 25.821,0 h -2.09 l -0.832,-2.164 h -3.809 l -0.782,2.164 h -2.04 l 3.709,-9.521 h 2.029 z m -3.539,-3.769 -1.313,-3.532 -1.286,3.532 z m 16.784,0.266 1.863,0.593 c -0.285,1.041 -0.761,1.813 -1.425,2.313 -0.665,0.505 -1.509,0.757 -2.53,0.757 -1.264,0 -2.303,-0.433 -3.115,-1.296 -0.813,-0.86 -1.223,-2.044 -1.223,-3.542 0,-1.585 0.409,-2.813 1.229,-3.689 0.818,-0.877 1.896,-1.313 3.229,-1.313 1.165,0 2.108,0.344 2.839,1.03 0.434,0.406 0.76,0.992 0.977,1.755 l -1.902,0.452 a 2.035,2.035 0 0 0 -0.704,-1.168 c -0.356,-0.284 -0.791,-0.428 -1.303,-0.428 -0.705,0 -1.277,0.252 -1.718,0.76 -0.439,0.507 -0.66,1.326 -0.66,2.461 0,1.203 0.218,2.062 0.648,2.572 0.434,0.51 0.994,0.767 1.688,0.767 0.51,0 0.946,-0.162 1.313,-0.486 0.369,-0.33 0.633,-0.84 0.794,-1.538 z m 9.651,3.503 v -9.521 h 1.923 v 3.748 h 3.766 v -3.748 h 1.924 v 9.521 h -1.924 v -4.164 h -3.766 v 4.164 z m 15.672,0 v -9.521 h 1.923 v 9.521 z m 9.903,0 v -9.521 h 1.871 l 3.896,6.357 v -6.357 h 1.786 v 9.521 h -1.929 l -3.839,-6.209 v 6.209 z m 15.718,0 v -9.521 h 7.06 v 1.609 h -5.138 v 2.108 h 4.78 v 1.604 h -4.78 v 2.592 h 5.319 v 1.604 z m 23.901,0 v -9.521 h 7.06 v 1.609 h -5.137 v 2.108 h 4.78 v 1.604 h -4.78 v 2.592 h 5.319 v 1.604 z m 14.978,0 v -9.521 h 2.877 l 1.728,6.494 1.709,-6.494 h 2.883 v 9.521 h -1.783 v -7.496 l -1.893,7.496 h -1.852 l -1.884,-7.496 v 7.496 z m 17.223,-9.523 h 1.922 v 5.155 c 0,0.816 0.023,1.35 0.07,1.592 0.082,0.391 0.273,0.701 0.588,0.938 0.311,0.236 0.729,0.354 1.27,0.354 0.547,0 0.957,-0.11 1.234,-0.334 0.277,-0.223 0.443,-0.496 0.5,-0.821 0.057,-0.324 0.084,-0.863 0.084,-1.616 v -5.268 h 1.924 v 5.001 c 0,1.144 -0.053,1.95 -0.156,2.423 -0.104,0.472 -0.297,0.87 -0.574,1.193 -0.279,0.324 -0.652,0.582 -1.121,0.773 -0.467,0.192 -1.078,0.289 -1.83,0.289 -0.91,0 -1.6,-0.104 -2.068,-0.313 -0.471,-0.211 -0.842,-0.482 -1.109,-0.818 a 2.63,2.63 0 0 1 -0.537,-1.057 c -0.127,-0.545 -0.189,-1.353 -0.189,-2.416 v -5.077 z m 15.801,9.523 v -9.443 h 1.922 v 7.84 h 4.781 v 1.604 h -6.703 z m 22.789,0 h -2.092 l -0.83,-2.164 h -3.807 l -0.785,2.164 h -2.039 l 3.707,-9.521 h 2.033 z m -3.539,-3.769 -1.313,-3.532 -1.285,3.532 z m 11.848,3.769 v -7.91 h -2.826 v -1.61 h 7.564 v 1.61 h -2.816 v 7.91 z m 11.48,-4.703 c 0,-0.972 0.146,-1.783 0.438,-2.44 0.215,-0.484 0.51,-0.92 0.885,-1.308 0.375,-0.387 0.785,-0.67 1.23,-0.854 0.594,-0.251 1.277,-0.376 2.053,-0.376 1.402,0 2.525,0.438 3.367,1.305 0.842,0.87 1.264,2.081 1.264,3.633 0,1.535 -0.418,2.737 -1.254,3.605 -0.836,0.867 -1.953,1.302 -3.352,1.302 -1.416,0 -2.541,-0.433 -3.377,-1.296 -0.836,-0.863 -1.254,-2.057 -1.254,-3.571 z m 1.983,-0.066 c 0,1.078 0.248,1.896 0.746,2.45 0.498,0.558 1.131,0.834 1.896,0.834 0.768,0 1.396,-0.273 1.887,-0.825 0.492,-0.554 0.736,-1.381 0.736,-2.485 0,-1.09 -0.238,-1.902 -0.717,-2.439 -0.48,-0.535 -1.113,-0.805 -1.906,-0.805 -0.793,0 -1.43,0.271 -1.916,0.813 -0.486,0.542 -0.726,1.362 -0.726,2.457 z m 14.89,4.769 v -9.521 h 4.047 c 1.018,0 1.756,0.086 2.217,0.258 0.461,0.171 0.83,0.477 1.107,0.912 0.277,0.438 0.416,0.938 0.416,1.5 0,0.714 -0.211,1.304 -0.631,1.771 -0.42,0.465 -1.047,0.758 -1.883,0.879 0.416,0.242 0.76,0.51 1.021,0.799 0.271,0.291 0.645,0.808 1.102,1.548 l 1.156,1.856 h -2.296 l -1.391,-2.072 c -0.492,-0.739 -0.83,-1.207 -1.012,-1.398 a 1.581,1.581 0 0 0 -0.578,-0.396 c -0.203,-0.069 -0.525,-0.104 -0.971,-0.104 h -0.391 v 3.978 h -1.92 v -0.006 h 0.004 v -0.002 h 0.003 z m 1.922,-5.496 h 1.424 c 0.922,0 1.498,-0.037 1.727,-0.115 0.23,-0.077 0.41,-0.213 0.541,-0.402 0.129,-0.188 0.193,-0.43 0.193,-0.714 0,-0.32 -0.086,-0.579 -0.258,-0.776 -0.17,-0.193 -0.41,-0.318 -0.723,-0.371 -0.156,-0.021 -0.623,-0.031 -1.402,-0.031 h -1.502 z"
   id="path268"
   inkscape:connector-curvature="0" />
</svg>