<?xml version="1.0" encoding="UTF-8"?>
<svg id="svg864" width="2.6042in" height="1.5104in" version="1.1" viewBox="0 0 250 145" xmlns="http://www.w3.org/2000/svg" xmlns:cc="http://creativecommons.org/ns#" xmlns:dc="http://purl.org/dc/elements/1.1/" xmlns:rdf="http://www.w3.org/1999/02/22-rdf-syntax-ns#">
 <metadata id="metadata870">
  <rdf:RDF>
   <cc:Work rdf:about="">
    <dc:format>image/svg+xml</dc:format>
    <dc:type rdf:resource="http://purl.org/dc/dcmitype/StillImage"/>
    <dc:title/>
   </cc:Work>
  </rdf:RDF>
 </metadata>
 <g id="g2220">
  <rect id="rect2092-3" transform="rotate(90)" x="2.8819e-14" y="-250" width="145" height="250" fill="#fff" style="paint-order:normal"/>
  <path id="path2142" d="m17 5a12 12 0 0 0-12 12v111a12 12 0 0 0 12 12h216a12 12 0 0 0 12-12v-111a12 12 0 0 0-12-12zm14.623 11h10.725c4.2827 0 7.8267 3.44 7.832 7.7227a7.7336 7.7336 0 0 1-4.668 7.1113l4.9258 10.166h-7.9902l-2.1855-4.8164a1.0146 1.0146 0 0 0-0.92383-0.5957 1.0146 1.0146 0 0 0-1.0137 1.0137v4.3984h-6.7012zm50 0h7.7324v25h-10.311a9.7946 9.7946 0 1 1 2.5781-19.244zm58.248 0h4.123v7.2168h-1.2871c-1.9932 0-3.3516 1.2878-3.6094 3.6074 0 0-0.26181 5.9716-0.26954 6.1211a8.5048 8.5048 0 0 1-8.4922 8.0547h-3.8672v-7.2168h1.0312c1.9931 0 3.3497-1.0301 3.6074-3.6074 0 0 0.26376-5.9716 0.27149-6.1211a8.5048 8.5048 0 0 1 8.4922-8.0547zm4.8965 0h7.7324v5.4121h3.8672a5.9276 5.9276 0 0 1 5.9277 5.9277v13.66h-7.7324v-11.855a1.0312 1.0312 0 0 0-2.0625 0v11.855h-7.7324zm60.053 0h5.9277v12.309l3.4121-5.0918h8.2129l-3.9199 6.1328 4.9238 11.65h-8.248l-1.5664-4-1.0293-2.6289a0.92388 0.92388 0 0 0-0.86132-0.58789 0.92387 0.92387 0 0 0-0.92383 0.92383v6.293h-5.9277zm-93.814 4.6387c5.6934 0 10.309 4.6748 10.309 10.439s-4.6152 10.438-10.309 10.438c-5.6934 0-10.311-4.6728-10.311-10.438s4.6172-10.439 10.311-10.439zm82.408 0a10.444 10.444 0 0 1 10.195 12.371h-7.4707a3.0933 3.0933 0 0 0-6.0098 1.0312 3.0935 3.0935 0 0 0 5.9062 1.2891h6.8516a10.444 10.444 0 1 1-9.4727-14.691zm-141.17 0.77344h10.051a5.9276 5.9276 0 0 1 5.9277 5.9277v13.66h-11.984a6.0568 6.0568 0 0 1 0-12.113c0.11254 0 0.22511 0.0038 0.33594 0.0098a0.019579 0.019579 0 0 0 0-2e-3 0.019579 0.019579 0 0 0-2e-3 -2e-3 0.019579 0.019579 0 0 0 0-2e-3 0.019579 0.019579 0 0 0 0-2e-3 0.019579 0.019579 0 0 0 0-2e-3h1.8574a0.77344 0.77344 0 0 0 0-1.5469h-6.1855zm39.176 0h8.2461v19.588h-8.2461zm74.227 0h10.053a5.9276 5.9276 0 0 1 5.9277 5.9277v13.66h-11.984a6.0568 6.0568 0 0 1 0-12.113c0.11255 0 0.22511 0.0038 0.33594 0.0098a0.019579 0.019579 0 0 0-2e-3 -2e-3 0.019579 0.019579 0 0 0 0-2e-3 0.019579 0.019579 0 0 0-2e-3 -2e-3 0.019579 0.019579 0 0 0 0-2e-3 0.019579 0.019579 0 0 0 0-2e-3h1.8574a0.77344 0.77344 0 0 0 0-1.5469h-6.1856zm-126.1 4.8965a3.0933 3.0933 0 0 0-2.8398 2.0332 3.0029 3.0029 0 0 0-0.12109 0.42969 3.0951 3.0951 0 0 0 3.0293 3.7227 3.0933 3.0933 0 1 0-0.06641-6.1855 3.0933 3.0933 0 0 1-2e-3 0zm18.625 4.6406a3.1359 3.1359 0 0 0-0.54297 0.04687 3.0945 3.0945 0 0 0-2.5508 3.0449 3.0928 3.0928 0 0 0 6.1855 0 3.0526 3.0526 0 0 0-0.12891-0.88672 3.0935 3.0935 0 0 0-2.9629-2.2051zm52.744 0a3.0928 3.0928 0 0 0-0.0371 2e-3 3.0928 3.0928 0 0 0 0.12891 6.1836 3.0931 3.0931 0 0 0 3.0918-3.0938 3.0928 3.0928 0 0 0-3.1836-3.0918zm60.658 0a3.1359 3.1359 0 0 0-0.54297 0.04687 3.0945 3.0945 0 0 0-2.5488 3.0449 3.0928 3.0928 0 0 0 6.1856 0 3.0526 3.0526 0 0 0-0.13086-0.88672 3.0935 3.0935 0 0 0-2.9629-2.2051zm-91.92 2e-3a3.0926 3.0926 0 0 0-3.1836 3.0898 3.0931 3.0931 0 0 0 3.0918 3.0938 3.0926 3.0926 0 0 0 0.0918-6.1836zm-71.652 19.049h234v51h-234zm108.97 60.738c2.4991 0 4.2546 0.0698 5.2676 0.21094 1.5609 0.21587 2.6336 0.65267 3.2148 1.3086 0.5812 0.64762 0.87109 1.7428 0.87109 3.2871 0 0.14115-3e-3 0.4086-0.0117 0.79883h-5.0195c-0.0166-0.47326-0.0586-0.7983-0.125-0.97266-0.0581-0.17436-0.17868-0.31589-0.36133-0.42382-0.22417-0.13285-0.619-0.21484-1.1836-0.24805-0.56459-0.0415-1.7593-0.0625-3.5859-0.0625-2.2002 0-3.5419 0.0698-4.0234 0.21094-0.48155 0.13284-0.72265 0.51206-0.72265 1.1348 0 0.59781 0.24109 0.96286 0.72265 1.0957 0.39854 0.10794 2.2292 0.21092 5.4922 0.31055 2.7482 0.083 4.5842 0.18259 5.5059 0.29883 0.92992 0.10794 1.6688 0.31926 2.2168 0.63477 0.62271 0.37362 1.0629 0.889 1.3203 1.5449 0.25739 0.64762 0.38477 1.5822 0.38477 2.8027 0 1.6024-0.21475 2.7938-0.64649 3.5742-0.32381 0.57289-0.77623 1.0009-1.3574 1.2832-0.57289 0.2823-1.3835 0.47264-2.4297 0.57227-1.1209 0.0996-3.2082 0.15039-6.2637 0.15039-2.5573 0-4.4455-0.0683-5.666-0.20117-1.2205-0.13285-2.1395-0.36857-2.7539-0.70899-0.63932-0.36532-1.083-0.84751-1.332-1.4453-0.24078-0.59781-0.36133-1.506-0.36133-2.7266v-0.79688h5.0195c-8e-3 0.83858 0.16108 1.3784 0.50977 1.6191 0.24908 0.15776 0.56875 0.25195 0.95898 0.28516 0.39853 0.0249 1.644 0.0459 3.7363 0.0625 2.192-8e-3 3.5092-0.0205 3.9492-0.0371 0.44004-0.0249 0.78753-0.0913 1.0449-0.19922 0.38193-0.15775 0.57422-0.58577 0.57422-1.2832 0-0.50647-0.13812-0.84176-0.41211-1.0078-0.26569-0.17436-0.81425-0.27051-1.6445-0.28711-0.63932 0-1.9912-0.0488-4.0586-0.14844-2.1172-0.0996-3.4954-0.15917-4.1348-0.17578-1.2454-0.0415-2.2044-0.15671-2.877-0.34766-0.66423-0.19926-1.183-0.51894-1.5566-0.95898-0.63933-0.73065-0.95899-1.9517-0.95899-3.6621 0-1.918 0.36506-3.2718 1.0957-4.0606 0.55629-0.61441 1.4104-1.0039 2.5645-1.1699 1.1541-0.17436 3.5001-0.26172 7.0371-0.26172zm34.215 0.0625c4.0518 0 6.6213 0.22352 7.709 0.67188 0.79707 0.3238 1.3525 0.83576 1.668 1.5332 0.274 0.63101 0.41211 1.4729 0.41211 2.5273 0 1.3451-0.22547 2.2919-0.67383 2.8398-0.44834 0.53968-1.2604 0.85056-2.4394 0.93359 0.99633 0.17436 1.6723 0.38227 2.0293 0.62305 0.46496 0.3072 0.79341 0.73863 0.98437 1.2949 0.19927 0.55629 0.29883 1.3337 0.29883 2.3301 0 1.4032-0.23768 2.4198-0.71094 3.0508-0.34041 0.44835-0.82064 0.78901-1.4434 1.0215-0.62271 0.22418-1.4997 0.38133-2.6289 0.47266-0.83028 0.0664-2.5648 0.0996-5.2051 0.0996-2.6735 0-4.4851-0.0366-5.4316-0.11133-0.94652-0.0664-1.7464-0.2255-2.4023-0.47461-0.78047-0.2989-1.3378-0.75473-1.6699-1.3691-0.32381-0.61441-0.48437-1.5105-0.48437-2.6894 0-1.0628 0.11176-1.8822 0.33594-2.4551 0.23248-0.57289 0.61851-1.0043 1.1582-1.2949 0.34041-0.18266 0.94657-0.3486 1.8184-0.49805-0.87179-0.0581-1.5165-0.22065-1.9316-0.48633-0.78877-0.52308-1.1816-1.6182-1.1816-3.2871 0-1.4447 0.26549-2.4998 0.79687-3.1641 0.33212-0.40683 0.77233-0.71235 1.3203-0.91992 0.54799-0.20757 1.3357-0.35789 2.3652-0.44922 1.4032-0.13285 3.1728-0.19922 5.3066-0.19922zm23.139 0c3.2381 0 5.5265 0.0996 6.8633 0.29883 1.5194 0.21587 2.5726 0.87278 3.1621 1.9688 0.2989 0.54799 0.48241 1.1576 0.54883 1.8301 0.0664 0.67252 0.0996 2.2045 0.0996 4.5957 0 1.8764-0.0122 3.0765-0.0371 3.5996-0.0166 0.51477-0.0708 1.0214-0.16211 1.5195-0.22418 1.2703-0.8723 2.1874-1.9434 2.752-0.44004 0.23248-0.96225 0.4072-1.5684 0.52344-0.5978 0.10794-1.4485 0.18114-2.5527 0.22266-1.3285 0.0581-2.794 0.0879-4.3965 0.0879-3.2464 0-5.5382-0.0996-6.875-0.29883-1.5194-0.22418-2.5746-0.87913-3.1641-1.9668-0.2989-0.55628-0.48045-1.1712-0.54687-1.8438-0.0664-0.68083-0.0996-2.288-0.0996-4.8203 0-1.727 7e-3 -2.8485 0.0234-3.3633 0.0249-0.52308 0.0845-1.0297 0.17579-1.5195 0.22418-1.2786 0.87034-2.1957 1.9414-2.752 0.44005-0.24078 0.95884-0.41551 1.5566-0.52344 0.6061-0.10794 1.4621-0.18114 2.5664-0.22266 1.3036-0.0581 2.7726-0.0879 4.4082-0.0879zm-112.33 0.19922h20.574v4.334h-7.5586v12.666h-5.4434v-12.666h-7.5723zm21.77 0h12.518c2.9392 8e-3 4.6981 0.0415 5.2793 0.0996 0.5812 0.0498 1.142 0.24013 1.6816 0.57227 0.64762 0.39023 1.0912 0.93001 1.332 1.6191 0.24078 0.68083 0.36133 1.757 0.36133 3.2266 0 1.2371-0.0786 2.1454-0.23633 2.7266-0.14946 0.58119-0.43594 1.0458-0.85938 1.3945-0.45666 0.37363-1.1448 0.63229-2.0664 0.77344 1.0877 0.083 1.8685 0.39391 2.3418 0.93359 0.274 0.32381 0.44677 0.71864 0.52149 1.1836 0.0747 0.45665 0.11328 1.4191 0.11328 2.8887v1.582h-5.1074v-0.9082c0-0.94652-0.0366-1.619-0.11133-2.0176-0.06642-0.40684-0.19575-0.71967-0.38672-0.93555-0.19096-0.19926-0.45646-0.32323-0.79688-0.37305-0.33211-0.0581-1.0325-0.0879-2.1035-0.0879h-7.2988v4.3223h-5.1816zm66.895 3.6113c-1.9346 0-3.1434 0.0839-3.625 0.25-0.47326 0.16605-0.70898 0.57991-0.70898 1.2441 0 0.69743 0.22011 1.1167 0.66015 1.2578 0.44005 0.13285 1.7763 0.19922 4.0098 0.19922 1.9761 0 3.164-7e-3 3.5625-0.0234 0.39853-0.0249 0.72504-0.0967 0.98242-0.21289 0.33212-0.14945 0.5-0.55989 0.5-1.2324 0-0.39853-0.0752-0.69722-0.22461-0.89648-0.14945-0.20758-0.39054-0.34032-0.72265-0.39844-0.61441-0.11624-2.0922-0.1792-4.4336-0.1875zm23.352 0.61133c-2.358 0-3.7938 0.15373-4.3086 0.46093-0.33211 0.19927-0.56101 0.56774-0.68555 1.1074-0.12454 0.53968-0.1875 1.4167-0.1875 2.6289 0 1.4032 0.0718 2.3744 0.2129 2.9141 0.14945 0.53138 0.43593 0.89107 0.85937 1.082 0.2989 0.13284 0.63955 0.2202 1.0215 0.26171 0.39023 0.0332 1.4102 0.0664 3.0625 0.0996 2.1172-0.0415 3.3383-0.0781 3.6621-0.11132 0.92992-0.0996 1.5239-0.3949 1.7812-0.88477 0.25739-0.49817 0.38477-1.5933 0.38477-3.2871 0-1.345-0.0732-2.2831-0.22266-2.8144-0.14114-0.53968-0.42421-0.90474-0.84765-1.0957-0.31551-0.14114-0.67715-0.2285-1.084-0.26171-0.39853-0.0332-1.6142-0.0664-3.6484-0.0996zm-85.064 0.0234v4.1856h7.2852c1.2703-0.0249 2.0268-0.0459 2.2676-0.0625 0.24908-0.0249 0.46041-0.0913 0.63477-0.19922 0.22418-0.14114 0.38132-0.34906 0.47266-0.62304 0.09133-0.28231 0.13672-0.70494 0.13672-1.2695 0-0.55628-0.05417-0.9721-0.16211-1.2461-0.09963-0.27399-0.27777-0.47312-0.53516-0.59766-0.18266-0.083-0.40277-0.13183-0.66016-0.14843-0.24908-0.0166-0.97041-0.0307-2.166-0.0391zm40.533 1.707h9.3652v5.0938h-9.3652zm21.703 4.2598c-2.5324 0-3.9945 0.0664-4.3848 0.19922-0.24908 0.083-0.4238 0.23139-0.52343 0.44727-0.0996 0.20756-0.14844 0.5326-0.14844 0.97265 0 0.46496 0.0576 0.79146 0.17383 0.98242 0.11624 0.19097 0.34513 0.32909 0.68554 0.41211 0.38193 0.0996 1.6152 0.14844 3.6992 0.14844 2.2667 0 3.7689-0.0488 4.5078-0.14844 0.39853-0.0581 0.67281-0.19087 0.82226-0.39844 0.14945-0.21586 0.22461-0.58629 0.22461-1.1094 0-0.42344-0.0542-0.73091-0.16211-0.92187-0.10794-0.19097-0.30706-0.32372-0.59765-0.39844-0.27401-0.083-1.7064-0.14403-4.2969-0.18555z"/>
  <path id="path878" d="m161 58h49v21h-49v-21z" fill="#3f43ad"/>
  <path id="path876" d="m100 58h49v21h-49v-21z" fill="#00ab84"/>
  <path id="path874" d="m39 58h49v21h-49v-21z" fill="#ee3340"/>
  <path id="path1945" d="m39.025 85h2.6667l5.4286 8.4762 5.3407-8.4762h2.6813v10h-1.3333v-8.7619h-0.55678l-5.5824 8.7619h-1.0842l-5.641-8.7619h-0.58608v8.7619h-1.3333z" dominant-baseline="auto" style="font-feature-settings:normal;font-variant-alternates:normal;font-variant-caps:normal;font-variant-ligatures:normal;font-variant-numeric:normal;font-variant-position:normal;paint-order:normal;shape-padding:0;text-decoration-color:#000000;text-decoration-line:none;text-decoration-style:solid;text-indent:0;text-orientation:mixed;text-transform:none;white-space:normal"/>
  <path id="path1947" d="m67.345 84.971q2.5641 0 3.6117 0.1685 1.0549 0.16117 1.5385 0.63736 0.30769 0.30037 0.46154 0.71795 0.15385 0.41026 0.24176 1.1575 0.10989 0.94506 0.10989 2.3883 0 1.8462-0.17582 2.7985-0.1685 0.94506-0.59341 1.3846-0.43956 0.46886-1.4505 0.64469-1.0037 0.1685-3.2967 0.1685-1.1282 0-2.5055-0.03663-1.37-0.03663-1.8022-0.07326-0.74725-0.07326-1.1795-0.24176t-0.76923-0.52747q-0.44689-0.46886-0.60073-1.3187-0.14652-0.84982-0.14652-2.8718 0-2.3883 0.32967-3.3919 0.3956-1.1868 1.8095-1.3993 1.2967-0.1978 4.4176-0.20513zm-0.76923 1.2015q-2.0952 0-3.0769 0.1685-0.57143 0.09524-0.82784 0.32967-0.24908 0.22711-0.35165 0.74725-0.1685 0.83516-0.1685 2.4469 0 1.6557 0.08791 2.4176 0.09524 0.75458 0.337 1.011 0.19048 0.21245 0.54945 0.30769 0.35897 0.09524 1.1355 0.14652 1.2821 0.08791 2.9817 0.08791 2.4176 0 3.5165-0.1978 0.86447-0.14652 1.0256-1.0183 0.1685-0.93773 0.1685-2.5495 0-1.9707-0.14652-2.7766-0.14652-0.82051-1.1355-0.97436-0.57875-0.08791-1.304-0.10989-0.72528-0.0293-2.7912-0.03663z" dominant-baseline="auto" style="font-feature-settings:normal;font-variant-alternates:normal;font-variant-caps:normal;font-variant-ligatures:normal;font-variant-numeric:normal;font-variant-position:normal;paint-order:normal;shape-padding:0;text-decoration-color:#000000;text-decoration-line:none;text-decoration-style:solid;text-indent:0;text-orientation:mixed;text-transform:none;white-space:normal"/>
  <path id="path1949" d="m78.955 95v-10h6.9011q2.293 0 3.2234 0.19048 1.1209 0.22711 1.707 1.1941 0.30037 0.49084 0.42491 1.3187 0.12454 0.82051 0.12454 2.293 0 1.8388-0.32967 2.9158-0.51282 1.6557-2.1832 1.9414-0.86447 0.14652-2.8645 0.14652zm1.3333-1.1722h5.6117q1.4432 0 1.7875-0.01465 0.35165-0.02198 0.76923-0.12454 0.81319-0.19048 1.1648-1.0623 0.35165-0.8718 0.35165-2.6886 0-2.359-0.60806-3.1062-0.22711-0.28571-0.60073-0.42491-0.37363-0.14652-1.0183-0.20513-0.38095-0.0293-1.9121-0.0293h-5.5458z" dominant-baseline="auto" style="font-feature-settings:normal;font-variant-alternates:normal;font-variant-caps:normal;font-variant-ligatures:normal;font-variant-numeric:normal;font-variant-position:normal;paint-order:normal;shape-padding:0;text-decoration-color:#000000;text-decoration-line:none;text-decoration-style:solid;text-indent:0;text-orientation:mixed;text-transform:none;white-space:normal"/>
  <path id="path1951" d="m96.983 95v-10h9.8022v1.1722h-8.4689v3.0549h8.1099v1.1722h-8.1099v3.4286h8.4762v1.1722z" dominant-baseline="auto" style="font-feature-settings:normal;font-variant-alternates:normal;font-variant-caps:normal;font-variant-ligatures:normal;font-variant-numeric:normal;font-variant-position:normal;paint-order:normal;shape-padding:0;text-decoration-color:#000000;text-decoration-line:none;text-decoration-style:solid;text-indent:0;text-orientation:mixed;text-transform:none;white-space:normal"/>
  <path id="path1953" d="m112.1 85h1.3333v8.8278h7.8974v1.1722h-9.2308z" dominant-baseline="auto" style="font-feature-settings:normal;font-variant-alternates:normal;font-variant-caps:normal;font-variant-ligatures:normal;font-variant-numeric:normal;font-variant-position:normal;paint-order:normal;shape-padding:0;text-decoration-color:#000000;text-decoration-line:none;text-decoration-style:solid;text-indent:0;text-orientation:mixed;text-transform:none;white-space:normal"/>
  <path id="path1955" d="m134.53 85h2.6667l5.4286 8.4762 5.3407-8.4762h2.6813v10h-1.3333v-8.7619h-0.55678l-5.5824 8.7619h-1.0842l-5.641-8.7619h-0.58608v8.7619h-1.3333z" dominant-baseline="auto" style="font-feature-settings:normal;font-variant-alternates:normal;font-variant-caps:normal;font-variant-ligatures:normal;font-variant-numeric:normal;font-variant-position:normal;paint-order:normal;shape-padding:0;text-decoration-color:#000000;text-decoration-line:none;text-decoration-style:solid;text-indent:0;text-orientation:mixed;text-transform:none;white-space:normal"/>
  <path id="path1957" d="m166.68 91.579h1.2967q-0.0513 1.3626-0.16117 1.8755-0.24176 1.1136-1.4872 1.37-1.011 0.20513-3.5971 0.20513-3.3553 0-4.5348-0.23443-1.1209-0.22711-1.5092-1.1722-0.38828-0.95238-0.38828-3.4652 0-2.3956 0.29304-3.4799 0.35165-1.2821 1.8095-1.4945 1.4066-0.21245 4.1246-0.21245 2.5934 0 3.7143 0.25641 0.55678 0.12454 0.95971 0.49084 0.41025 0.35897 0.52014 0.83516 0.10989 0.44689 0.12455 1.7509h-1.2381q-7e-3 -0.25641-7e-3 -0.34432 0-0.71795-0.1392-1.0183-0.13919-0.30769-0.54212-0.46886-0.73993-0.30037-3.4579-0.30037-1.9707 0-2.9597 0.10989-0.98901 0.10256-1.2894 0.337-0.28572 0.23443-0.42491 0.96703-0.13187 0.7326-0.13187 2.0366 0 0.61538 0.0513 1.5897t0.10257 1.3407q0.0806 0.57875 0.3663 0.84249 0.29304 0.25641 0.91575 0.31502 1.1355 0.11722 3.2454 0.11722 0.64469 0 1.685-0.03663 1.0476-0.04396 1.3333-0.08059 0.55678-0.07326 0.82784-0.21978 0.27107-0.15385 0.37363-0.45421 0.0952-0.26374 0.12454-1.4579z" dominant-baseline="auto" style="font-feature-settings:normal;font-variant-alternates:normal;font-variant-caps:normal;font-variant-ligatures:normal;font-variant-numeric:normal;font-variant-position:normal;paint-order:normal;shape-padding:0;text-decoration-color:#000000;text-decoration-line:none;text-decoration-style:solid;text-indent:0;text-orientation:mixed;text-transform:none;white-space:normal"/>
  <path id="path1961" d="m190.67 85h2.2344v10h-1.2967v-8.7473h-0.46886l-3.2161 3.0256-0.80586-0.89377z" dominant-baseline="auto" style="font-feature-settings:normal;font-variant-alternates:normal;font-variant-caps:normal;font-variant-ligatures:normal;font-variant-numeric:normal;font-variant-position:normal;paint-order:normal;shape-padding:0;text-decoration-color:#000000;text-decoration-line:none;text-decoration-style:solid;text-indent:0;text-orientation:mixed;text-transform:none;white-space:normal"/>
  <path id="path1963" d="m203.89 84.971q2.9597 0 4.1319 0.23443 1.0256 0.21245 1.4945 1.0256 0.24908 0.42491 0.35165 1.2234 0.10256 0.79121 0.10256 2.3077 0 2.022-0.20513 3.1722-0.21978 1.2234-1.0842 1.6337-0.49816 0.24176-1.6117 0.35165-1.1136 0.10989-3.011 0.10989-2.5641 0-3.7436-0.28571-1.4652-0.3663-1.6923-2-0.1392-0.96703-0.1392-2.7179 0-1.9707 0.22711-3.0769 0.27839-1.37 1.5238-1.6996 1.0549-0.27839 3.6557-0.27839zm0.0513 1.1722q-1.7656 0-2.5714 0.10989-0.79854 0.10256-1.0696 0.3663-0.31502 0.32234-0.42491 1.4432-0.0952 1.0037-0.0952 2.1026 0 2.6593 0.47619 3.1429 0.52747 0.54945 3.7729 0.54945 1.9487 0 2.8938-0.11722 0.95238-0.12454 1.2308-0.40293 0.52015-0.52015 0.52015-3.0989 0-1.5751-0.11722-2.4396-0.10989-0.86447-0.35165-1.1355-0.32234-0.35165-1.4286-0.43956-0.92307-0.08059-2.8352-0.08059z" dominant-baseline="auto" style="font-feature-settings:normal;font-variant-alternates:normal;font-variant-caps:normal;font-variant-ligatures:normal;font-variant-numeric:normal;font-variant-position:normal;paint-order:normal;shape-padding:0;text-decoration-color:#000000;text-decoration-line:none;text-decoration-style:solid;text-indent:0;text-orientation:mixed;text-transform:none;white-space:normal"/>
  <path id="path1986" d="m174.12 89.333h4.9878v1.2967h-4.9878z" dominant-baseline="auto" style="font-feature-settings:normal;font-variant-alternates:normal;font-variant-caps:normal;font-variant-ligatures:normal;font-variant-numeric:normal;font-variant-position:normal;paint-order:normal;shape-padding:0;text-decoration-color:#000000;text-decoration-line:none;text-decoration-style:solid;text-indent:0;text-orientation:mixed;text-transform:none;white-space:normal"/>
 </g>
</svg>