<?xml version="1.0" encoding="UTF-8" standalone="no"?>
<svg
   xmlns:dc="http://purl.org/dc/elements/1.1/"
   xmlns:cc="http://creativecommons.org/ns#"
   xmlns:rdf="http://www.w3.org/1999/02/22-rdf-syntax-ns#"
   xmlns:svg="http://www.w3.org/2000/svg"
   xmlns="http://www.w3.org/2000/svg"
   xmlns:sodipodi="http://sodipodi.sourceforge.net/DTD/sodipodi-0.dtd"
   xmlns:inkscape="http://www.inkscape.org/namespaces/inkscape"
   width="374"
   height="154"
   version="1.1"
   id="svg8"
   sodipodi:docname="msx1.svg"
   inkscape:version="0.92.4 (5da689c313, 2019-01-14)">
  <metadata
     id="metadata14">
    <rdf:RDF>
      <cc:Work
         rdf:about="">
        <dc:format>image/svg+xml</dc:format>
        <dc:type
           rdf:resource="http://purl.org/dc/dcmitype/StillImage" />
        <dc:title></dc:title>
      </cc:Work>
    </rdf:RDF>
  </metadata>
  <defs
     id="defs12" />
  <sodipodi:namedview
     pagecolor="#ffffff"
     bordercolor="#666666"
     borderopacity="1"
     objecttolerance="10"
     gridtolerance="10"
     guidetolerance="10"
     inkscape:pageopacity="0"
     inkscape:pageshadow="2"
     inkscape:window-width="640"
     inkscape:window-height="480"
     id="namedview10"
     showgrid="false"
     inkscape:zoom="1.364525"
     inkscape:cx="115.98833"
     inkscape:cy="115.25172"
     inkscape:current-layer="svg8" />
  <g
     id="g6"
     style="fill:none"
     transform="translate(2.1985673,2.5342884)">
    <path
       d="M 0,0 H 369.544 V 149.662 H 0.001 Z"
       id="path2"
       inkscape:connector-curvature="0"
       style="fill:#221f1f" />
    <path
       d="m 342.306,20.625 -35.131,51.312 38.212,56.06 H 310.1 L 289.102,97.986 267.935,128.07 H 232.88 c 0.952,-1.976 38.373,-56.133 38.373,-56.133 l -15.95,-22.19 -67.66,0.076 c -3.156,0.25 -7.025,-0.708 -8.608,2.852 -0.554,1.178 -0.792,2.916 -0.156,4.106 0.548,1.34 1.816,2.602 3.233,2.995 l 2.131,0.16 h 27.083 c 12.549,0.316 24.161,8.126 29.602,19.418 4.822,9.477 4.11,22.423 -1.262,31.429 -6.786,11.441 -18.87,17.84 -31.97,17.37 h -75.323 c 0,0 -11.53,-41.614 -11.608,-41.686 L 109.158,128.153 81.686,128.158 70.632,86.306 58.55,128.07 H 28.155 c 0,0 27.947,-100.582 29.763,-107.218 h 25.667 l 12.078,44.846 12.316,-44.846 25.185,-0.006 21.554,78.097 h 50.215 c 3.465,-0.166 8.286,0.78 9.708,-3.476 0.554,-1.904 0.084,-3.875 -1.261,-5.215 -1.268,-1.106 -2.846,-1.416 -4.5,-1.416 l -27,-0.005 c -12.792,-0.394 -25.501,-8.763 -30.239,-21.073 -5.132,-12.322 -2.13,-27.09 7.262,-36.627 6.632,-6.648 14.525,-9.964 23.768,-10.356 l 88.582,-0.078 17.849,25.733 18.465,-25.81 34.74,0.005 z"
       id="path4"
       inkscape:connector-curvature="0"
       style="fill:#ffffff" />
  </g>
</svg>
