<svg xmlns="http://www.w3.org/2000/svg" height="800" width="1200" version="1.0" viewBox="-66.94215 -21.052275 580.1653 126.31365"><path d="M381.2886.0684c-.0483.0483-14.8909.1934-32.9726.3867-18.0818.1934-40.273.3868-49.314.5319-9.0409.145-32.0057.3384-51.006.4834-19.0004.145-42.4004.3868-51.973.4835-9.5728.0967-30.0236.3384-45.4463.4835-15.4227.145-33.8912.3384-41.095.4834-7.1553.145-30.797.3385-52.4564.4835-45.688.3384-55.8408.5318-56.5177.967-.6768.3867-.6768 4.9313 0 5.3181.5319.3385 48.9756.3385 70.2966 0 7.2037-.0967 29.25-.3384 49.0722-.5318 19.8223-.145 36.5503-.3384 37.2272-.4351.6768-.0484 19.1454-.2901 41.095-.4351 21.9495-.1934 48.3953-.4352 58.7415-.5319 10.3946-.145 32.1508-.3384 48.347-.4834 16.2446-.145 37.5657-.3385 47.38-.4835 9.8629-.145 34.3265-.3868 54.3905-.5318 20.064-.1934 36.9854-.5318 37.614-.7252 1.0152-.3868 1.112-.6769.9669-2.9492L445.4935.02h-32.0541c-17.6467-.0483-32.1024 0-32.1508.0484zm8.1224 12.6669c-.7736.0967-1.6439.3384-1.8373.5318-.3867.3868-.4834 17.985-.0967 24.947.145 2.1273.0484 4.1579-.1934 4.4963-.3384.5318-.6285.4352-1.4987-.4834-1.112-1.112-10.298-12.7153-11.6033-14.6008-.3868-.5319-2.224-2.9009-4.1095-5.2215-1.8372-2.3207-4.0128-5.1248-4.8347-6.2368-2.224-3.0942-3.0458-3.2876-13.247-3.0458-4.8831.145-9.2827.435-9.7662.7252-1.2086.6285-1.2086 1.112-.6768 26.7842.1934 8.219.5318 15.471.7735 16.0512.4352 1.112.5319 1.1603 6.5752 1.0153l6.1884-.145V42.7104c0-8.1223.145-14.9392.2901-15.1326.1934-.145 1.4988 1.0637 2.9492 2.7558 1.4504 1.6921 4.738 5.7533 7.3487 9.0892 2.6108 3.336 5.2699 6.672 5.9467 7.4938.6769.7736 2.7558 3.481 4.593 5.8984 1.8855 2.4656 3.6744 4.4962 3.9644 4.5446.2901 0 4.448.0967 9.2343.145 6.8653.0967 8.9442 0 9.8628-.5802l1.112-.6768-.2901-20.7409c-.145-12.4252-.4835-21.1276-.7736-21.7078-.7252-1.3537-3.8194-1.6921-9.911-1.0636zm22.2395.0967c-6.0433.2417-6.285.29-6.8652 1.4504-.6769 1.402-.3385 40.7565.435 42.1586.3869.8219 1.789.8702 19.2905.8702 12.0868 0 19.1938-.1934 19.8223-.4834.8219-.4352.9186-1.0637.9186-4.738 0-2.6591-.1934-4.448-.5802-4.8348-.435-.435-4.1095-.5801-13.5371-.5801h-12.957l-.4835-1.257c-.6769-1.6922-.5802-3.7228.145-4.6414.4835-.6768 2.3207-.8219 13.2471-.9669 9.4277-.1934 12.8603-.3868 13.3921-.8702 1.1604-.9186 1.112-8.0256-.0966-8.6542-.4352-.2417-6.4785-.5318-13.3922-.6285-6.9136-.0967-12.8603-.3384-13.1987-.5801-.6285-.3868-.7736-4.0612-.1934-4.9314.2417-.3868 4.6413-.6285 13.3921-.822 11.555-.29 13.102-.3867 13.6339-1.1602.3868-.4835.6285-2.369.6285-4.8347 0-3.481-.0967-4.0612-.967-4.4963-.9669-.5318-19.1454-.5318-32.6342 0zm-107.7171.7735c-.0967.0967-5.0764.1934-11.1198.2418-7.3487.0483-11.1682.2417-11.7.6285-.3867.29-.8702 1.402-1.0636 2.4657-.145 1.0636-.5318 2.0789-.8219 2.2723-.3384.2417-.2417.3868.2417.3868.6285 0 .7736.9186.7736 6.6235.0483 13.1504.7252 30.8454 1.2087 31.4255.7252.9186 11.5065.8703 12.7152-.0483.7252-.5318.8703-1.3537.9186-4.7864.0484-3.0942.2901-4.3995.822-4.9313.6284-.6286 2.659-.822 11.3615-.967 5.8016-.145 11.2165-.0483 11.99.145 2.224.5802 3.0942 2.2724 3.4327 6.3335.145 1.9822.4834 3.8678.7735 4.2546.6285.7252 11.2165.7735 12.667.0483.8218-.4351.8702-1.0153.7251-6.14-.145-5.3666-.2417-5.8017-1.4987-7.4455-.7252-.967-1.8856-2.0306-2.6108-2.369-1.6921-.822-1.9339-1.7405-.5318-2.2723 1.4988-.5802 3.481-2.8041 4.2545-4.8347.967-2.4174.822-11.3616-.2417-13.8273-1.3537-3.1909-3.916-5.4632-7.4938-6.5752-2.8041-.8702-4.3029-.9669-13.8756-.8702-5.9466.0483-10.8297.1934-10.9264.2417zm17.5983 12.6186c1.257 1.257 1.4988 4.6413.4835 6.5752-.3384.6768-1.2087 1.4987-1.9339 1.7405-.6768.29-2.224.6285-3.4326.7252-1.2087.145-6.2851.2417-11.3616.29-10.9747.0968-10.4913.3385-10.2979-5.8016l.145-4.1095 1.6922-.2417c.9186-.145 6.6235-.2417 12.667-.2417 10.6363 0 11.023.0483 12.0383 1.0636zm-91.6659-11.8934c-6.9136.6285-11.0715 2.9009-13.3438 7.3488-1.3537 2.6107-2.0305 9.4276-1.7405 17.7433.3868 11.9417 2.2724 15.4227 9.9112 18.4202 2.6107 1.0153 3.5293 1.112 15.0842 1.112 6.7686 0 14.9876-.0483 18.2752-.145 9.9111-.2418 13.6339-1.9822 16.583-7.7839 1.0153-2.0306 1.112-2.9008 1.3054-11.845.2417-13.1987-.5318-16.6797-4.4963-20.6442-3.9644-3.9644-7.7838-4.6413-25.1404-4.593-6.9136.0484-14.3107.2418-16.438.3868zm27.5095 11.7c3.3842 1.0153 3.916 2.3207 4.0128 9.9111.0966 6.1885.0483 6.7203-1.0637 8.6058-.8702 1.4504-1.6438 2.079-3.0458 2.514-1.2087.3868-5.7533.5802-12.3769.5802-14.9875 0-15.2776-.1934-15.616-10.3946-.145-5.0764-.0484-6.14.8218-8.074.6286-1.4503 1.4021-2.369 2.2724-2.7074.7735-.29 1.7888-.6285 2.3206-.7252.5318-.145 5.4149-.2417 10.878-.2417 6.2369 0 10.588.1934 11.7968.5318zm-95.7755-10.7814c-5.2698.145-8.0256.4352-8.4123.822-.6769.6768-.7252 11.5065-.1934 31.8606.2417 9.2826.3384 10.6847 1.112 11.2165.6285.4835 5.173.6285 21.8528.5318 11.6033-.0483 22.578-.29 24.4152-.4834 4.7864-.5802 7.3971-2.1273 9.0893-5.3182 1.3053-2.4174 1.402-2.9008 1.2087-6.7202-.2901-4.8831-1.1604-6.962-3.8195-8.8476-2.1272-1.547-2.224-1.7404-1.0152-3.0458 2.1272-2.4174 2.7557-4.2545 2.7557-7.929-.0483-6.0916-1.7405-9.0892-6.4301-11.2648-2.1756-1.0153-2.8525-1.0636-17.5016-1.0636-8.364 0-18.7587.0967-23.0616.2417zm30.9421 10.8781c1.0637.4351 1.5955 2.4174 1.0153 4.0128-.29.7736-.967 1.3537-1.8372 1.5955-.7735.2417-6.1884.5318-12.0867.7252-12.8603.3867-12.8603.3867-12.8603-3.4327 0-1.4504.0483-2.7074.145-2.7558.0484-.0483 4.1095-.1933 9.041-.3867 10.2978-.2901 15.3743-.2418 16.583.2417zm2.5624 16.9215c.3868.5318.6769 1.7404.5802 2.659-.0967 1.257-.4351 1.8372-1.3537 2.2723-1.8856.8703-25.8657 1.3054-26.5425.4352-.4835-.5802-.7736-2.8042-.6285-4.9798.0483-.5801.4834-1.112.9669-1.257.4351-.0967 6.5268-.1934 13.5372-.145 12.135.0483 12.7636.0967 13.4404 1.0153zm-92.4394-27.0744c-7.1554 1.0637-9.9112 4.3996-10.153 12.3285-.1933 6.2368.5802 8.8475 3.2877 11.41 2.8041 2.659 5.028 2.9974 21.176 3.3359 7.0586.145 13.5371.3867 14.4074.5318 1.8372.3384 2.9975 2.1756 2.514 4.0611-.1934.8703-.8702 1.402-2.1756 1.8856-1.402.4834-4.6413.6768-11.6033.7252-5.3181.0483-10.2495-.0967-10.9747-.2901-.822-.2418-1.4505-.9186-1.7889-1.8372-.7252-2.079-2.3206-2.514-8.8958-2.3207-5.6566.145-6.8653.5319-6.3818 2.0306.0967.29.29 1.3537.3867 2.3207.3385 2.7557 1.7889 5.8016 3.3843 7.107.7736.6768 2.6591 1.5954 4.1579 2.0789 2.369.8219 4.3512.9186 16.9698.9186 18.3718.0483 23.835-.5802 27.6061-3.2393 3.0459-2.0789 4.0128-4.7863 4.0128-10.8297 0-4.593-.0967-5.3182-1.3054-7.4938-.7252-1.3537-2.0789-2.9008-2.9491-3.5293-3.191-2.1756-5.2699-2.4657-18.807-2.5624-15.8095-.0967-17.2115-.2417-18.1785-1.9822-.5801-1.0153-.6285-1.4988-.145-2.514.29-.7253 1.0636-1.4505 1.6438-1.6922.6285-.2417 3.626-.4835 6.6719-.5802 3.0458-.0967 7.6871-.0967 10.2979-.0483l4.738.0967 1.7405 1.9339 1.7405 1.9338 4.6413-.0483c2.5624-.0484 5.3181-.1934 6.0917-.3868 1.3054-.2417 1.4504-.4835 1.5954-2.3206.3868-5.0281-2.369-8.8959-7.4454-10.588-2.5624-.822-4.3029-.9186-17.8884-.9186-8.2673 0-16.5347.2417-18.3718.4834zm-93.1164.2418c-4.6896.145-8.654.3867-8.8475.5801-1.112 1.112.9186 1.3538 11.0231 1.3054 17.9368 0 17.5017 0 16.8732.6285-.8703.8703-.677 1.8372.3867 1.8372.5318 0 .967.1934.967.4351 0 .1934-3.0942.5318-6.8653.6769-3.8194.1934-10.298.3384-14.4074.3384-6.8653 0-9.0892.3384-7.7839 1.1603.2418.1934 5.6083.3385 11.845.2901 9.7661 0 11.4583.0967 11.99.7736.3385.3867 1.0154 1.1603 1.4505 1.6438.8219.8702.7736.9186-.7252 1.2086-.8702.145-6.2368.3385-11.9417.4835-5.705.0967-10.878.2418-11.4583.2418-.6768 0-1.112.29-1.112.7252 0 .6285 1.5955.7252 11.555.7252h11.555l.29 1.4504c.1934 1.0636.5318 1.4504 1.3537 1.4987.6285.0484.145.2418-1.0636.4352-1.2087.1933-6.817.3867-12.5219.435-5.705.0484-10.5396.1935-10.7814.3385-1.4504.9186.5802 1.1603 9.476 1.1603 10.9748 0 12.8604.1934 12.8604 1.402 0 1.7406 1.0152 1.9823 7.8322 1.9823H38.17l.6768-1.6921.7252-1.6922h31.8607l.5802 1.4504c.3384.7736.9669 1.4988 1.402 1.4988 2.7075.1934 11.555-.1934 12.1835-.5802.8702-.435.9186-3.0458 0-3.9644-.4352-.4351-6.5752-.5318-24.7537-.4351-16.7764.0967-24.1252 0-23.8834-.3868.145-.2418.6768-.4835 1.112-.4835.435 0 1.2086-.5318 1.7888-1.2087l.967-1.2086 14.359-.2901 14.4074-.2901 1.402 1.4988 1.4021 1.4987h5.56c3.0941 0 6.14-.1934 6.8169-.4835 1.4504-.5318 1.6921-2.1272.5801-3.6743-.6285-.822-1.257-.9186-6.0433-.822-3.2876.0968-5.3666-.0483-5.3666-.3384 0-.29 2.0306-.4834 5.0281-.4834 5.8984 0 6.7203-.4352 5.3182-2.8525-.4835-.8219-1.2087-1.5955-1.5955-1.7405-.435-.1934-3.481-.4351-6.8169-.5802-3.336-.145-6.14-.3384-6.2367-.435-.0967-.0968 2.0789-.1935 4.8347-.1935 2.7557 0 5.3181-.1934 5.7049-.435.967-.6286-1.2087-1.934-5.1731-2.9976-2.9975-.8703-5.1248-.9186-30.0719-.822-14.7458.0968-30.7003.2418-35.39.3869zm57.7747 4.2062c-.3384.0967-.9186.0967-1.2087 0-.3384-.145-.0967-.2418.5802-.2418.6768 0 .9186.0967.6285.2418zm-31.909.4834c-.6285.0967-1.5955.0967-2.1756 0-.6285-.0967-.145-.1934 1.0636-.1934 1.2087 0 1.6921.0967 1.112.1934zm2.6107-.0483c-.145.145-.5801.1934-.9186.0483-.3868-.145-.2417-.29.2901-.29.5318-.0484.8219.0966.6285.2417zm6.817.0483c-.4835.0967-1.3538.0967-1.934 0-.6284-.0967-.2417-.1934.822-.1934 1.0636-.0483 1.547.0484 1.112.1934zm9.6693 0c-.4834.0967-1.257.0967-1.6921 0-.4835-.145-.0967-.2417.8219-.2417s1.3054.0967.8702.2417zm17.9368 5.705c.0967.145-1.9339.1934-4.593.145-3.4326-.0483-4.1578-.145-2.6107-.3384 2.3206-.29 6.8169-.1934 7.2037.1934zm-41.0466.2417c0 .2417-.3868.4835-.822.4835-.4834 0-1.2086-.2418-1.5954-.4835-.5318-.3384-.3384-.4835.8703-.4835.8219 0 1.547.1934 1.547.4835zm8.074-.1934c-.1451.145-.5802.1934-.9187.0484-.3867-.145-.2417-.2901.2901-.2901.5318-.0484.822.0967.6285.2417zm12.135.0484c-1.0153.0967-2.659.0967-3.626 0-1.0153-.0967-.1934-.1934 1.7888-.1934 1.9823 0 2.8042.0967 1.8372.1934zm6.5269 0c-.8703.0967-2.3207.0967-3.1426 0-.8702-.0967-.1934-.1934 1.5471-.1934s2.4174.0967 1.5955.1934zM31.643 32.1708c.1934.29-.4351.4835-1.547.4351-1.8373-.0483-1.8373-.0483-.3869-.4351.822-.1934 1.4988-.3868 1.5471-.4351.0484 0 .2418.145.3868.435zm3.2876.3384c-.3384.0967-1.0153.0967-1.4504 0-.4835-.145-.1934-.2417.5802-.2417.8219 0 1.1603.0967.8702.2417zm39.7414 5.995c-2.369.1934-14.1174.3868-26.1074.4352-29.8785.0483-47.235.5318-47.5251 1.3053-.145.4835 2.224.6285 10.6363.6285 5.9467 0 11.0231.1934 11.2649.3868.29.1934.8702.967 1.3537 1.6922.7735 1.2086 1.112 1.3537 3.2392 1.257 1.3537-.0967 2.5624 0 2.7558.1934.145.1934-.5318.3384-1.5955.3384-8.0256.0967-25.769.5802-26.6875.7736-.6285.145-1.0636.4834-.9186.8219.145.435 2.9492.5318 11.6033.3867l11.4099-.145.3384 1.257c.3868 1.5471 1.4988 2.224 3.626 2.224.8703 0 1.4021.145 1.2087.3384-.1934.1934-6.3818.4835-13.7305.6285-7.3488.145-13.6822.4351-14.0207.6285-1.5954 1.0637.7252 1.3054 11.9417 1.3054h11.9417l1.3054 1.3537c.7252.7736 1.1603 1.4988.967 1.6922-.145.1933-5.995.3384-12.9087.3384-12.4252 0-14.9876.29-13.3438 1.4987.4835.3385 4.8347.3868 13.5855.1934l12.8603-.3384 4.5447 1.6438 4.5446 1.5954 17.1632-.0483c14.069 0 17.7917-.145 20.7408-.8219 5.6083-1.257 8.364-3.4326 5.3665-4.2545-.9669-.2418-1.0636-.3868-.435-.6285.435-.1934.9669-.2901 1.2086-.2418 1.5955.2901 2.7074-.1934 3.5777-1.6438 1.2087-1.9822 1.2087-2.1756-.2418-2.8525l-1.257-.5801 1.4988-.6285c1.402-.5802 1.4987-.7736 1.3537-2.6591-.145-1.6922-.3384-2.079-1.3537-2.369l-1.2087-.2901 1.3537-.3868c2.224-.5801 2.369-4.3512.1934-4.7863-2.514-.5318-6.1884-.6285-10.2496-.2418zm-3.9645 2.369c.4835 0 .8219.3868.8219.967 0 .6285.4835 1.2087 1.3537 1.547 1.1603.5319.8219.6286-3.2876.9187-2.514.1934-10.5396.3384-17.84.3868-11.0232.0483-13.1504-.0484-12.667-.5802.2901-.3868.3868-.7736.2418-.967-.145-.145-.145-.7252.0483-1.257.2901-.967.6769-1.0153 12.4736-1.112 6.7202-.0966 13.4888-.0966 15.0842-.0483 1.5955.0483 3.2876.0967 3.771.145zm-33.5045 3.336c0 .2417-.5318.3868-1.2087.3868-.6768 0-1.2086-.0967-1.2086-.2901 0-.1934.5318-.3868 1.2086-.4351.6769-.0484 1.2087.0966 1.2087.3384zm32.586 4.3028c.0483.8219-.0484 1.547-.1934 1.547s-1.7405.0968-3.626.2418c-5.4149.29-31.2322.3384-31.5223.0484-.1934-.145.8703-.2901 2.3207-.2901 2.7074 0 4.9797-.967 3.9161-1.6438-.3384-.1934-.5802-.5318-.5802-.7736 0-.2417.4835-.5318 1.112-.6285.5802-.0967 7.252-.1934 14.7942-.145l13.7305.0483zm-37.2755 1.8855c-.3385.0967-.9186.0967-1.2087 0-.3384-.145-.0967-.2417.5801-.2417.6769 0 .9186.0967.6286.2417zM392.3117 63.403c-.2417.0966-13.102.2417-28.5247.3867-15.4227.145-28.3797.2901-28.7665.2901-.3867.0483-7.4454.0483-15.7127.0483-8.219 0-21.0793.0967-28.5248.1934-7.4454.0967-30.1685.2901-50.5226.4835-20.354.145-43.5123.3384-51.4895.4835-7.9773.145-27.316.3384-43.0289.4834-15.6644.145-31.909.3385-36.0185.4835-4.1095.0967-24.0284.3384-44.2375.4835-40.9015.29-64.0598.6768-64.64 1.0153-.1933.145-.3867 3.7227-.3867 7.9289 0 7.0103.0967 7.7355.9186 8.1706.5318.3385 7.252.4351 18.2268.2901 9.5244-.0967 32.5859-.29 51.1995-.4351 44.3342-.3868 81.0296-.7252 109.9894-1.0153 12.9087-.145 39.7896-.3384 59.7086-.4835 47.1383-.3384 84.4138-.6768 102.4956-.967 7.9772-.145 34.1813-.3867 58.2581-.5317 28.3314-.1934 43.9475-.4835 44.3826-.7736.9186-.7735.8219-15.5194-.0967-16.293-.5318-.435-7.3004-.58-26.736-.4834-14.3106.0484-26.204.145-26.494.2417z"/></svg>