<?xml version="1.0" encoding="UTF-8"?>
<!-- Generator: Adobe Illustrator 15.1.0, SVG Export Plug-In  -->
<!DOCTYPE svg PUBLIC "-//W3C//DTD SVG 1.1//EN" "http://www.w3.org/Graphics/SVG/1.1/DTD/svg11.dtd">
<svg version="1.1" xmlns="http://www.w3.org/2000/svg" xmlns:xlink="http://www.w3.org/1999/xlink" xmlns:a="http://ns.adobe.com/AdobeSVGViewerExtensions/3.0/" x="0px" y="0px" width="720px" height="108px" viewBox="-7.989 -12.761 720 108" enable-background="new -7.989 -12.761 720 108" xml:space="preserve">
<defs>
</defs>
<path d="M458.412,6.056c-8.446,7.242-11.008,18.616-7.024,31.207l6.099,17.245c2.187,5.742-4.688,15.243-15.814,11.368v16.876  c13.876,4.127,24.626-1.125,30.221-7.626c6.074-7.06,7.532-18.252,4.559-26.981l-6.04-17.064c-1.457-4.698-1.114-8.007,1.02-9.836  c2.807-2.406,7.119-4.75,12.62-2.25V1.866C475.675-1.884,465.159,0.272,458.412,6.056z"/>
<path d="M511.179,84.002c-7.271,0-15.109-3.086-20.632-8.467c-5.802-5.652-8.997-13.602-8.997-21.475  c0-7.527,2.884-15.569,7.912-21.194c5.475-6.125,13.376-8.997,21.342-8.997c18.125,0,31.504,12.814,31.504,34.191h-38.879V47.434  h19.376c-1.25-5.389-5.25-7.563-12.001-7.563c-7.628,0-12.752,7.337-12.752,14.189c0,7.693,6.93,13.439,13.127,13.439  c6.696,0,8.586-1.528,11.611-4.458l11.134,11.492C528.209,80.07,522.412,84.002,511.179,84.002z"/>
<path d="M632.195,84.002c-7.271,0-15.11-3.086-20.633-8.467c-5.801-5.652-8.996-13.602-8.996-21.475  c0-7.527,2.884-15.569,7.912-21.194c5.475-6.125,13.377-8.997,21.342-8.997c18.124,0,31.504,12.814,31.504,34.191h-38.88V47.434  h19.377c-1.25-5.389-5.251-7.563-12.001-7.563c-7.628,0-12.752,7.337-12.752,14.189c0,7.693,6.931,13.439,13.127,13.439  c6.696,0,8.586-1.528,11.61-4.458l11.136,11.492C649.226,80.07,643.426,84.002,632.195,84.002z"/>
<path d="M558.815,28.651c-7.978,5.001-13.132,13.331-13.132,21.221v33.004h17.503V49.873c0-1.116,1.488-4.237,4.925-6.392  c2.256-1.415,6.076-2.241,9.827-1.609V25.744C571.457,24.711,564.78,24.911,558.815,28.651z"/>
<path fill-rule="evenodd" clip-rule="evenodd" d="M189.516,1.027c18.396-2.382,34.409,12.086,28.779,30.873  c-0.879,2.938-5.918,9.219-5.918,9.219s7.693,7.117,8.535,11.712c3.51,19.167-10.956,30.459-25.64,30.873  c-15.554,0.438-32.67-10.09-29.303-29.827c0.455-2.668,2.236-5.212,3.14-6.802c0.91-1.603,5.197-5.956,5.197-5.956  s-5.705-9.063-6.244-12.882C166.093,14.29,174.413,2.982,189.516,1.027z M185.853,24.068c0,10.061,15.174,9.93,15.174,0.506  C201.027,13.916,185.853,13.784,185.853,24.068z M193.697,68.006c11.869,0,11.933-17.792-0.203-17.792  C181.321,50.214,181.637,68.006,193.697,68.006z"/>
<path fill-rule="evenodd" clip-rule="evenodd" d="M313.362,1.027c9.292-0.947,17.432,2.454,21.977,6.803  c13.639,13.049,15.852,55.834-0.522,70.118c-6.721,5.861-20.774,8.898-31.396,3.663c-10.221-5.04-16.226-18.484-17.268-34.013  C284.522,23.279,291.53,3.252,313.362,1.027z M316.502,68.006c16.377-0.354,15.701-54.95-2.617-50.234  C300.875,21.121,301.105,68.338,316.502,68.006z"/>
<path fill-rule="evenodd" clip-rule="evenodd" d="M250.947,1.027c9.292-0.947,17.433,2.454,21.977,6.803  c13.639,13.049,15.852,55.834-0.522,70.118c-6.72,5.861-20.773,8.898-31.396,3.663c-10.22-5.04-16.226-18.484-17.268-34.013  C222.106,23.279,229.115,3.252,250.947,1.027z M254.086,68.006c16.379-0.354,15.702-54.95-2.616-50.234  C238.461,21.121,238.69,68.338,254.086,68.006z"/>
<path fill-rule="evenodd" clip-rule="evenodd" d="M376.129,0.455c9.291-0.947,17.431,2.454,21.977,6.802  c13.639,13.049,15.851,55.834-0.523,70.117c-6.72,5.862-20.773,8.901-31.396,3.665C355.965,76,349.96,62.556,348.919,47.026  C347.289,22.708,354.297,2.68,376.129,0.455z M379.269,67.433c16.378-0.352,15.702-54.949-2.617-50.233  C363.642,20.549,363.872,67.765,379.269,67.433z"/>
<path fill-rule="evenodd" clip-rule="evenodd" d="M108.227,1.687v16.211c-44.451-11.95-44.152,59.922-0.596,48.018v16.222  C40.199,99.015,39.9-13.852,108.227,1.687z"/>
<path fill-rule="evenodd" clip-rule="evenodd" d="M20.999,50.343v-16.18c7.856,0,12.587-2.723,12.587-8.419  c0-4.71-0.746-9.35-16.642-9.35v67.312H0V0.104h16.583c31.662,0.108,35.391,12.821,35.391,25.117  C51.974,42.889,39.639,50.343,20.999,50.343z"/>
<rect x="115.251" y="36.609" fill-rule="evenodd" clip-rule="evenodd" width="40.815" height="12.56"/>
<path d="M685.14,28.521c-5.683,3.716-9.567,9.764-10.652,16.594l-1.537,12.019c-0.845,3.249-2.457,7.305-5.435,9.075  c-2.15,1.28-5.749,1.567-8.942,1.155v15.614c1.55,0.218,3.016,0.318,4.395,0.318c5.666,0,9.891-1.646,12.729-3.335  c6.318-3.758,10.657-10.296,12.9-19.431l0.108-0.443l1.602-12.56c0.204-1.186,0.95-3.888,3.591-5.613  c2.544-1.665,6.293-2.075,10.931-1.227V24.521C695.471,23.454,689.074,25.949,685.14,28.521z"/>
<rect x="580.938" y="25.869" width="17.878" height="57.008"/>
<circle cx="590.127" cy="11.493" r="10.314"/>
</svg>