<?xml version="1.0" encoding="UTF-8" standalone="no"?>

<svg
   xmlns:dc="http://purl.org/dc/elements/1.1/"
   xmlns:cc="http://creativecommons.org/ns#"
   xmlns:rdf="http://www.w3.org/1999/02/22-rdf-syntax-ns#"
   xmlns:svg="http://www.w3.org/2000/svg"
   xmlns="http://www.w3.org/2000/svg"
   version="1.1"
   width="393"
   height="155"
   id="svg2"
   xml:space="preserve"><metadata
     id="metadata8"><rdf:RDF><cc:Work
         rdf:about=""><dc:format>image/svg+xml</dc:format><dc:type
           rdf:resource="http://purl.org/dc/dcmitype/StillImage" /><dc:title></dc:title></cc:Work></rdf:RDF></metadata><defs
     id="defs6" /><g
     transform="matrix(1.25,0,0,-1.25,-171.09162,1245.8748)"
     id="g10"><g
       transform="scale(1.0017,0.9983)"
       id="g1668" /><path
       d="m 240.59322,961.42357 -12.90019,9.24043 12.37316,8.24877 -2.94723,4.42431 -11.12319,-7.41488 -0.45942,-0.41261 0.0624,0.57384 0,16.29991 -5.31542,0 0,-34.89346 5.31542,0 0,7.642 -0.0849,0.66572 0.49929,-0.46809 11.4838,-8.22797 3.09632,4.32203"
       id="path1502"
       style="fill:#000000;fill-opacity:1;fill-rule:nonzero;stroke:none" /><path
       d="m 369.44261,957.50722 5.31542,0 0,25.14333 -5.31542,0 0,-25.14333 z"
       id="path1504"
       style="fill:#000000;fill-opacity:1;fill-rule:nonzero;stroke:none" /><path
       d="m 369.45475,987.6019 5.31541,0 0,4.79531 -5.31541,0 0,-4.79531 z"
       id="path1506"
       style="fill:#000000;fill-opacity:1;fill-rule:nonzero;stroke:none" /><path
       d="m 151.53142,996.08645 c -8.05633,0 -14.60265,-6.6226 -14.64252,-14.672 l -0.0156,-24.48107 5.31715,0 0,13.20878 c 2.53809,-2.10466 5.79391,-3.37197 9.34098,-3.37197 8.08235,0 14.65813,6.57579 14.65813,14.65813 0,8.08234 -6.57578,14.65813 -14.65813,14.65813 z m 0,-23.99911 c -5.15071,0 -9.34098,4.19026 -9.34098,9.34098 0,5.15072 4.19027,9.34098 9.34098,9.34098 5.15245,0 9.34272,-4.19026 9.34272,-9.34098 0,-5.15072 -4.19027,-9.34098 -9.34272,-9.34098"
       id="path1508"
       style="fill:#000000;fill-opacity:1;fill-rule:nonzero;stroke:none" /><path
       d="m 179.06201,957.03566 c 7.19991,0 13.05796,5.85805 13.05796,13.05796 0,7.19991 -5.85805,13.05796 -13.05796,13.05796 -7.19991,0 -13.05796,-5.85805 -13.05796,-13.05796 0,-7.19991 5.85805,-13.05796 13.05796,-13.05796 z m -7.74081,13.05796 c 0,4.27002 3.47253,7.74255 7.74081,7.74255 4.26828,0 7.74255,-3.47253 7.74255,-7.74255 0,-4.26828 -3.47427,-7.74081 -7.74255,-7.74081 -4.26828,0 -7.74081,3.47253 -7.74081,7.74081"
       id="path1510"
       style="fill:#000000;fill-opacity:1;fill-rule:nonzero;stroke:none" /><path
       d="m 218.21162,977.17911 c -2.41847,3.74991 -6.52205,5.98634 -10.97757,5.98634 -7.1999,0 -13.05795,-5.85805 -13.05795,-13.05796 0,-7.19991 5.85805,-13.05622 13.05795,-13.05622 4.76238,0 9.14855,2.59356 11.44566,6.76822 l -4.65663,2.56409 c -1.36439,-2.47741 -3.96489,-4.0169 -6.78903,-4.0169 -4.26828,0 -7.74081,3.47253 -7.74081,7.74081 0,4.27002 3.47253,7.74255 7.74081,7.74255 2.64211,0 5.07617,-1.32799 6.51165,-3.55228 l 4.46592,2.88135"
       id="path1512"
       style="fill:#000000;fill-opacity:1;fill-rule:nonzero;stroke:none" /><path
       d="m 265.94633,967.38564 c 0.26871,1.13728 0.27392,2.64904 0.27392,2.64904 0,7.1999 -5.85806,13.05796 -13.05796,13.05796 -7.19991,0 -13.05796,-5.85806 -13.05796,-13.05796 0,-7.19991 5.85805,-13.05623 13.05796,-13.05623 4.72943,0 9.10173,2.56756 11.40751,6.70061 l -4.64102,2.5901 c -1.3696,-2.4514 -3.96143,-3.97529 -6.76649,-3.97529 -3.15354,0 -5.86499,1.89836 -7.06989,4.61154 -0.0693,0.1543 -0.23751,0.39701 -0.29645,0.55651 l 0.58424,-0.0849 17.18235,0 2.38379,0.0173 z m -19.86606,5.7523 c 1.19796,2.72705 3.91808,4.63928 7.08202,4.63928 3.15353,0 5.86672,-1.90009 7.07161,-4.61328 0.0676,-0.15429 0.23925,-0.38487 0.29819,-0.54437 l -0.58598,0.0746 -13.6526,0 -0.47676,-0.0746 c 0.0555,0.15083 0.19937,0.37274 0.26352,0.51837"
       id="path1514"
       style="fill:#000000;fill-opacity:1;fill-rule:nonzero;stroke:none" /><path
       d="m 273.80676,970.53051 0,6.79943 7.73561,0 0,5.31541 -7.73561,0 0,5.70896 -5.31541,0 0,-17.8238 c 0,-7.19991 5.85631,-13.05796 13.05622,-13.05796 l 0,5.31541 c -4.26828,0 -7.74081,3.47426 -7.74081,7.74255"
       id="path1516"
       style="fill:#000000;fill-opacity:1;fill-rule:nonzero;stroke:none" /><path
       d="m 305.38719,987.70938 c -0.27912,4.18854 -4.84039,7.8639 -9.7588,7.8639 -3.04951,0 -5.77657,-1.05406 -7.68013,-2.96976 -1.87063,-1.88103 -2.84841,-4.45379 -2.83108,-7.44262 0.0312,-5.2374 4.38618,-9.12774 10.35518,-9.24737 5.23047,-0.10748 7.77202,-2.22776 7.76855,-6.48737 -0.003,-4.94268 -3.86087,-7.15656 -7.6836,-7.15656 -3.90594,0 -7.20858,2.91775 -7.6836,6.78556 l -5.27554,-0.64666 c 0.80095,-6.53071 6.37295,-11.45432 12.95914,-11.45432 7.52757,0 12.99555,5.24434 13.00075,12.46851 0.003,7.22765 -4.84733,11.63983 -12.97821,11.80452 -2.55022,0.052 -5.13165,1.29852 -5.14725,3.96489 -0.009,1.56377 0.42301,2.7964 1.28638,3.66497 0.89804,0.90151 2.2867,1.39907 3.90941,1.39907 2.31098,0 4.37924,-1.78048 4.45378,-2.89869 l 5.30502,0.35193"
       id="path1518"
       style="fill:#000000;fill-opacity:1;fill-rule:nonzero;stroke:none" /><path
       d="m 316.16884,970.53051 0,6.77342 7.69401,0 0.003,5.31542 -7.69747,0 0,5.29807 -5.31541,0 0,-17.38865 c 0,-7.19991 5.85805,-13.05796 13.05796,-13.05796 l 0,5.31542 c -4.26828,0 -7.74255,3.47253 -7.74255,7.74254"
       id="path1520"
       style="fill:#000000;fill-opacity:1;fill-rule:nonzero;stroke:none" /><path
       d="m 345.4591,982.61241 0,-1.56896 0.0555,-0.64319 c -0.12483,0.0936 -0.30686,0.3502 -0.43515,0.43861 -2.10294,1.44935 -4.64796,2.29884 -7.38888,2.29884 -7.19991,0 -13.05796,-5.85805 -13.05796,-13.05796 0,-7.1999 5.85805,-13.05796 13.05796,-13.05796 2.73919,0 5.28248,0.8495 7.38368,2.29538 0.13002,0.0901 0.33633,0.32419 0.46289,0.41781 l -0.078,-0.61892 0,-1.63138 5.31715,0 0,25.12773 -5.31715,0 z m -7.76855,-20.27347 c -4.26828,0 -7.74081,3.47253 -7.74081,7.74081 0,4.26828 3.47253,7.74255 7.74081,7.74255 4.26828,0 7.74255,-3.47427 7.74255,-7.74255 0,-4.26828 -3.47427,-7.74081 -7.74255,-7.74081"
       id="path1522"
       style="fill:#000000;fill-opacity:1;fill-rule:nonzero;stroke:none" /><path
       d="m 358.90713,970.53917 0,6.78903 7.71481,0 0,5.31542 -7.71481,0 0,5.32928 -5.31541,0 0,-17.43373 c 0,-7.1999 5.85805,-13.05622 13.05796,-13.05622 l 0,5.31541 c -4.27002,0 -7.74255,3.47253 -7.74255,7.74081"
       id="path1524"
       style="fill:#000000;fill-opacity:1;fill-rule:nonzero;stroke:none" /><path
       d="m 390.21538,957.00619 c 7.1999,0 13.05795,5.85805 13.05795,13.05796 0,7.19991 -5.85805,13.05622 -13.05795,13.05622 -7.19991,0 -13.05796,-5.85631 -13.05796,-13.05622 0,-7.19991 5.85805,-13.05796 13.05796,-13.05796 z m -7.74081,13.05796 c 0,4.26828 3.47252,7.74081 7.74081,7.74081 4.27001,0 7.74254,-3.47253 7.74254,-7.74081 0,-4.26828 -3.47253,-7.74254 -7.74254,-7.74254 -4.26829,0 -7.74081,3.47426 -7.74081,7.74254"
       id="path1526"
       style="fill:#000000;fill-opacity:1;fill-rule:nonzero;stroke:none" /><path
       d="m 410.83038,957.48468 0,12.59854 c 0,4.27002 3.47253,7.74254 7.74081,7.74254 4.27001,0 7.74254,-3.47252 7.74254,-7.74254 l 0,-12.62801 5.31542,0 0,12.62801 c 0,7.20164 -5.85805,13.05796 -13.05796,13.05796 -7.19991,0 -13.05623,-5.85632 -13.05623,-13.05796 l 0,-12.59854 5.31542,0"
       id="path1528"
       style="fill:#000000;fill-opacity:1;fill-rule:nonzero;stroke:none" /><path
       d="m 438.2188,965.29657 -2.82067,0 0,0.97606 6.72315,0 0,-0.97606 -2.79813,0 0,-7.59171 -1.10435,0 0,7.59171"
       id="path1530"
       style="fill:#000000;fill-opacity:1;fill-rule:nonzero;stroke:none" /><path
       d="m 446.67735,957.70486 -2.33871,6.95719 0,-6.95719 -1.12862,0 0,8.56777 1.56203,0 2.46874,-7.28659 2.46874,7.28659 1.56377,0 0,-8.56777 -1.12862,0 0,6.95719 -2.33871,-6.95719 -1.12862,0"
       id="path1532"
       style="fill:#000000;fill-opacity:1;fill-rule:nonzero;stroke:none" /><path
       d="m 157.94135,940.66405 c 0,-20.34591 16.26259,-37.38939 39.6248,-49.20497 23.36221,-11.81557 54.37307,-18.79721 86.44727,-18.75908 32.07002,0.0381 62.83724,7.04387 85.92061,18.8594 23.08336,11.81553 39.0229,28.84157 39.0229,49.10465 l -8.02528,0 c 0,-15.98552 -13.01881,-30.88023 -34.65916,-41.95714 -21.64034,-11.07691 -51.35961,-17.9449 -82.25907,-17.98163 -30.8953,-0.0367 -60.90621,6.81532 -82.83589,17.90639 -21.92969,11.09107 -35.2109,26.03675 -35.2109,42.03238 l -8.02528,0 z"
       id="path5354"
       style="font-size:medium;font-style:normal;font-variant:normal;font-weight:normal;font-stretch:normal;text-indent:0;text-align:start;text-decoration:none;line-height:normal;letter-spacing:normal;word-spacing:normal;text-transform:none;direction:ltr;block-progression:tb;writing-mode:lr-tb;text-anchor:start;baseline-shift:baseline;color:#000000;fill:#4f629c;fill-opacity:1;stroke:none;stroke-width:10;marker:none;visibility:visible;display:inline;overflow:visible;enable-background:accumulate;font-family:Sans;-inkscape-font-specification:Sans" /></g></svg>