<?xml version="1.0" encoding="UTF-8" standalone="no"?>
<!DOCTYPE svg PUBLIC "-//W3C//DTD SVG 1.1//EN" "http://www.w3.org/Graphics/SVG/1.1/DTD/svg11.dtd">
<svg xmlns="http://www.w3.org/2000/svg" version="1.1" viewBox="0 0 2560 371">
<g stroke-width="2.00" fill="none" stroke-linecap="butt">
<path stroke="#e6e6e6" vector-effect="non-scaling-stroke" d="
  M 2531.94 371.00
  Q 2545.48 370.51 2559.04 370.82
  C 2559.29 370.82 2560.25 370.23 2559.28 370.23
  Q 2334.39 370.30 2109.50 370.21"
/>
<path stroke="#f7f7f7" vector-effect="non-scaling-stroke" d="
  M 2109.50 370.21
  C 2109.06 368.27 2115.91 370.56 2112.74 365.89
  A 1.35 1.33 31.5 0 1 2112.51 364.97
  C 2113.14 359.75 2110.82 355.69 2110.08 351.80
  Q 2108.90 345.61 2108.91 339.74
  A 1.25 1.24 0.2 0 0 2107.66 338.49
  Q 2072.97 338.53 2038.93 338.47
  Q 2037.01 338.46 2037.00 337.29"
/>
<path stroke="#7f7f7f" vector-effect="non-scaling-stroke" d="
  M 2037.00 337.29
  Q 2250.09 337.23 2463.19 337.24
  C 2484.05 337.24 2504.86 336.79 2525.75 337.17
  A 0.49 0.49 -90.0 0 0 2526.24 336.68
  L 2526.25 34.24
  A 0.56 0.56 -0.5 0 0 2525.68 33.68
  C 2451.84 34.55 2377.86 33.74 2304.00 33.71"
/>
<path stroke="#fafafa" vector-effect="non-scaling-stroke" d="
  M 2304.00 33.71
  Q 2304.69 30.48 2302.82 28.11
  A 1.71 1.09 34.3 0 1 2302.45 27.24
  Q 2302.36 25.25 2303.69 23.59
  A 1.46 1.30 -27.9 0 0 2304.02 22.71
  L 2303.98 2.26
  A 0.51 0.49 0.0 0 0 2303.47 1.77
  Q 2298.93 1.74 2294.41 1.53
  C 2289.85 1.31 2284.70 1.96 2279.75 1.56
  C 2279.00 1.50 2278.52 1.09 2279.75 0.79"
/>
<path stroke="#eaeaea" vector-effect="non-scaling-stroke" d="
  M 2279.75 0.79
  C 2303.97 0.78 2558.64 1.52 2559.34 0.55
  Q 2559.54 0.26 2559.13 0.26
  L 2200.50 0.29"
/>
<path stroke="#dddddd" vector-effect="non-scaling-stroke" d="
  M 2200.50 0.29
  Q 1100.84 0.22 1.19 0.25
  C 0.35 0.25 0.00 0.70 0.29 1.50"
/>
<path stroke="#e6e6e6" vector-effect="non-scaling-stroke" d="
  M 0.29 1.50
  L 0.00 1.94"
/>
<path stroke="#cacaca" vector-effect="non-scaling-stroke" d="
  M 2200.50 0.29
  L 2200.75 0.71"
/>
<path stroke="#dadada" vector-effect="non-scaling-stroke" d="
  M 2200.75 0.71
  L 1937.75 0.75"
/>
<path stroke="#d6d7d6" vector-effect="non-scaling-stroke" d="
  M 1937.75 0.75
  L 1480.75 0.79"
/>
<path stroke="#d2d3d2" vector-effect="non-scaling-stroke" d="
  M 1480.75 0.79
  L 1152.00 0.79"
/>
<path stroke="#cfd0cf" vector-effect="non-scaling-stroke" d="
  M 1152.00 0.79
  L 972.00 0.79"
/>
<path stroke="#cdcecd" vector-effect="non-scaling-stroke" d="
  M 972.00 0.79
  L 732.00 0.79"
/>
<path stroke="#cacaca" vector-effect="non-scaling-stroke" d="
  M 732.00 0.79
  L 480.00 0.79"
/>
<path stroke="#c6c6c6" vector-effect="non-scaling-stroke" d="
  M 480.00 0.79
  L 2.00 0.75
  A 1.77 1.73 28.6 0 0 1.08 1.01
  L 0.29 1.50"
/>
<path stroke="#e7e7e7" vector-effect="non-scaling-stroke" d="
  M 2279.75 0.79
  L 2200.75 0.71"
/>
<path stroke="#d3d3d3" vector-effect="non-scaling-stroke" d="
  M 480.00 0.79
  L 452.99 0.95
  Q 452.49 0.95 452.06 1.19
  Q 450.84 1.87 450.25 1.86
  Q 426.88 1.31 403.72 1.81
  Q 401.70 1.85 401.71 3.91
  L 401.80 32.31
  A 0.69 0.68 90.0 0 0 402.48 33.00
  L 449.56 33.04
  A 1.83 1.57 57.5 0 1 450.48 33.32
  Q 451.30 33.83 451.75 33.82
  Q 466.26 33.54 480.75 33.96"
/>
<path stroke="#686868" vector-effect="non-scaling-stroke" d="
  M 480.75 33.96
  Q 402.76 34.04 324.77 33.99
  C 279.73 33.95 234.62 34.22 189.56 33.86
  C 137.89 33.44 86.26 34.21 34.51 33.72
  A 0.75 0.75 0.0 0 0 33.76 34.47
  L 33.77 336.71
  A 0.51 0.50 0.6 0 0 34.27 337.21
  Q 151.05 337.36 208.18 337.20
  Q 225.16 337.15 231.75 337.29"
/>
<path stroke="#d3d3d3" vector-effect="non-scaling-stroke" d="
  M 231.75 337.29
  Q 231.62 337.45 231.41 337.52
  Q 231.13 337.63 231.41 337.67
  Q 232.27 337.78 234.56 337.80
  Q 257.68 337.98 280.80 337.78
  A 0.29 0.24 -84.2 0 1 281.03 338.13
  Q 280.95 338.50 281.50 338.50
  Q 304.50 338.49 327.41 338.51
  A 1.38 1.37 -0.6 0 1 328.79 339.85
  Q 329.06 350.44 329.00 360.18
  C 328.99 363.05 328.66 366.09 328.79 368.58
  A 1.48 1.48 88.6 0 0 330.27 369.99
  C 422.16 370.02 513.46 368.97 604.50 370.21"
/>
<path stroke="#c5c0c4" vector-effect="non-scaling-stroke" d="
  M 604.50 370.21
  L 524.51 370.31
  Q 524.42 370.31 524.17 370.45
  L 524.00 370.54"
/>
<path stroke="#b5aeb3" vector-effect="non-scaling-stroke" d="
  M 524.00 370.54
  Q 523.67 370.57 523.40 370.50
  Q 522.60 370.33 522.44 370.33
  L 322.75 370.41"
/>
<path stroke="#aeaaae" vector-effect="non-scaling-stroke" d="
  M 322.75 370.41
  C 239.94 370.24 157.13 370.37 74.32 370.36
  Q 74.08 370.36 74.30 370.48
  L 74.75 370.71"
/>
<path stroke="#e3e3e3" vector-effect="non-scaling-stroke" d="
  M 74.75 370.71
  L 27.44 371.00"
/>
<path stroke="#e3e3e3" vector-effect="non-scaling-stroke" d="
  M 25.19 371.00
  L 1.01 370.74
  A 0.60 0.58 -4.5 0 1 0.42 370.25
  L 0.00 367.69"
/>
<path stroke="#dbdbdb" vector-effect="non-scaling-stroke" d="
  M 732.00 0.79
  L 720.22 0.95
  A 1.12 1.03 -0.3 0 0 719.11 1.98
  L 719.14 32.64
  A 0.50 0.47 -1.2 0 0 719.66 33.11
  Q 727.73 32.84 735.76 33.75"
/>
<path stroke="#6c6c6c" vector-effect="non-scaling-stroke" d="
  M 735.76 33.75
  C 650.79 34.53 565.74 34.03 480.75 33.96"
/>
<path stroke="#e0e0e0" vector-effect="non-scaling-stroke" d="
  M 972.00 0.79
  L 964.14 0.97
  A 0.55 0.50 -2.1 0 0 963.60 1.50
  Q 963.62 1.95 963.39 2.21
  A 1.29 0.42 -44.1 0 0 962.98 2.99
  L 962.95 32.91
  A 0.45 0.45 -2.9 0 0 963.45 33.36
  Q 969.64 32.82 975.76 33.97"
/>
<path stroke="#6f6f6f" vector-effect="non-scaling-stroke" d="
  M 975.76 33.97
  Q 939.52 33.63 903.31 33.82
  C 847.45 34.10 791.62 33.82 735.76 33.75"
/>
<path stroke="#e5e5e5" vector-effect="non-scaling-stroke" d="
  M 1152.00 0.79
  C 1146.19 1.17 1140.13 0.33 1134.52 2.01
  A 0.70 0.67 82.6 0 0 1134.04 2.66
  C 1133.96 16.79 1134.27 26.29 1134.01 32.40
  A 0.51 0.47 -87.0 0 0 1134.45 32.93
  C 1149.05 34.00 1163.49 32.76 1180.43 33.07
  C 1182.22 33.10 1183.80 33.83 1185.63 33.80
  Q 1199.20 33.56 1212.75 33.96"
/>
<path stroke="#717171" vector-effect="non-scaling-stroke" d="
  M 1212.75 33.96
  Q 1116.53 34.14 1020.32 33.85
  C 1006.61 33.80 990.62 34.13 975.76 33.97"
/>
<path stroke="#ececec" vector-effect="non-scaling-stroke" d="
  M 1480.75 0.79
  L 1483.81 1.03
  A 0.73 0.44 -0.6 0 1 1484.44 1.40
  C 1484.56 1.93 1483.43 1.50 1482.92 1.49
  Q 1479.17 1.38 1475.56 2.16
  A 0.63 0.60 84.4 0 0 1475.08 2.77
  L 1474.98 30.69
  A 1.65 0.68 46.2 0 0 1475.32 31.56
  Q 1475.59 31.95 1475.19 32.18
  A 0.54 0.34 -27.6 0 0 1474.87 32.73
  C 1475.19 33.41 1556.14 33.18 1569.95 32.92
  C 1571.23 32.89 1572.85 33.76 1574.00 33.75
  Q 1584.12 33.72 1594.25 33.79"
/>
<path stroke="#747474" vector-effect="non-scaling-stroke" d="
  M 1594.25 33.79
  C 1528.85 34.21 1463.47 33.63 1398.08 33.72
  Q 1305.42 33.84 1212.75 33.96"
/>
<path stroke="#f4f4f4" vector-effect="non-scaling-stroke" d="
  M 1937.75 0.75
  Q 1939.05 2.04 1938.03 3.89
  Q 1937.78 4.33 1937.78 4.81
  L 1937.82 31.59
  A 1.32 0.46 -44.1 0 1 1937.43 32.37
  Q 1937.26 32.57 1937.22 32.83
  A 0.51 0.41 5.5 0 0 1937.72 33.32
  L 1947.50 33.71"
/>
<path stroke="#787878" vector-effect="non-scaling-stroke" d="
  M 1947.50 33.71
  L 1594.25 33.79"
/>
<path stroke="#7c7c7c" vector-effect="non-scaling-stroke" d="
  M 2304.00 33.71
  L 1947.50 33.71"
/>
<path stroke="#787878" vector-effect="non-scaling-stroke" d="
  M 2037.00 337.29
  L 1475.75 337.29"
/>
<path stroke="#747474" vector-effect="non-scaling-stroke" d="
  M 1475.75 337.29
  L 1184.00 337.29"
/>
<path stroke="#717171" vector-effect="non-scaling-stroke" d="
  M 1184.00 337.29
  L 1012.75 337.29"
/>
<path stroke="#6f6f6f" vector-effect="non-scaling-stroke" d="
  M 1012.75 337.29
  L 646.75 337.29"
/>
<path stroke="#6c6c6c" vector-effect="non-scaling-stroke" d="
  M 646.75 337.29
  L 231.75 337.29"
/>
<path stroke="#6c6c6c" vector-effect="non-scaling-stroke" d="
  M 510.56 159.69
  L 510.55 96.03
  A 0.50 0.50 0.0 0 1 511.05 95.53
  Q 621.06 95.45 731.06 95.54
  Q 741.04 95.55 743.12 104.18
  A 0.70 0.59 81.8 0 0 743.73 104.72
  L 749.10 104.63
  A 0.56 0.52 89.5 0 0 749.61 104.07
  L 749.72 44.79
  A 0.59 0.49 -89.5 0 0 749.24 44.20
  L 743.46 44.12
  A 0.73 0.58 -82.2 0 0 742.86 44.69
  C 741.31 51.44 733.21 51.89 727.50 51.89
  Q 581.16 52.00 434.81 52.00
  A 0.54 0.48 -1.0 0 0 434.27 52.50
  L 434.41 57.18
  A 0.50 0.46 -5.1 0 0 434.97 57.61
  C 445.37 56.33 445.98 63.19 445.98 71.58
  Q 446.02 186.70 445.99 301.82
  C 445.99 310.65 443.57 313.67 434.93 313.51
  A 0.56 0.49 1.1 0 0 434.36 313.99
  L 434.27 318.50
  A 0.53 0.49 0.5 0 0 434.80 319.00
  Q 583.00 319.00 731.21 319.01
  C 736.94 319.01 745.46 319.60 747.02 326.35
  A 0.71 0.56 81.5 0 0 747.61 326.90
  L 753.24 326.80
  A 0.59 0.51 89.5 0 0 753.74 326.21
  L 753.74 267.30
  A 0.58 0.49 90.0 0 0 753.25 266.72
  L 747.74 266.70
  A 0.74 0.58 -82.2 0 0 747.14 267.28
  C 745.07 276.35 735.21 275.45 728.00 275.45
  Q 619.54 275.52 511.06 275.48
  A 0.51 0.50 0.0 0 1 510.55 274.98
  L 510.54 204.53
  A 0.51 0.50 -90.0 0 1 511.04 204.02
  Q 582.84 203.97 654.64 204.01
  C 660.29 204.02 666.36 205.65 667.37 212.08
  A 0.66 0.57 85.8 0 0 667.93 212.64
  L 673.36 212.71
  A 0.63 0.58 -89.6 0 0 673.95 212.08
  L 673.96 151.43
  A 0.55 0.51 -89.5 0 0 673.46 150.88
  L 667.97 150.75
  A 0.58 0.54 -85.9 0 0 667.42 151.26
  C 666.66 157.54 661.60 160.20 655.75 160.21
  Q 583.41 160.31 511.06 160.19
  A 0.50 0.50 0.0 0 1 510.56 159.69"
/>
<path stroke="#686868" vector-effect="non-scaling-stroke" d="
  M 113.58 255.92
  Q 103.61 249.00 105.95 236.99
  A 0.64 0.59 -73.3 0 0 105.61 236.29
  L 99.27 233.48
  A 0.60 0.57 -62.6 0 0 98.54 233.73
  L 61.49 295.23
  A 0.43 0.38 -67.2 0 0 61.70 295.85
  L 67.25 297.02
  A 1.20 0.74 -52.5 0 0 68.12 296.69
  Q 72.00 293.21 76.68 294.80
  C 83.25 297.03 93.23 301.80 100.60 304.48
  Q 123.25 312.73 145.32 316.42
  Q 211.48 327.51 279.82 319.66
  C 323.03 314.69 396.78 295.27 399.28 239.76
  C 402.39 170.88 330.71 159.81 279.74 157.67
  Q 243.99 156.18 208.21 156.21
  C 196.31 156.22 185.87 155.66 174.69 154.75
  C 159.69 153.54 131.04 149.91 133.50 129.39
  C 137.23 98.20 193.97 93.56 216.47 92.29
  Q 255.41 90.09 293.72 98.14
  C 311.24 101.82 329.61 107.55 344.81 117.21
  Q 347.61 118.99 349.78 121.58
  A 1.15 1.01 -62.9 0 1 350.00 122.45
  L 349.30 126.95
  A 0.69 0.66 17.5 0 0 349.69 127.66
  L 355.92 130.58
  A 0.74 0.73 -61.3 0 0 356.86 130.30
  L 391.24 75.95
  A 0.42 0.42 22.9 0 0 390.98 75.32
  L 384.47 73.64
  A 1.01 0.97 -55.4 0 0 383.60 73.82
  C 379.97 76.63 376.45 76.55 371.96 74.94
  Q 354.14 68.54 343.74 65.25
  Q 274.41 43.32 202.20 49.72
  C 179.20 51.75 157.26 55.56 135.28 62.83
  C 96.98 75.49 61.87 102.75 69.90 148.25
  C 75.28 178.77 101.27 193.16 128.93 199.35
  C 153.44 204.83 178.95 206.44 204.00 206.90
  C 226.54 207.31 249.05 207.76 271.56 208.90
  Q 279.50 209.31 288.23 210.62
  C 303.81 212.95 327.54 217.08 330.96 235.96
  C 335.86 263.12 294.50 272.34 276.17 275.34
  C 240.60 281.17 203.11 280.44 168.52 274.92
  C 149.84 271.94 129.31 266.86 113.58 255.92"
/>
<path stroke="#717171" vector-effect="non-scaling-stroke" d="
  M 963.50 322.71
  C 1025.54 323.15 1087.92 307.65 1144.13 282.04
  A 1.07 0.99 -6.2 0 0 1144.72 281.36
  Q 1145.31 279.12 1144.93 276.62
  A 0.68 0.66 0.2 0 0 1144.35 276.06
  C 1135.20 274.78 1136.53 265.00 1136.90 256.44
  Q 1137.50 242.91 1136.73 200.09
  C 1136.62 193.75 1136.65 186.95 1143.27 183.93
  A 1.85 0.76 16.7 0 1 1144.21 183.84
  C 1146.44 184.06 1145.49 179.65 1145.29 178.49
  A 0.61 0.60 -5.1 0 0 1144.69 178.00
  Q 1069.80 178.01 994.92 177.99
  C 989.47 177.99 981.72 176.39 980.63 169.89
  A 0.62 0.55 85.1 0 0 980.08 169.36
  L 974.51 169.27
  A 0.54 0.49 -89.5 0 0 974.01 169.81
  L 974.01 233.44
  A 0.53 0.50 90.0 0 0 974.51 233.97
  L 980.11 233.91
  A 0.60 0.53 -87.5 0 0 980.63 233.37
  C 981.39 225.29 993.44 225.25 999.00 225.24
  Q 1035.41 225.18 1071.81 225.32
  A 0.50 0.49 0.0 0 1 1072.31 225.81
  L 1072.24 255.00
  A 0.87 0.86 -15.0 0 1 1071.80 255.75
  C 1039.14 273.86 1000.31 279.98 963.25 279.21"
/>
<path stroke="#6f6f6f" vector-effect="non-scaling-stroke" d="
  M 963.25 279.21
  C 903.44 278.06 834.33 250.51 838.02 178.95
  C 840.76 125.85 890.84 101.58 936.48 94.71
  Q 988.38 86.89 1038.96 100.50"
/>
<path stroke="#717171" vector-effect="non-scaling-stroke" d="
  M 1038.96 100.50
  C 1052.55 104.16 1072.68 111.13 1082.16 121.97
  Q 1083.95 124.01 1083.65 126.67
  L 1083.08 131.70
  A 0.80 0.72 -74.0 0 0 1083.46 132.47
  L 1089.06 135.32
  A 0.63 0.57 -57.8 0 0 1089.82 135.11
  L 1133.08 75.73
  A 0.43 0.38 -60.6 0 0 1132.94 75.10
  L 1127.44 73.09
  A 1.03 0.76 -49.2 0 0 1126.56 73.29
  C 1122.97 76.05 1119.06 77.56 1114.40 76.32
  C 1103.19 73.33 1092.14 68.82 1081.16 65.03
  C 1066.35 59.92 1051.83 56.86 1036.77 54.24"
/>
<path stroke="#6f6f6f" vector-effect="non-scaling-stroke" d="
  M 1036.77 54.24
  C 995.37 46.79 955.11 46.13 913.81 53.98
  C 837.84 68.43 761.21 115.95 774.76 205.77
  C 788.26 295.24 887.79 322.33 963.50 322.71"
/>
<path stroke="#e0e0e0" vector-effect="non-scaling-stroke" d="
  M 1036.77 54.24
  Q 1035.60 60.94 1035.80 67.63
  C 1036.10 77.92 1036.03 88.22 1035.98 98.52
  A 0.49 0.48 0.0 0 0 1036.47 99.00
  Q 1037.85 99.02 1039.07 99.61
  A 0.48 0.37 28.8 0 1 1039.33 100.20
  Q 1039.21 100.39 1038.96 100.50"
/>
<path stroke="#e0e0e0" vector-effect="non-scaling-stroke" d="
  M 963.25 279.21
  Q 962.66 279.67 962.82 280.30
  Q 963.02 281.08 963.02 281.26
  Q 962.79 300.54 963.08 319.84
  C 963.09 320.79 963.55 321.67 963.50 322.71"
/>
<path stroke="#747474" vector-effect="non-scaling-stroke" d="
  M 1247.95 313.50
  C 1236.29 312.75 1245.12 300.21 1247.67 295.92
  Q 1261.40 272.77 1274.55 249.21
  A 0.87 0.84 -74.7 0 1 1275.29 248.77
  L 1429.17 248.78
  A 0.90 0.87 74.3 0 1 1429.93 249.22
  Q 1444.25 274.05 1458.71 298.80
  C 1461.70 303.93 1469.11 313.73 1456.29 313.54
  A 0.51 0.48 0.6 0 0 1455.77 314.02
  L 1455.79 318.49
  A 0.53 0.50 0.0 0 0 1456.32 318.99
  L 1545.20 318.99
  A 0.64 0.63 6.2 0 0 1545.82 318.50
  Q 1546.32 316.31 1545.83 313.94
  A 0.57 0.56 -8.1 0 0 1545.23 313.50
  C 1534.76 314.39 1531.19 304.57 1526.71 296.79
  Q 1460.62 182.00 1394.51 67.22
  Q 1393.33 65.17 1393.46 61.99
  A 1.40 1.36 67.9 0 1 1393.82 61.11
  Q 1397.07 57.58 1402.08 57.58
  A 0.58 0.48 -0.5 0 0 1402.66 57.09
  L 1402.55 52.49
  A 0.61 0.49 -0.5 0 0 1401.94 52.01
  L 1304.56 52.01
  A 0.53 0.49 -0.5 0 0 1304.03 52.51
  L 1304.08 56.93
  A 0.60 0.55 2.4 0 0 1304.62 57.47
  C 1320.16 58.93 1310.31 70.98 1306.29 78.30
  Q 1245.00 190.12 1183.80 302.00
  C 1180.19 308.60 1176.03 313.58 1168.27 313.51
  A 0.62 0.59 6.2 0 0 1167.66 313.98
  Q 1167.19 316.20 1167.69 318.51
  A 0.62 0.60 -5.8 0 0 1168.29 318.99
  L 1247.93 318.99
  A 0.53 0.51 0.0 0 0 1248.46 318.48
  L 1248.47 314.03
  A 0.56 0.53 2.3 0 0 1247.95 313.50"
/>
<path stroke="#7c7c7c" vector-effect="non-scaling-stroke" d="
  M 1988.00 318.96
  L 2376.75 318.93"
/>
<path stroke="#7f7f7f" vector-effect="non-scaling-stroke" d="
  M 2376.75 318.93
  L 2507.48 318.95
  A 0.50 0.49 -89.4 0 0 2507.98 318.45
  L 2507.99 52.49
  A 0.48 0.48 90.0 0 0 2507.51 52.01
  L 2426.25 52.04"
/>
<path stroke="#7c7c7c" vector-effect="non-scaling-stroke" d="
  M 2426.25 52.04
  L 2037.75 52.04"
/>
<path stroke="#787878" vector-effect="non-scaling-stroke" d="
  M 2037.75 52.04
  L 1628.79 52.04
  A 0.50 0.50 0.0 0 0 1628.29 52.54
  L 1628.29 318.46
  A 0.51 0.50 0.0 0 0 1628.80 318.96
  L 1988.00 318.96"
/>
<path stroke="#f4f4f4" vector-effect="non-scaling-stroke" d="
  M 2037.75 52.04
  L 2037.67 52.22
  A 0.37 0.25 7.8 0 1 2037.36 52.37
  L 1987.05 52.36
  A 0.40 0.39 83.5 0 0 1986.67 52.85
  C 1987.80 58.03 1984.31 63.95 1987.87 68.16
  Q 1989.04 69.55 1989.29 71.35
  Q 1989.90 75.91 1988.15 77.76
  Q 1986.96 79.01 1987.01 80.73
  C 1987.06 82.45 1986.31 89.80 1986.99 91.13
  A 1.73 1.38 40.5 0 1 1987.17 92.06
  Q 1986.45 97.81 1987.01 103.57
  A 1.20 0.94 -30.9 0 1 1986.69 104.40
  Q 1986.26 104.87 1986.04 105.50"
/>
<path stroke="#787878" vector-effect="non-scaling-stroke" d="
  M 1986.04 105.50
  C 1912.26 119.23 1838.88 136.74 1768.68 163.67
  Q 1737.97 175.45 1710.98 190.50
  C 1696.71 198.45 1679.59 209.63 1670.23 223.26
  C 1639.99 267.34 1727.78 283.35 1751.03 286.81
  Q 1796.13 293.53 1841.75 294.19
  Q 1914.49 295.24 1986.96 288.75"
/>
<path stroke="#f4f4f4" vector-effect="non-scaling-stroke" d="
  M 1986.96 288.75
  Q 1987.98 289.49 1987.28 290.12
  A 1.20 0.71 -30.6 0 0 1986.85 290.90
  L 1986.93 316.69
  A 1.06 0.76 -23.8 0 1 1986.50 317.42
  Q 1986.09 317.73 1986.44 318.13
  A 1.26 0.44 -2.3 0 0 1987.32 318.40
  Q 1987.87 318.44 1988.00 318.96"
/>
<path stroke="#787878" vector-effect="non-scaling-stroke" d="
  M 1987.77 110.03
  C 1944.78 120.23 1901.67 135.06 1863.39 157.35
  C 1842.06 169.77 1804.75 197.45 1813.87 227.17
  C 1821.58 252.30 1858.23 265.60 1880.57 271.16
  C 1915.26 279.78 1951.08 282.63 1986.75 282.46"
/>
<path stroke="#fafafa" vector-effect="non-scaling-stroke" d="
  M 2426.25 52.04
  L 2378.63 52.22
  A 0.84 0.56 7.0 0 0 2377.91 52.58
  Q 2377.75 52.99 2378.47 53.06
  Q 2378.94 53.11 2378.49 53.24
  L 2377.78 53.45
  A 0.75 0.65 -6.8 0 0 2377.24 54.04
  C 2376.34 63.24 2376.83 73.18 2376.91 82.44
  A 0.46 0.43 -2.4 0 0 2377.41 82.87
  Q 2379.12 82.74 2380.50 83.71"
/>
<path stroke="#7c7c7c" vector-effect="non-scaling-stroke" d="
  M 2380.50 83.71
  Q 2343.69 78.84 2309.50 77.76
  C 2233.28 75.36 2155.50 80.84 2079.27 90.74
  C 2075.24 91.26 2076.11 94.91 2080.02 94.49
  C 2135.23 88.57 2193.29 88.57 2247.69 100.77
  C 2272.58 106.36 2324.56 123.70 2320.55 158.22
  C 2316.24 195.28 2245.34 221.16 2215.49 230.52
  Q 2169.32 244.99 2119.95 253.68
  A 0.79 0.78 67.1 0 1 2119.17 253.36
  Q 2115.32 247.98 2112.99 240.49
  C 2103.95 211.34 2098.11 181.06 2093.20 150.96
  A 1.43 1.22 -78.7 0 0 2092.74 150.14
  Q 2090.76 148.52 2089.06 150.43
  A 1.42 1.17 69.8 0 0 2088.75 151.31
  L 2088.75 274.99
  Q 2088.75 276.97 2090.72 276.70
  Q 2198.87 261.52 2303.75 231.21"
/>
<path stroke="#fafafa" vector-effect="non-scaling-stroke" d="
  M 2303.75 231.21
  L 2303.88 231.27
  A 0.22 0.18 14.7 0 1 2304.01 231.45
  L 2304.03 318.19
  A 0.50 0.50 0.0 0 0 2304.53 318.69
  L 2376.75 318.93"
/>
<path stroke="#7c7c7c" vector-effect="non-scaling-stroke" d="
  M 1986.96 288.75
  L 2047.70 282.24
  A 1.32 1.15 14.8 0 0 2048.53 281.83
  C 2049.98 280.18 2048.39 279.19 2046.77 279.34
  Q 2016.83 282.12 1986.75 282.46"
/>
<path stroke="#f4f4f4" vector-effect="non-scaling-stroke" d="
  M 1986.75 282.46
  Q 1986.30 281.87 1985.51 281.88
  Q 1985.16 281.88 1985.43 281.67
  L 1986.60 280.78
  A 1.08 0.89 73.2 0 0 1986.95 279.94
  C 1986.92 279.10 1985.72 253.63 1989.00 257.41
  A 0.49 0.43 -37.8 0 0 1989.63 257.45
  L 1991.75 255.92
  A 1.36 1.04 -16.4 0 0 1992.26 255.22
  Q 1992.48 254.36 1993.39 253.96
  A 0.94 0.83 -9.8 0 0 1993.92 253.30
  Q 1994.22 251.18 1995.36 249.47
  Q 1995.64 249.05 1995.78 249.54
  Q 1996.64 252.49 1997.41 249.25
  A 1.03 0.77 -87.6 0 1 1997.97 248.56
  L 2000.22 247.84
  A 1.74 1.17 0.3 0 0 2000.99 247.33
  Q 2002.44 245.46 2004.76 245.10
  A 0.72 0.70 -87.4 0 0 2005.34 244.55
  L 2005.87 242.28
  A 1.17 0.80 39.7 0 0 2005.63 241.44
  L 2004.22 239.53
  A 0.36 0.32 -20.0 0 1 2004.50 239.02
  C 2008.54 238.46 2007.60 236.07 2007.58 233.34
  Q 2007.36 195.68 2007.54 158.03
  C 2007.55 155.08 2007.89 152.78 2004.29 152.29
  A 1.43 1.20 -13.1 0 1 2003.46 151.87
  C 2000.26 148.26 1999.35 144.74 1993.51 145.50
  Q 1990.75 145.86 1990.44 143.01
  Q 1990.00 138.90 1988.18 135.20
  A 1.09 1.08 -47.4 0 1 1988.15 134.30
  C 1989.41 131.33 1988.32 129.50 1987.54 126.92
  C 1986.44 123.28 1987.03 118.40 1986.94 114.57
  Q 1986.91 113.08 1987.77 110.03"
/>
<path stroke="#7c7c7c" vector-effect="non-scaling-stroke" d="
  M 1987.77 110.03
  Q 2008.98 104.81 2031.34 100.97
  A 1.70 1.69 84.9 0 0 2032.75 99.27
  Q 2032.74 97.64 2030.75 97.97
  Q 2008.37 101.58 1986.04 105.50"
/>
<path stroke="#7f7f7f" vector-effect="non-scaling-stroke" d="
  M 2303.75 231.21
  C 2334.12 221.96 2490.76 173.23 2471.13 123.54
  C 2460.64 97.00 2404.71 87.56 2380.50 83.71"
/>
<path stroke="#747474" vector-effect="non-scaling-stroke" d="
  M 1296.40 206.13
  A 0.31 0.31 14.5 0 0 1296.67 206.59
  L 1402.46 206.40
  A 0.31 0.31 -14.6 0 0 1402.73 205.94
  L 1349.67 111.59
  A 0.31 0.31 44.9 0 0 1349.13 111.59
  L 1296.40 206.13"
/>
<path stroke="#dbdbdb" vector-effect="non-scaling-stroke" d="
  M 646.75 337.29
  Q 645.41 337.75 646.66 337.82
  Q 646.90 337.83 646.70 337.95
  Q 646.26 338.21 647.32 338.24
  Q 658.40 338.52 669.52 338.50
  A 1.65 1.64 3.3 0 1 671.16 340.33
  Q 670.17 349.12 670.22 357.99
  C 670.23 359.96 671.28 361.73 670.99 363.94
  C 670.72 366.03 670.84 367.40 670.82 369.27
  A 0.51 0.49 1.1 0 0 671.32 369.77
  C 696.39 370.28 717.70 369.74 746.50 370.21"
/>
<path stroke="#c9c4c8" vector-effect="non-scaling-stroke" d="
  M 746.50 370.21
  L 604.50 370.21"
/>
<path stroke="#e0e0e0" vector-effect="non-scaling-stroke" d="
  M 1012.75 337.29
  L 1012.89 338.00
  A 0.61 0.59 84.7 0 0 1013.47 338.50
  L 1034.52 338.51
  A 1.51 1.50 -89.6 0 1 1036.02 340.04
  C 1035.94 345.30 1035.42 351.44 1037.47 356.48
  C 1039.01 360.28 1039.24 362.74 1037.25 366.04
  A 1.33 0.96 -43.0 0 0 1037.07 366.95
  Q 1037.38 368.12 1038.45 368.88
  Q 1039.33 369.50 1042.51 369.56
  L 1074.50 370.21"
/>
<path stroke="#cdc7cb" vector-effect="non-scaling-stroke" d="
  M 1074.50 370.21
  L 746.50 370.21"
/>
<path stroke="#e5e5e5" vector-effect="non-scaling-stroke" d="
  M 1184.00 337.29
  Q 1184.51 339.06 1183.47 339.97
  A 1.23 0.85 -26.4 0 0 1183.04 340.75
  C 1182.97 342.61 1183.10 344.11 1182.63 346.03
  C 1181.57 350.32 1182.13 355.61 1181.99 359.66
  C 1181.94 361.00 1182.78 362.12 1182.73 363.65
  Q 1182.64 366.25 1183.19 368.82
  A 0.25 0.23 -25.6 0 0 1183.58 368.94
  Q 1184.06 368.60 1184.08 369.24
  A 0.47 0.45 89.3 0 0 1184.52 369.69
  L 1210.50 370.23"
/>
<path stroke="#cfc9cd" vector-effect="non-scaling-stroke" d="
  M 1210.50 370.23
  L 1074.50 370.21"
/>
<path stroke="#ececec" vector-effect="non-scaling-stroke" d="
  M 1475.75 337.29
  Q 1476.08 337.58 1476.22 338.01
  A 0.70 0.59 79.2 0 0 1476.81 338.49
  L 1522.76 338.50
  A 1.25 1.25 -89.3 0 1 1524.01 339.78
  Q 1523.84 346.64 1524.49 353.99
  C 1524.87 358.29 1529.39 359.22 1525.14 364.45
  Q 1523.65 366.28 1525.09 368.68
  A 0.59 0.43 -18.0 0 0 1525.66 368.87
  L 1526.02 368.80
  A 0.63 0.46 75.6 0 1 1526.60 369.28
  Q 1526.94 370.53 1528.75 370.46"
/>
<path stroke="#f0f0f0" vector-effect="non-scaling-stroke" d="
  M 1528.75 370.46
  L 1527.00 370.46"
/>
<path stroke="#d2ccd0" vector-effect="non-scaling-stroke" d="
  M 1527.00 370.46
  L 1526.97 370.38
  A 0.12 0.12 -11.0 0 0 1526.86 370.31
  L 1210.50 370.23"
/>
<path stroke="#e0e0e0" vector-effect="non-scaling-stroke" d="
  M 2109.50 370.21
  L 1697.41 370.44
  Q 1697.31 370.44 1697.41 370.49
  L 1697.50 370.54"
/>
<path stroke="#f4f4f4" vector-effect="non-scaling-stroke" d="
  M 1697.50 370.54
  L 1624.75 370.71"
/>
<path stroke="#e4e4e4" vector-effect="non-scaling-stroke" d="
  M 1624.75 370.71
  L 1624.75 370.48
  A 0.28 0.21 -1.0 0 0 1624.47 370.28
  L 1535.81 370.28
  Q 1535.13 370.28 1535.76 370.47
  Q 1536.24 370.61 1536.75 370.54"
/>
<path stroke="#f4f4f4" vector-effect="non-scaling-stroke" d="
  M 1536.75 370.54
  L 1528.75 370.46"
/>
<path stroke="#e6e6e6" vector-effect="non-scaling-stroke" d="
  M 2528.19 371.00
  Q 2503.56 370.37 2478.94 371.00"
/>
<path stroke="#e3e3e3" vector-effect="non-scaling-stroke" d="
  M 2477.69 371.00
  Q 2477.77 370.74 2477.50 370.74
  Q 2087.94 370.75 1698.37 370.75
  A 0.84 0.23 38.9 0 1 1697.87 370.53
  Q 1697.70 370.42 1697.50 370.54"
/>
<path stroke="#948892" vector-effect="non-scaling-stroke" d="
  M 322.75 370.41
  L 322.75 370.71"
/>
<path stroke="#c2bec2" vector-effect="non-scaling-stroke" d="
  M 322.75 370.71
  L 74.75 370.71"
/>
<path stroke="#aa9ea7" vector-effect="non-scaling-stroke" d="
  M 524.00 370.54
  L 524.00 370.71"
/>
<path stroke="#c9c2c7" vector-effect="non-scaling-stroke" d="
  M 524.00 370.71
  L 322.75 370.71"
/>
<path stroke="#d9d4d8" vector-effect="non-scaling-stroke" d="
  M 1527.00 370.46
  C 1484.84 371.34 1431.48 370.53 1346.94 370.50
  C 1072.63 370.41 798.31 370.60 524.00 370.71"
/>
<path stroke="#e7e7e7" vector-effect="non-scaling-stroke" d="
  M 1624.75 370.71
  L 1536.75 370.54"
/>
</g>
<path fill="#fdfdfd" d="
  M 0.00 0.00
  L 2560.00 0.00
  L 2560.00 371.00
  L 2531.94 371.00
  Q 2545.48 370.51 2559.04 370.82
  C 2559.29 370.82 2560.25 370.23 2559.28 370.23
  Q 2334.39 370.30 2109.50 370.21
  C 2109.06 368.27 2115.91 370.56 2112.74 365.89
  A 1.35 1.33 31.5 0 1 2112.51 364.97
  C 2113.14 359.75 2110.82 355.69 2110.08 351.80
  Q 2108.90 345.61 2108.91 339.74
  A 1.25 1.24 0.2 0 0 2107.66 338.49
  Q 2072.97 338.53 2038.93 338.47
  Q 2037.01 338.46 2037.00 337.29
  Q 2250.09 337.23 2463.19 337.24
  C 2484.05 337.24 2504.86 336.79 2525.75 337.17
  A 0.49 0.49 -90.0 0 0 2526.24 336.68
  L 2526.25 34.24
  A 0.56 0.56 -0.5 0 0 2525.68 33.68
  C 2451.84 34.55 2377.86 33.74 2304.00 33.71
  Q 2304.69 30.48 2302.82 28.11
  A 1.71 1.09 34.3 0 1 2302.45 27.24
  Q 2302.36 25.25 2303.69 23.59
  A 1.46 1.30 -27.9 0 0 2304.02 22.71
  L 2303.98 2.26
  A 0.51 0.49 0.0 0 0 2303.47 1.77
  Q 2298.93 1.74 2294.41 1.53
  C 2289.85 1.31 2284.70 1.96 2279.75 1.56
  C 2279.00 1.50 2278.52 1.09 2279.75 0.79
  C 2303.97 0.78 2558.64 1.52 2559.34 0.55
  Q 2559.54 0.26 2559.13 0.26
  L 2200.50 0.29
  Q 1100.84 0.22 1.19 0.25
  C 0.35 0.25 0.00 0.70 0.29 1.50
  L 0.00 1.94
  L 0.00 0.00
  Z"
/>
<path fill="#bcbdbc" d="
  M 2200.50 0.29
  L 2200.75 0.71
  L 1937.75 0.75
  L 1480.75 0.79
  L 1152.00 0.79
  L 972.00 0.79
  L 732.00 0.79
  L 480.00 0.79
  L 2.00 0.75
  A 1.77 1.73 28.6 0 0 1.08 1.01
  L 0.29 1.50
  C 0.00 0.70 0.35 0.25 1.19 0.25
  Q 1100.84 0.22 2200.50 0.29
  Z"
/>
<path fill="#d7d7d7" d="
  M 2200.50 0.29
  L 2559.13 0.26
  Q 2559.54 0.26 2559.34 0.55
  C 2558.64 1.52 2303.97 0.78 2279.75 0.79
  L 2200.75 0.71
  L 2200.50 0.29
  Z"
/>
<path fill="#cfcfcf" d="
  M 480.00 0.79
  L 452.99 0.95
  Q 452.49 0.95 452.06 1.19
  Q 450.84 1.87 450.25 1.86
  Q 426.88 1.31 403.72 1.81
  Q 401.70 1.85 401.71 3.91
  L 401.80 32.31
  A 0.69 0.68 90.0 0 0 402.48 33.00
  L 449.56 33.04
  A 1.83 1.57 57.5 0 1 450.48 33.32
  Q 451.30 33.83 451.75 33.82
  Q 466.26 33.54 480.75 33.96
  Q 402.76 34.04 324.77 33.99
  C 279.73 33.95 234.62 34.22 189.56 33.86
  C 137.89 33.44 86.26 34.21 34.51 33.72
  A 0.75 0.75 0.0 0 0 33.76 34.47
  L 33.77 336.71
  A 0.51 0.50 0.6 0 0 34.27 337.21
  Q 151.05 337.36 208.18 337.20
  Q 225.16 337.15 231.75 337.29
  Q 231.62 337.45 231.41 337.52
  Q 231.13 337.63 231.41 337.67
  Q 232.27 337.78 234.56 337.80
  Q 257.68 337.98 280.80 337.78
  A 0.29 0.24 -84.2 0 1 281.03 338.13
  Q 280.95 338.50 281.50 338.50
  Q 304.50 338.49 327.41 338.51
  A 1.38 1.37 -0.6 0 1 328.79 339.85
  Q 329.06 350.44 329.00 360.18
  C 328.99 363.05 328.66 366.09 328.79 368.58
  A 1.48 1.48 88.6 0 0 330.27 369.99
  C 422.16 370.02 513.46 368.97 604.50 370.21
  L 524.51 370.31
  Q 524.42 370.31 524.17 370.45
  L 524.00 370.54
  Q 523.67 370.57 523.40 370.50
  Q 522.60 370.33 522.44 370.33
  L 322.75 370.41
  C 239.94 370.24 157.13 370.37 74.32 370.36
  Q 74.08 370.36 74.30 370.48
  L 74.75 370.71
  L 27.44 371.00
  L 25.19 371.00
  L 1.01 370.74
  A 0.60 0.58 -4.5 0 1 0.42 370.25
  L 0.00 367.69
  L 0.00 1.94
  L 0.29 1.50
  L 1.08 1.01
  A 1.77 1.73 28.6 0 1 2.00 0.75
  L 480.00 0.79
  Z"
/>
<path fill="#d7d7d7" d="
  M 480.00 0.79
  L 732.00 0.79
  L 720.22 0.95
  A 1.12 1.03 -0.3 0 0 719.11 1.98
  L 719.14 32.64
  A 0.50 0.47 -1.2 0 0 719.66 33.11
  Q 727.73 32.84 735.76 33.75
  C 650.79 34.53 565.74 34.03 480.75 33.96
  Q 466.26 33.54 451.75 33.82
  Q 451.30 33.83 450.48 33.32
  A 1.83 1.57 57.5 0 0 449.56 33.04
  L 402.48 33.00
  A 0.69 0.68 90.0 0 1 401.80 32.31
  L 401.71 3.91
  Q 401.70 1.85 403.72 1.81
  Q 426.88 1.31 450.25 1.86
  Q 450.84 1.87 452.06 1.19
  Q 452.49 0.95 452.99 0.95
  L 480.00 0.79
  Z"
/>
<path fill="#dedede" d="
  M 732.00 0.79
  L 972.00 0.79
  L 964.14 0.97
  A 0.55 0.50 -2.1 0 0 963.60 1.50
  Q 963.62 1.95 963.39 2.21
  A 1.29 0.42 -44.1 0 0 962.98 2.99
  L 962.95 32.91
  A 0.45 0.45 -2.9 0 0 963.45 33.36
  Q 969.64 32.82 975.76 33.97
  Q 939.52 33.63 903.31 33.82
  C 847.45 34.10 791.62 33.82 735.76 33.75
  Q 727.73 32.84 719.66 33.11
  A 0.50 0.47 -1.2 0 1 719.14 32.64
  L 719.11 1.98
  A 1.12 1.03 -0.3 0 1 720.22 0.95
  L 732.00 0.79
  Z"
/>
<path fill="#e2e2e2" d="
  M 972.00 0.79
  L 1152.00 0.79
  C 1146.19 1.17 1140.13 0.33 1134.52 2.01
  A 0.70 0.67 82.6 0 0 1134.04 2.66
  C 1133.96 16.79 1134.27 26.29 1134.01 32.40
  A 0.51 0.47 -87.0 0 0 1134.45 32.93
  C 1149.05 34.00 1163.49 32.76 1180.43 33.07
  C 1182.22 33.10 1183.80 33.83 1185.63 33.80
  Q 1199.20 33.56 1212.75 33.96
  Q 1116.53 34.14 1020.32 33.85
  C 1006.61 33.80 990.62 34.13 975.76 33.97
  Q 969.64 32.82 963.45 33.36
  A 0.45 0.45 -2.9 0 1 962.95 32.91
  L 962.98 2.99
  A 1.29 0.42 -44.1 0 1 963.39 2.21
  Q 963.62 1.95 963.60 1.50
  A 0.55 0.50 -2.1 0 1 964.14 0.97
  L 972.00 0.79
  Z"
/>
<path fill="#e8e8e8" d="
  M 1152.00 0.79
  L 1480.75 0.79
  L 1483.81 1.03
  A 0.73 0.44 -0.6 0 1 1484.44 1.40
  C 1484.56 1.93 1483.43 1.50 1482.92 1.49
  Q 1479.17 1.38 1475.56 2.16
  A 0.63 0.60 84.4 0 0 1475.08 2.77
  L 1474.98 30.69
  A 1.65 0.68 46.2 0 0 1475.32 31.56
  Q 1475.59 31.95 1475.19 32.18
  A 0.54 0.34 -27.6 0 0 1474.87 32.73
  C 1475.19 33.41 1556.14 33.18 1569.95 32.92
  C 1571.23 32.89 1572.85 33.76 1574.00 33.75
  Q 1584.12 33.72 1594.25 33.79
  C 1528.85 34.21 1463.47 33.63 1398.08 33.72
  Q 1305.42 33.84 1212.75 33.96
  Q 1199.20 33.56 1185.63 33.80
  C 1183.80 33.83 1182.22 33.10 1180.43 33.07
  C 1163.49 32.76 1149.05 34.00 1134.45 32.93
  A 0.51 0.47 -87.0 0 1 1134.01 32.40
  C 1134.27 26.29 1133.96 16.79 1134.04 2.66
  A 0.70 0.67 82.6 0 1 1134.52 2.01
  C 1140.13 0.33 1146.19 1.17 1152.00 0.79
  Z"
/>
<path fill="#f0f0f0" d="
  M 1480.75 0.79
  L 1937.75 0.75
  Q 1939.05 2.04 1938.03 3.89
  Q 1937.78 4.33 1937.78 4.81
  L 1937.82 31.59
  A 1.32 0.46 -44.1 0 1 1937.43 32.37
  Q 1937.26 32.57 1937.22 32.83
  A 0.51 0.41 5.5 0 0 1937.72 33.32
  L 1947.50 33.71
  L 1594.25 33.79
  Q 1584.12 33.72 1574.00 33.75
  C 1572.85 33.76 1571.23 32.89 1569.95 32.92
  C 1556.14 33.18 1475.19 33.41 1474.87 32.73
  A 0.54 0.34 -27.6 0 1 1475.19 32.18
  Q 1475.59 31.95 1475.32 31.56
  A 1.65 0.68 46.2 0 1 1474.98 30.69
  L 1475.08 2.77
  A 0.63 0.60 84.4 0 1 1475.56 2.16
  Q 1479.17 1.38 1482.92 1.49
  C 1483.43 1.50 1484.56 1.93 1484.44 1.40
  A 0.73 0.44 -0.6 0 0 1483.81 1.03
  L 1480.75 0.79
  Z"
/>
<path fill="#f7f7f7" d="
  M 1937.75 0.75
  L 2200.75 0.71
  L 2279.75 0.79
  C 2278.52 1.09 2279.00 1.50 2279.75 1.56
  C 2284.70 1.96 2289.85 1.31 2294.41 1.53
  Q 2298.93 1.74 2303.47 1.77
  A 0.51 0.49 0.0 0 1 2303.98 2.26
  L 2304.02 22.71
  A 1.46 1.30 -27.9 0 1 2303.69 23.59
  Q 2302.36 25.25 2302.45 27.24
  A 1.71 1.09 34.3 0 0 2302.82 28.11
  Q 2304.69 30.48 2304.00 33.71
  L 1947.50 33.71
  L 1937.72 33.32
  A 0.51 0.41 5.5 0 1 1937.22 32.83
  Q 1937.26 32.57 1937.43 32.37
  A 1.32 0.46 -44.1 0 0 1937.82 31.59
  L 1937.78 4.81
  Q 1937.78 4.33 1938.03 3.89
  Q 1939.05 2.04 1937.75 0.75
  Z"
/>
<path fill="#000000" d="
  M 480.75 33.96
  C 565.74 34.03 650.79 34.53 735.76 33.75
  C 791.62 33.82 847.45 34.10 903.31 33.82
  Q 939.52 33.63 975.76 33.97
  C 990.62 34.13 1006.61 33.80 1020.32 33.85
  Q 1116.53 34.14 1212.75 33.96
  Q 1305.42 33.84 1398.08 33.72
  C 1463.47 33.63 1528.85 34.21 1594.25 33.79
  L 1947.50 33.71
  L 2304.00 33.71
  C 2377.86 33.74 2451.84 34.55 2525.68 33.68
  A 0.56 0.56 -0.5 0 1 2526.25 34.24
  L 2526.24 336.68
  A 0.49 0.49 -90.0 0 1 2525.75 337.17
  C 2504.86 336.79 2484.05 337.24 2463.19 337.24
  Q 2250.09 337.23 2037.00 337.29
  L 1475.75 337.29
  L 1184.00 337.29
  L 1012.75 337.29
  L 646.75 337.29
  L 231.75 337.29
  Q 225.16 337.15 208.18 337.20
  Q 151.05 337.36 34.27 337.21
  A 0.51 0.50 0.6 0 1 33.77 336.71
  L 33.76 34.47
  A 0.75 0.75 0.0 0 1 34.51 33.72
  C 86.26 34.21 137.89 33.44 189.56 33.86
  C 234.62 34.22 279.73 33.95 324.77 33.99
  Q 402.76 34.04 480.75 33.96
  Z
  M 510.56 159.69
  L 510.55 96.03
  A 0.50 0.50 0.0 0 1 511.05 95.53
  Q 621.06 95.45 731.06 95.54
  Q 741.04 95.55 743.12 104.18
  A 0.70 0.59 81.8 0 0 743.73 104.72
  L 749.10 104.63
  A 0.56 0.52 89.5 0 0 749.61 104.07
  L 749.72 44.79
  A 0.59 0.49 -89.5 0 0 749.24 44.20
  L 743.46 44.12
  A 0.73 0.58 -82.2 0 0 742.86 44.69
  C 741.31 51.44 733.21 51.89 727.50 51.89
  Q 581.16 52.00 434.81 52.00
  A 0.54 0.48 -1.0 0 0 434.27 52.50
  L 434.41 57.18
  A 0.50 0.46 -5.1 0 0 434.97 57.61
  C 445.37 56.33 445.98 63.19 445.98 71.58
  Q 446.02 186.70 445.99 301.82
  C 445.99 310.65 443.57 313.67 434.93 313.51
  A 0.56 0.49 1.1 0 0 434.36 313.99
  L 434.27 318.50
  A 0.53 0.49 0.5 0 0 434.80 319.00
  Q 583.00 319.00 731.21 319.01
  C 736.94 319.01 745.46 319.60 747.02 326.35
  A 0.71 0.56 81.5 0 0 747.61 326.90
  L 753.24 326.80
  A 0.59 0.51 89.5 0 0 753.74 326.21
  L 753.74 267.30
  A 0.58 0.49 90.0 0 0 753.25 266.72
  L 747.74 266.70
  A 0.74 0.58 -82.2 0 0 747.14 267.28
  C 745.07 276.35 735.21 275.45 728.00 275.45
  Q 619.54 275.52 511.06 275.48
  A 0.51 0.50 0.0 0 1 510.55 274.98
  L 510.54 204.53
  A 0.51 0.50 -90.0 0 1 511.04 204.02
  Q 582.84 203.97 654.64 204.01
  C 660.29 204.02 666.36 205.65 667.37 212.08
  A 0.66 0.57 85.8 0 0 667.93 212.64
  L 673.36 212.71
  A 0.63 0.58 -89.6 0 0 673.95 212.08
  L 673.96 151.43
  A 0.55 0.51 -89.5 0 0 673.46 150.88
  L 667.97 150.75
  A 0.58 0.54 -85.9 0 0 667.42 151.26
  C 666.66 157.54 661.60 160.20 655.75 160.21
  Q 583.41 160.31 511.06 160.19
  A 0.50 0.50 0.0 0 1 510.56 159.69
  Z
  M 113.58 255.92
  Q 103.61 249.00 105.95 236.99
  A 0.64 0.59 -73.3 0 0 105.61 236.29
  L 99.27 233.48
  A 0.60 0.57 -62.6 0 0 98.54 233.73
  L 61.49 295.23
  A 0.43 0.38 -67.2 0 0 61.70 295.85
  L 67.25 297.02
  A 1.20 0.74 -52.5 0 0 68.12 296.69
  Q 72.00 293.21 76.68 294.80
  C 83.25 297.03 93.23 301.80 100.60 304.48
  Q 123.25 312.73 145.32 316.42
  Q 211.48 327.51 279.82 319.66
  C 323.03 314.69 396.78 295.27 399.28 239.76
  C 402.39 170.88 330.71 159.81 279.74 157.67
  Q 243.99 156.18 208.21 156.21
  C 196.31 156.22 185.87 155.66 174.69 154.75
  C 159.69 153.54 131.04 149.91 133.50 129.39
  C 137.23 98.20 193.97 93.56 216.47 92.29
  Q 255.41 90.09 293.72 98.14
  C 311.24 101.82 329.61 107.55 344.81 117.21
  Q 347.61 118.99 349.78 121.58
  A 1.15 1.01 -62.9 0 1 350.00 122.45
  L 349.30 126.95
  A 0.69 0.66 17.5 0 0 349.69 127.66
  L 355.92 130.58
  A 0.74 0.73 -61.3 0 0 356.86 130.30
  L 391.24 75.95
  A 0.42 0.42 22.9 0 0 390.98 75.32
  L 384.47 73.64
  A 1.01 0.97 -55.4 0 0 383.60 73.82
  C 379.97 76.63 376.45 76.55 371.96 74.94
  Q 354.14 68.54 343.74 65.25
  Q 274.41 43.32 202.20 49.72
  C 179.20 51.75 157.26 55.56 135.28 62.83
  C 96.98 75.49 61.87 102.75 69.90 148.25
  C 75.28 178.77 101.27 193.16 128.93 199.35
  C 153.44 204.83 178.95 206.44 204.00 206.90
  C 226.54 207.31 249.05 207.76 271.56 208.90
  Q 279.50 209.31 288.23 210.62
  C 303.81 212.95 327.54 217.08 330.96 235.96
  C 335.86 263.12 294.50 272.34 276.17 275.34
  C 240.60 281.17 203.11 280.44 168.52 274.92
  C 149.84 271.94 129.31 266.86 113.58 255.92
  Z
  M 963.50 322.71
  C 1025.54 323.15 1087.92 307.65 1144.13 282.04
  A 1.07 0.99 -6.2 0 0 1144.72 281.36
  Q 1145.31 279.12 1144.93 276.62
  A 0.68 0.66 0.2 0 0 1144.35 276.06
  C 1135.20 274.78 1136.53 265.00 1136.90 256.44
  Q 1137.50 242.91 1136.73 200.09
  C 1136.62 193.75 1136.65 186.95 1143.27 183.93
  A 1.85 0.76 16.7 0 1 1144.21 183.84
  C 1146.44 184.06 1145.49 179.65 1145.29 178.49
  A 0.61 0.60 -5.1 0 0 1144.69 178.00
  Q 1069.80 178.01 994.92 177.99
  C 989.47 177.99 981.72 176.39 980.63 169.89
  A 0.62 0.55 85.1 0 0 980.08 169.36
  L 974.51 169.27
  A 0.54 0.49 -89.5 0 0 974.01 169.81
  L 974.01 233.44
  A 0.53 0.50 90.0 0 0 974.51 233.97
  L 980.11 233.91
  A 0.60 0.53 -87.5 0 0 980.63 233.37
  C 981.39 225.29 993.44 225.25 999.00 225.24
  Q 1035.41 225.18 1071.81 225.32
  A 0.50 0.49 0.0 0 1 1072.31 225.81
  L 1072.24 255.00
  A 0.87 0.86 -15.0 0 1 1071.80 255.75
  C 1039.14 273.86 1000.31 279.98 963.25 279.21
  C 903.44 278.06 834.33 250.51 838.02 178.95
  C 840.76 125.85 890.84 101.58 936.48 94.71
  Q 988.38 86.89 1038.96 100.50
  C 1052.55 104.16 1072.68 111.13 1082.16 121.97
  Q 1083.95 124.01 1083.65 126.67
  L 1083.08 131.70
  A 0.80 0.72 -74.0 0 0 1083.46 132.47
  L 1089.06 135.32
  A 0.63 0.57 -57.8 0 0 1089.82 135.11
  L 1133.08 75.73
  A 0.43 0.38 -60.6 0 0 1132.94 75.10
  L 1127.44 73.09
  A 1.03 0.76 -49.2 0 0 1126.56 73.29
  C 1122.97 76.05 1119.06 77.56 1114.40 76.32
  C 1103.19 73.33 1092.14 68.82 1081.16 65.03
  C 1066.35 59.92 1051.83 56.86 1036.77 54.24
  C 995.37 46.79 955.11 46.13 913.81 53.98
  C 837.84 68.43 761.21 115.95 774.76 205.77
  C 788.26 295.24 887.79 322.33 963.50 322.71
  Z
  M 1247.95 313.50
  C 1236.29 312.75 1245.12 300.21 1247.67 295.92
  Q 1261.40 272.77 1274.55 249.21
  A 0.87 0.84 -74.7 0 1 1275.29 248.77
  L 1429.17 248.78
  A 0.90 0.87 74.3 0 1 1429.93 249.22
  Q 1444.25 274.05 1458.71 298.80
  C 1461.70 303.93 1469.11 313.73 1456.29 313.54
  A 0.51 0.48 0.6 0 0 1455.77 314.02
  L 1455.79 318.49
  A 0.53 0.50 0.0 0 0 1456.32 318.99
  L 1545.20 318.99
  A 0.64 0.63 6.2 0 0 1545.82 318.50
  Q 1546.32 316.31 1545.83 313.94
  A 0.57 0.56 -8.1 0 0 1545.23 313.50
  C 1534.76 314.39 1531.19 304.57 1526.71 296.79
  Q 1460.62 182.00 1394.51 67.22
  Q 1393.33 65.17 1393.46 61.99
  A 1.40 1.36 67.9 0 1 1393.82 61.11
  Q 1397.07 57.58 1402.08 57.58
  A 0.58 0.48 -0.5 0 0 1402.66 57.09
  L 1402.55 52.49
  A 0.61 0.49 -0.5 0 0 1401.94 52.01
  L 1304.56 52.01
  A 0.53 0.49 -0.5 0 0 1304.03 52.51
  L 1304.08 56.93
  A 0.60 0.55 2.4 0 0 1304.62 57.47
  C 1320.16 58.93 1310.31 70.98 1306.29 78.30
  Q 1245.00 190.12 1183.80 302.00
  C 1180.19 308.60 1176.03 313.58 1168.27 313.51
  A 0.62 0.59 6.2 0 0 1167.66 313.98
  Q 1167.19 316.20 1167.69 318.51
  A 0.62 0.60 -5.8 0 0 1168.29 318.99
  L 1247.93 318.99
  A 0.53 0.51 0.0 0 0 1248.46 318.48
  L 1248.47 314.03
  A 0.56 0.53 2.3 0 0 1247.95 313.50
  Z
  M 1988.00 318.96
  L 2376.75 318.93
  L 2507.48 318.95
  A 0.50 0.49 -89.4 0 0 2507.98 318.45
  L 2507.99 52.49
  A 0.48 0.48 90.0 0 0 2507.51 52.01
  L 2426.25 52.04
  L 2037.75 52.04
  L 1628.79 52.04
  A 0.50 0.50 0.0 0 0 1628.29 52.54
  L 1628.29 318.46
  A 0.51 0.50 0.0 0 0 1628.80 318.96
  L 1988.00 318.96
  Z"
/>
<path fill="#d7d7d7" d="
  M 511.06 160.19
  Q 583.41 160.31 655.75 160.21
  C 661.60 160.20 666.66 157.54 667.42 151.26
  A 0.58 0.54 -85.9 0 1 667.97 150.75
  L 673.46 150.88
  A 0.55 0.51 -89.5 0 1 673.96 151.43
  L 673.95 212.08
  A 0.63 0.58 -89.6 0 1 673.36 212.71
  L 667.93 212.64
  A 0.66 0.57 85.8 0 1 667.37 212.08
  C 666.36 205.65 660.29 204.02 654.64 204.01
  Q 582.84 203.97 511.04 204.02
  A 0.51 0.50 -90.0 0 0 510.54 204.53
  L 510.55 274.98
  A 0.51 0.50 0.0 0 0 511.06 275.48
  Q 619.54 275.52 728.00 275.45
  C 735.21 275.45 745.07 276.35 747.14 267.28
  A 0.74 0.58 -82.2 0 1 747.74 266.70
  L 753.25 266.72
  A 0.58 0.49 90.0 0 1 753.74 267.30
  L 753.74 326.21
  A 0.59 0.51 89.5 0 1 753.24 326.80
  L 747.61 326.90
  A 0.71 0.56 81.5 0 1 747.02 326.35
  C 745.46 319.60 736.94 319.01 731.21 319.01
  Q 583.00 319.00 434.80 319.00
  A 0.53 0.49 0.5 0 1 434.27 318.50
  L 434.36 313.99
  A 0.56 0.49 1.1 0 1 434.93 313.51
  C 443.57 313.67 445.99 310.65 445.99 301.82
  Q 446.02 186.70 445.98 71.58
  C 445.98 63.19 445.37 56.33 434.97 57.61
  A 0.50 0.46 -5.1 0 1 434.41 57.18
  L 434.27 52.50
  A 0.54 0.48 -1.0 0 1 434.81 52.00
  Q 581.16 52.00 727.50 51.89
  C 733.21 51.89 741.31 51.44 742.86 44.69
  A 0.73 0.58 -82.2 0 1 743.46 44.12
  L 749.24 44.20
  A 0.59 0.49 -89.5 0 1 749.72 44.79
  L 749.61 104.07
  A 0.56 0.52 89.5 0 1 749.10 104.63
  L 743.73 104.72
  A 0.70 0.59 81.8 0 1 743.12 104.18
  Q 741.04 95.55 731.06 95.54
  Q 621.06 95.45 511.05 95.53
  A 0.50 0.50 0.0 0 0 510.55 96.03
  L 510.56 159.69
  A 0.50 0.50 0.0 0 0 511.06 160.19
  Z"
/>
<path fill="#cfcfcf" d="
  M 113.58 255.92
  C 129.31 266.86 149.84 271.94 168.52 274.92
  C 203.11 280.44 240.60 281.17 276.17 275.34
  C 294.50 272.34 335.86 263.12 330.96 235.96
  C 327.54 217.08 303.81 212.95 288.23 210.62
  Q 279.50 209.31 271.56 208.90
  C 249.05 207.76 226.54 207.31 204.00 206.90
  C 178.95 206.44 153.44 204.83 128.93 199.35
  C 101.27 193.16 75.28 178.77 69.90 148.25
  C 61.87 102.75 96.98 75.49 135.28 62.83
  C 157.26 55.56 179.20 51.75 202.20 49.72
  Q 274.41 43.32 343.74 65.25
  Q 354.14 68.54 371.96 74.94
  C 376.45 76.55 379.97 76.63 383.60 73.82
  A 1.01 0.97 -55.4 0 1 384.47 73.64
  L 390.98 75.32
  A 0.42 0.42 22.9 0 1 391.24 75.95
  L 356.86 130.30
  A 0.74 0.73 -61.3 0 1 355.92 130.58
  L 349.69 127.66
  A 0.69 0.66 17.5 0 1 349.30 126.95
  L 350.00 122.45
  A 1.15 1.01 -62.9 0 0 349.78 121.58
  Q 347.61 118.99 344.81 117.21
  C 329.61 107.55 311.24 101.82 293.72 98.14
  Q 255.41 90.09 216.47 92.29
  C 193.97 93.56 137.23 98.20 133.50 129.39
  C 131.04 149.91 159.69 153.54 174.69 154.75
  C 185.87 155.66 196.31 156.22 208.21 156.21
  Q 243.99 156.18 279.74 157.67
  C 330.71 159.81 402.39 170.88 399.28 239.76
  C 396.78 295.27 323.03 314.69 279.82 319.66
  Q 211.48 327.51 145.32 316.42
  Q 123.25 312.73 100.60 304.48
  C 93.23 301.80 83.25 297.03 76.68 294.80
  Q 72.00 293.21 68.12 296.69
  A 1.20 0.74 -52.5 0 1 67.25 297.02
  L 61.70 295.85
  A 0.43 0.38 -67.2 0 1 61.49 295.23
  L 98.54 233.73
  A 0.60 0.57 -62.6 0 1 99.27 233.48
  L 105.61 236.29
  A 0.64 0.59 -73.3 0 1 105.95 236.99
  Q 103.61 249.00 113.58 255.92
  Z"
/>
<path fill="#dedede" d="
  M 1036.77 54.24
  Q 1035.60 60.94 1035.80 67.63
  C 1036.10 77.92 1036.03 88.22 1035.98 98.52
  A 0.49 0.48 0.0 0 0 1036.47 99.00
  Q 1037.85 99.02 1039.07 99.61
  A 0.48 0.37 28.8 0 1 1039.33 100.20
  Q 1039.21 100.39 1038.96 100.50
  Q 988.38 86.89 936.48 94.71
  C 890.84 101.58 840.76 125.85 838.02 178.95
  C 834.33 250.51 903.44 278.06 963.25 279.21
  Q 962.66 279.67 962.82 280.30
  Q 963.02 281.08 963.02 281.26
  Q 962.79 300.54 963.08 319.84
  C 963.09 320.79 963.55 321.67 963.50 322.71
  C 887.79 322.33 788.26 295.24 774.76 205.77
  C 761.21 115.95 837.84 68.43 913.81 53.98
  C 955.11 46.13 995.37 46.79 1036.77 54.24
  Z"
/>
<path fill="#e8e8e8" d="
  M 1247.67 295.92
  C 1245.12 300.21 1236.29 312.75 1247.95 313.50
  A 0.56 0.53 2.3 0 1 1248.47 314.03
  L 1248.46 318.48
  A 0.53 0.51 -0.0 0 1 1247.93 318.99
  L 1168.29 318.99
  A 0.62 0.60 -5.8 0 1 1167.69 318.51
  Q 1167.19 316.20 1167.66 313.98
  A 0.62 0.59 6.2 0 1 1168.27 313.51
  C 1176.03 313.58 1180.19 308.60 1183.80 302.00
  Q 1245.00 190.12 1306.29 78.30
  C 1310.31 70.98 1320.16 58.93 1304.62 57.47
  A 0.60 0.55 2.4 0 1 1304.08 56.93
  L 1304.03 52.51
  A 0.53 0.49 -0.5 0 1 1304.56 52.01
  L 1401.94 52.01
  A 0.61 0.49 -0.5 0 1 1402.55 52.49
  L 1402.66 57.09
  A 0.58 0.48 -0.5 0 1 1402.08 57.58
  Q 1397.07 57.58 1393.82 61.11
  A 1.40 1.36 67.9 0 0 1393.46 61.99
  Q 1393.33 65.17 1394.51 67.22
  Q 1460.62 182.00 1526.71 296.79
  C 1531.19 304.57 1534.76 314.39 1545.23 313.50
  A 0.57 0.56 -8.1 0 1 1545.83 313.94
  Q 1546.32 316.31 1545.82 318.50
  A 0.64 0.63 6.2 0 1 1545.20 318.99
  L 1456.32 318.99
  A 0.53 0.50 -0.0 0 1 1455.79 318.49
  L 1455.77 314.02
  A 0.51 0.48 0.6 0 1 1456.29 313.54
  C 1469.11 313.73 1461.70 303.93 1458.71 298.80
  Q 1444.25 274.05 1429.93 249.22
  A 0.90 0.87 74.3 0 0 1429.17 248.78
  L 1275.29 248.77
  A 0.87 0.84 -74.7 0 0 1274.55 249.21
  Q 1261.40 272.77 1247.67 295.92
  Z
  M 1296.40 206.13
  A 0.31 0.31 14.5 0 0 1296.67 206.59
  L 1402.46 206.40
  A 0.31 0.31 -14.6 0 0 1402.73 205.94
  L 1349.67 111.59
  A 0.31 0.31 44.9 0 0 1349.13 111.59
  L 1296.40 206.13
  Z"
/>
<path fill="#f0f0f0" d="
  M 2037.75 52.04
  L 2037.67 52.22
  A 0.37 0.25 7.8 0 1 2037.36 52.37
  L 1987.05 52.36
  A 0.40 0.39 83.5 0 0 1986.67 52.85
  C 1987.80 58.03 1984.31 63.95 1987.87 68.16
  Q 1989.04 69.55 1989.29 71.35
  Q 1989.90 75.91 1988.15 77.76
  Q 1986.96 79.01 1987.01 80.73
  C 1987.06 82.45 1986.31 89.80 1986.99 91.13
  A 1.73 1.38 40.5 0 1 1987.17 92.06
  Q 1986.45 97.81 1987.01 103.57
  A 1.20 0.94 -30.9 0 1 1986.69 104.40
  Q 1986.26 104.87 1986.04 105.50
  C 1912.26 119.23 1838.88 136.74 1768.68 163.67
  Q 1737.97 175.45 1710.98 190.50
  C 1696.71 198.45 1679.59 209.63 1670.23 223.26
  C 1639.99 267.34 1727.78 283.35 1751.03 286.81
  Q 1796.13 293.53 1841.75 294.19
  Q 1914.49 295.24 1986.96 288.75
  Q 1987.98 289.49 1987.28 290.12
  A 1.20 0.71 -30.6 0 0 1986.85 290.90
  L 1986.93 316.69
  A 1.06 0.76 -23.8 0 1 1986.50 317.42
  Q 1986.09 317.73 1986.44 318.13
  A 1.26 0.44 -2.3 0 0 1987.32 318.40
  Q 1987.87 318.44 1988.00 318.96
  L 1628.80 318.96
  A 0.51 0.50 0.0 0 1 1628.29 318.46
  L 1628.29 52.54
  A 0.50 0.50 0.0 0 1 1628.79 52.04
  L 2037.75 52.04
  Z"
/>
<path fill="#f7f7f7" d="
  M 2037.75 52.04
  L 2426.25 52.04
  L 2378.63 52.22
  A 0.84 0.56 7.0 0 0 2377.91 52.58
  Q 2377.75 52.99 2378.47 53.06
  Q 2378.94 53.11 2378.49 53.24
  L 2377.78 53.45
  A 0.75 0.65 -6.8 0 0 2377.24 54.04
  C 2376.34 63.24 2376.83 73.18 2376.91 82.44
  A 0.46 0.43 -2.4 0 0 2377.41 82.87
  Q 2379.12 82.74 2380.50 83.71
  Q 2343.69 78.84 2309.50 77.76
  C 2233.28 75.36 2155.50 80.84 2079.27 90.74
  C 2075.24 91.26 2076.11 94.91 2080.02 94.49
  C 2135.23 88.57 2193.29 88.57 2247.69 100.77
  C 2272.58 106.36 2324.56 123.70 2320.55 158.22
  C 2316.24 195.28 2245.34 221.16 2215.49 230.52
  Q 2169.32 244.99 2119.95 253.68
  A 0.79 0.78 67.1 0 1 2119.17 253.36
  Q 2115.32 247.98 2112.99 240.49
  C 2103.95 211.34 2098.11 181.06 2093.20 150.96
  A 1.43 1.22 -78.7 0 0 2092.74 150.14
  Q 2090.76 148.52 2089.06 150.43
  A 1.42 1.17 69.8 0 0 2088.75 151.31
  L 2088.75 274.99
  Q 2088.75 276.97 2090.72 276.70
  Q 2198.87 261.52 2303.75 231.21
  L 2303.88 231.27
  A 0.22 0.18 14.7 0 1 2304.01 231.45
  L 2304.03 318.19
  A 0.50 0.50 0.0 0 0 2304.53 318.69
  L 2376.75 318.93
  L 1988.00 318.96
  Q 1987.87 318.44 1987.32 318.40
  A 1.26 0.44 -2.3 0 1 1986.44 318.13
  Q 1986.09 317.73 1986.50 317.42
  A 1.06 0.76 -23.8 0 0 1986.93 316.69
  L 1986.85 290.90
  A 1.20 0.71 -30.6 0 1 1987.28 290.12
  Q 1987.98 289.49 1986.96 288.75
  L 2047.70 282.24
  A 1.32 1.15 14.8 0 0 2048.53 281.83
  C 2049.98 280.18 2048.39 279.19 2046.77 279.34
  Q 2016.83 282.12 1986.75 282.46
  Q 1986.30 281.87 1985.51 281.88
  Q 1985.16 281.88 1985.43 281.67
  L 1986.60 280.78
  A 1.08 0.89 73.2 0 0 1986.95 279.94
  C 1986.92 279.10 1985.72 253.63 1989.00 257.41
  A 0.49 0.43 -37.8 0 0 1989.63 257.45
  L 1991.75 255.92
  A 1.36 1.04 -16.4 0 0 1992.26 255.22
  Q 1992.48 254.36 1993.39 253.96
  A 0.94 0.83 -9.8 0 0 1993.92 253.30
  Q 1994.22 251.18 1995.36 249.47
  Q 1995.64 249.05 1995.78 249.54
  Q 1996.64 252.49 1997.41 249.25
  A 1.03 0.77 -87.6 0 1 1997.97 248.56
  L 2000.22 247.84
  A 1.74 1.17 0.3 0 0 2000.99 247.33
  Q 2002.44 245.46 2004.76 245.10
  A 0.72 0.70 -87.4 0 0 2005.34 244.55
  L 2005.87 242.28
  A 1.17 0.80 39.7 0 0 2005.63 241.44
  L 2004.22 239.53
  A 0.36 0.32 -20.0 0 1 2004.50 239.02
  C 2008.54 238.46 2007.60 236.07 2007.58 233.34
  Q 2007.36 195.68 2007.54 158.03
  C 2007.55 155.08 2007.89 152.78 2004.29 152.29
  A 1.43 1.20 -13.1 0 1 2003.46 151.87
  C 2000.26 148.26 1999.35 144.74 1993.51 145.50
  Q 1990.75 145.86 1990.44 143.01
  Q 1990.00 138.90 1988.18 135.20
  A 1.09 1.08 -47.4 0 1 1988.15 134.30
  C 1989.41 131.33 1988.32 129.50 1987.54 126.92
  C 1986.44 123.28 1987.03 118.40 1986.94 114.57
  Q 1986.91 113.08 1987.77 110.03
  Q 2008.98 104.81 2031.34 100.97
  A 1.70 1.69 84.9 0 0 2032.75 99.27
  Q 2032.74 97.64 2030.75 97.97
  Q 2008.37 101.58 1986.04 105.50
  Q 1986.26 104.87 1986.69 104.40
  A 1.20 0.94 -30.9 0 0 1987.01 103.57
  Q 1986.45 97.81 1987.17 92.06
  A 1.73 1.38 40.5 0 0 1986.99 91.13
  C 1986.31 89.80 1987.06 82.45 1987.01 80.73
  Q 1986.96 79.01 1988.15 77.76
  Q 1989.90 75.91 1989.29 71.35
  Q 1989.04 69.55 1987.87 68.16
  C 1984.31 63.95 1987.80 58.03 1986.67 52.85
  A 0.40 0.39 83.5 0 1 1987.05 52.36
  L 2037.36 52.37
  A 0.37 0.25 7.8 0 0 2037.67 52.22
  L 2037.75 52.04
  Z"
/>
<path fill="#fdfdfd" d="
  M 2426.25 52.04
  L 2507.51 52.01
  A 0.48 0.48 -90.0 0 1 2507.99 52.49
  L 2507.98 318.45
  A 0.50 0.49 -89.4 0 1 2507.48 318.95
  L 2376.75 318.93
  L 2304.53 318.69
  A 0.50 0.50 0.0 0 1 2304.03 318.19
  L 2304.01 231.45
  A 0.22 0.18 14.7 0 0 2303.88 231.27
  L 2303.75 231.21
  C 2334.12 221.96 2490.76 173.23 2471.13 123.54
  C 2460.64 97.00 2404.71 87.56 2380.50 83.71
  Q 2379.12 82.74 2377.41 82.87
  A 0.46 0.43 -2.4 0 1 2376.91 82.44
  C 2376.83 73.18 2376.34 63.24 2377.24 54.04
  A 0.75 0.65 -6.8 0 1 2377.78 53.45
  L 2378.49 53.24
  Q 2378.94 53.11 2378.47 53.06
  Q 2377.75 52.99 2377.91 52.58
  A 0.84 0.56 7.0 0 1 2378.63 52.22
  L 2426.25 52.04
  Z"
/>
<path fill="#e2e2e2" d="
  M 1036.77 54.24
  C 1051.83 56.86 1066.35 59.92 1081.16 65.03
  C 1092.14 68.82 1103.19 73.33 1114.40 76.32
  C 1119.06 77.56 1122.97 76.05 1126.56 73.29
  A 1.03 0.76 -49.2 0 1 1127.44 73.09
  L 1132.94 75.10
  A 0.43 0.38 -60.6 0 1 1133.08 75.73
  L 1089.82 135.11
  A 0.63 0.57 -57.8 0 1 1089.06 135.32
  L 1083.46 132.47
  A 0.80 0.72 -74.0 0 1 1083.08 131.70
  L 1083.65 126.67
  Q 1083.95 124.01 1082.16 121.97
  C 1072.68 111.13 1052.55 104.16 1038.96 100.50
  Q 1039.21 100.39 1039.33 100.20
  A 0.48 0.37 28.8 0 0 1039.07 99.61
  Q 1037.85 99.02 1036.47 99.00
  A 0.49 0.48 0.0 0 1 1035.98 98.52
  C 1036.03 88.22 1036.10 77.92 1035.80 67.63
  Q 1035.60 60.94 1036.77 54.24
  Z"
/>
<path fill="#000000" d="
  M 2380.50 83.71
  C 2404.71 87.56 2460.64 97.00 2471.13 123.54
  C 2490.76 173.23 2334.12 221.96 2303.75 231.21
  Q 2198.87 261.52 2090.72 276.70
  Q 2088.75 276.97 2088.75 274.99
  L 2088.75 151.31
  A 1.42 1.17 69.8 0 1 2089.06 150.43
  Q 2090.76 148.52 2092.74 150.14
  A 1.43 1.22 -78.7 0 1 2093.20 150.96
  C 2098.11 181.06 2103.95 211.34 2112.99 240.49
  Q 2115.32 247.98 2119.17 253.36
  A 0.79 0.78 67.1 0 0 2119.95 253.68
  Q 2169.32 244.99 2215.49 230.52
  C 2245.34 221.16 2316.24 195.28 2320.55 158.22
  C 2324.56 123.70 2272.58 106.36 2247.69 100.77
  C 2193.29 88.57 2135.23 88.57 2080.02 94.49
  C 2076.11 94.91 2075.24 91.26 2079.27 90.74
  C 2155.50 80.84 2233.28 75.36 2309.50 77.76
  Q 2343.69 78.84 2380.50 83.71
  Z"
/>
<path fill="#000000" d="
  M 1987.77 110.03
  C 1944.78 120.23 1901.67 135.06 1863.39 157.35
  C 1842.06 169.77 1804.75 197.45 1813.87 227.17
  C 1821.58 252.30 1858.23 265.60 1880.57 271.16
  C 1915.26 279.78 1951.08 282.63 1986.75 282.46
  Q 2016.83 282.12 2046.77 279.34
  C 2048.39 279.19 2049.98 280.18 2048.53 281.83
  A 1.32 1.15 14.8 0 1 2047.70 282.24
  L 1986.96 288.75
  Q 1914.49 295.24 1841.75 294.19
  Q 1796.13 293.53 1751.03 286.81
  C 1727.78 283.35 1639.99 267.34 1670.23 223.26
  C 1679.59 209.63 1696.71 198.45 1710.98 190.50
  Q 1737.97 175.45 1768.68 163.67
  C 1838.88 136.74 1912.26 119.23 1986.04 105.50
  Q 2008.37 101.58 2030.75 97.97
  Q 2032.74 97.64 2032.75 99.27
  A 1.70 1.69 84.9 0 1 2031.34 100.97
  Q 2008.98 104.81 1987.77 110.03
  Z"
/>
<path fill="#f0f0f0" d="
  M 1987.77 110.03
  Q 1986.91 113.08 1986.94 114.57
  C 1987.03 118.40 1986.44 123.28 1987.54 126.92
  C 1988.32 129.50 1989.41 131.33 1988.15 134.30
  A 1.09 1.08 -47.4 0 0 1988.18 135.20
  Q 1990.00 138.90 1990.44 143.01
  Q 1990.75 145.86 1993.51 145.50
  C 1999.35 144.74 2000.26 148.26 2003.46 151.87
  A 1.43 1.20 -13.1 0 0 2004.29 152.29
  C 2007.89 152.78 2007.55 155.08 2007.54 158.03
  Q 2007.36 195.68 2007.58 233.34
  C 2007.60 236.07 2008.54 238.46 2004.50 239.02
  A 0.36 0.32 -20.0 0 0 2004.22 239.53
  L 2005.63 241.44
  A 1.17 0.80 39.7 0 1 2005.87 242.28
  L 2005.34 244.55
  A 0.72 0.70 -87.4 0 1 2004.76 245.10
  Q 2002.44 245.46 2000.99 247.33
  A 1.74 1.17 0.3 0 1 2000.22 247.84
  L 1997.97 248.56
  A 1.03 0.77 -87.6 0 0 1997.41 249.25
  Q 1996.64 252.49 1995.78 249.54
  Q 1995.64 249.05 1995.36 249.47
  Q 1994.22 251.18 1993.92 253.30
  A 0.94 0.83 -9.8 0 1 1993.39 253.96
  Q 1992.48 254.36 1992.26 255.22
  A 1.36 1.04 -16.4 0 1 1991.75 255.92
  L 1989.63 257.45
  A 0.49 0.43 -37.8 0 1 1989.00 257.41
  C 1985.72 253.63 1986.92 279.10 1986.95 279.94
  A 1.08 0.89 73.2 0 1 1986.60 280.78
  L 1985.43 281.67
  Q 1985.16 281.88 1985.51 281.88
  Q 1986.30 281.87 1986.75 282.46
  C 1951.08 282.63 1915.26 279.78 1880.57 271.16
  C 1858.23 265.60 1821.58 252.30 1813.87 227.17
  C 1804.75 197.45 1842.06 169.77 1863.39 157.35
  C 1901.67 135.06 1944.78 120.23 1987.77 110.03
  Z"
/>
<path fill="#000000" d="
  M 1296.40 206.13
  L 1349.13 111.59
  A 0.31 0.31 44.7 0 1 1349.67 111.59
  L 1402.73 205.94
  A 0.31 0.31 -13.9 0 1 1402.46 206.40
  L 1296.67 206.59
  A 0.31 0.31 14.5 0 1 1296.40 206.13
  Z"
/>
<path fill="#e2e2e2" d="
  M 963.50 322.71
  C 963.55 321.67 963.09 320.79 963.08 319.84
  Q 962.79 300.54 963.02 281.26
  Q 963.02 281.08 962.82 280.30
  Q 962.66 279.67 963.25 279.21
  C 1000.31 279.98 1039.14 273.86 1071.80 255.75
  A 0.87 0.86 -15.0 0 0 1072.24 255.00
  L 1072.31 225.81
  A 0.50 0.49 0.0 0 0 1071.81 225.32
  Q 1035.41 225.18 999.00 225.24
  C 993.44 225.25 981.39 225.29 980.63 233.37
  A 0.60 0.53 -87.5 0 1 980.11 233.91
  L 974.51 233.97
  A 0.53 0.50 90.0 0 1 974.01 233.44
  L 974.01 169.81
  A 0.54 0.49 -89.5 0 1 974.51 169.27
  L 980.08 169.36
  A 0.62 0.55 85.1 0 1 980.63 169.89
  C 981.72 176.39 989.47 177.99 994.92 177.99
  Q 1069.80 178.01 1144.69 178.00
  A 0.61 0.60 -5.1 0 1 1145.29 178.49
  C 1145.49 179.65 1146.44 184.06 1144.21 183.84
  A 1.85 0.76 16.7 0 0 1143.27 183.93
  C 1136.65 186.95 1136.62 193.75 1136.73 200.09
  Q 1137.50 242.91 1136.90 256.44
  C 1136.53 265.00 1135.20 274.78 1144.35 276.06
  A 0.68 0.66 0.2 0 1 1144.93 276.62
  Q 1145.31 279.12 1144.72 281.36
  A 1.07 0.99 -6.2 0 1 1144.13 282.04
  C 1087.92 307.65 1025.54 323.15 963.50 322.71
  Z"
/>
<path fill="#d7d7d7" d="
  M 231.75 337.29
  L 646.75 337.29
  Q 645.41 337.75 646.66 337.82
  Q 646.90 337.83 646.70 337.95
  Q 646.26 338.21 647.32 338.24
  Q 658.40 338.52 669.52 338.50
  A 1.65 1.64 3.3 0 1 671.16 340.33
  Q 670.17 349.12 670.22 357.99
  C 670.23 359.96 671.28 361.73 670.99 363.94
  C 670.72 366.03 670.84 367.40 670.82 369.27
  A 0.51 0.49 1.1 0 0 671.32 369.77
  C 696.39 370.28 717.70 369.74 746.50 370.21
  L 604.50 370.21
  C 513.46 368.97 422.16 370.02 330.27 369.99
  A 1.48 1.48 88.6 0 1 328.79 368.58
  C 328.66 366.09 328.99 363.05 329.00 360.18
  Q 329.06 350.44 328.79 339.85
  A 1.38 1.37 -0.6 0 0 327.41 338.51
  Q 304.50 338.49 281.50 338.50
  Q 280.95 338.50 281.03 338.13
  A 0.29 0.24 -84.2 0 0 280.80 337.78
  Q 257.68 337.98 234.56 337.80
  Q 232.27 337.78 231.41 337.67
  Q 231.13 337.63 231.41 337.52
  Q 231.62 337.45 231.75 337.29
  Z"
/>
<path fill="#dedede" d="
  M 646.75 337.29
  L 1012.75 337.29
  L 1012.89 338.00
  A 0.61 0.59 84.7 0 0 1013.47 338.50
  L 1034.52 338.51
  A 1.51 1.50 -89.6 0 1 1036.02 340.04
  C 1035.94 345.30 1035.42 351.44 1037.47 356.48
  C 1039.01 360.28 1039.24 362.74 1037.25 366.04
  A 1.33 0.96 -43.0 0 0 1037.07 366.95
  Q 1037.38 368.12 1038.45 368.88
  Q 1039.33 369.50 1042.51 369.56
  L 1074.50 370.21
  L 746.50 370.21
  C 717.70 369.74 696.39 370.28 671.32 369.77
  A 0.51 0.49 1.1 0 1 670.82 369.27
  C 670.84 367.40 670.72 366.03 670.99 363.94
  C 671.28 361.73 670.23 359.96 670.22 357.99
  Q 670.17 349.12 671.16 340.33
  A 1.65 1.64 3.3 0 0 669.52 338.50
  Q 658.40 338.52 647.32 338.24
  Q 646.26 338.21 646.70 337.95
  Q 646.90 337.83 646.66 337.82
  Q 645.41 337.75 646.75 337.29
  Z"
/>
<path fill="#e2e2e2" d="
  M 1012.75 337.29
  L 1184.00 337.29
  Q 1184.51 339.06 1183.47 339.97
  A 1.23 0.85 -26.4 0 0 1183.04 340.75
  C 1182.97 342.61 1183.10 344.11 1182.63 346.03
  C 1181.57 350.32 1182.13 355.61 1181.99 359.66
  C 1181.94 361.00 1182.78 362.12 1182.73 363.65
  Q 1182.64 366.25 1183.19 368.82
  A 0.25 0.23 -25.6 0 0 1183.58 368.94
  Q 1184.06 368.60 1184.08 369.24
  A 0.47 0.45 89.3 0 0 1184.52 369.69
  L 1210.50 370.23
  L 1074.50 370.21
  L 1042.51 369.56
  Q 1039.33 369.50 1038.45 368.88
  Q 1037.38 368.12 1037.07 366.95
  A 1.33 0.96 -43.0 0 1 1037.25 366.04
  C 1039.24 362.74 1039.01 360.28 1037.47 356.48
  C 1035.42 351.44 1035.94 345.30 1036.02 340.04
  A 1.51 1.50 -89.6 0 0 1034.52 338.51
  L 1013.47 338.50
  A 0.61 0.59 84.7 0 1 1012.89 338.00
  L 1012.75 337.29
  Z"
/>
<path fill="#e8e8e8" d="
  M 1184.00 337.29
  L 1475.75 337.29
  Q 1476.08 337.58 1476.22 338.01
  A 0.70 0.59 79.2 0 0 1476.81 338.49
  L 1522.76 338.50
  A 1.25 1.25 -89.3 0 1 1524.01 339.78
  Q 1523.84 346.64 1524.49 353.99
  C 1524.87 358.29 1529.39 359.22 1525.14 364.45
  Q 1523.65 366.28 1525.09 368.68
  A 0.59 0.43 -18.0 0 0 1525.66 368.87
  L 1526.02 368.80
  A 0.63 0.46 75.6 0 1 1526.60 369.28
  Q 1526.94 370.53 1528.75 370.46
  L 1527.00 370.46
  L 1526.97 370.38
  A 0.12 0.12 -11.0 0 0 1526.86 370.31
  L 1210.50 370.23
  L 1184.52 369.69
  A 0.47 0.45 89.3 0 1 1184.08 369.24
  Q 1184.06 368.60 1183.58 368.94
  A 0.25 0.23 -25.6 0 1 1183.19 368.82
  Q 1182.64 366.25 1182.73 363.65
  C 1182.78 362.12 1181.94 361.00 1181.99 359.66
  C 1182.13 355.61 1181.57 350.32 1182.63 346.03
  C 1183.10 344.11 1182.97 342.61 1183.04 340.75
  A 1.23 0.85 -26.4 0 1 1183.47 339.97
  Q 1184.51 339.06 1184.00 337.29
  Z"
/>
<path fill="#f0f0f0" d="
  M 1475.75 337.29
  L 2037.00 337.29
  Q 2037.01 338.46 2038.93 338.47
  Q 2072.97 338.53 2107.66 338.49
  A 1.25 1.24 0.2 0 1 2108.91 339.74
  Q 2108.90 345.61 2110.08 351.80
  C 2110.82 355.69 2113.14 359.75 2112.51 364.97
  A 1.35 1.33 31.5 0 0 2112.74 365.89
  C 2115.91 370.56 2109.06 368.27 2109.50 370.21
  L 1697.41 370.44
  Q 1697.31 370.44 1697.41 370.49
  L 1697.50 370.54
  L 1624.75 370.71
  L 1624.75 370.48
  A 0.28 0.21 -1.0 0 0 1624.47 370.28
  L 1535.81 370.28
  Q 1535.13 370.28 1535.76 370.47
  Q 1536.24 370.61 1536.75 370.54
  L 1528.75 370.46
  Q 1526.94 370.53 1526.60 369.28
  A 0.63 0.46 75.6 0 0 1526.02 368.80
  L 1525.66 368.87
  A 0.59 0.43 -18.0 0 1 1525.09 368.68
  Q 1523.65 366.28 1525.14 364.45
  C 1529.39 359.22 1524.87 358.29 1524.49 353.99
  Q 1523.84 346.64 1524.01 339.78
  A 1.25 1.25 -89.3 0 0 1522.76 338.50
  L 1476.81 338.49
  A 0.70 0.59 79.2 0 1 1476.22 338.01
  Q 1476.08 337.58 1475.75 337.29
  Z"
/>
<path fill="#f7f7f7" d="
  M 0.00 367.69
  L 0.42 370.25
  A 0.60 0.58 -4.5 0 0 1.01 370.74
  L 25.19 371.00
  L 0.00 371.00
  L 0.00 367.69
  Z"
/>
<path fill="#cfcfcf" d="
  M 2531.94 371.00
  L 2528.19 371.00
  Q 2503.56 370.37 2478.94 371.00
  L 2477.69 371.00
  Q 2477.77 370.74 2477.50 370.74
  Q 2087.94 370.75 1698.37 370.75
  A 0.84 0.23 38.9 0 1 1697.87 370.53
  Q 1697.70 370.42 1697.50 370.54
  L 1697.41 370.49
  Q 1697.31 370.44 1697.41 370.44
  L 2109.50 370.21
  Q 2334.39 370.30 2559.28 370.23
  C 2560.25 370.23 2559.29 370.82 2559.04 370.82
  Q 2545.48 370.51 2531.94 371.00
  Z"
/>
<path fill="#8d848d" d="
  M 322.75 370.41
  L 322.75 370.71
  L 74.75 370.71
  L 74.30 370.48
  Q 74.08 370.36 74.32 370.36
  C 157.13 370.37 239.94 370.24 322.75 370.41
  Z"
/>
<path fill="#9a8c97" d="
  M 524.00 370.54
  L 524.00 370.71
  L 322.75 370.71
  L 322.75 370.41
  L 522.44 370.33
  Q 522.60 370.33 523.40 370.50
  Q 523.67 370.57 524.00 370.54
  Z"
/>
<path fill="#bbb0b8" fill-opacity="0.996" d="
  M 604.50 370.21
  L 746.50 370.21
  L 1074.50 370.21
  L 1210.50 370.23
  L 1526.86 370.31
  A 0.12 0.12 -11.0 0 1 1526.97 370.38
  L 1527.00 370.46
  C 1484.84 371.34 1431.48 370.53 1346.94 370.50
  C 1072.63 370.41 798.31 370.60 524.00 370.71
  L 524.00 370.54
  L 524.17 370.45
  Q 524.42 370.31 524.51 370.31
  L 604.50 370.21
  Z"
/>
<path fill="#d7d7d7" d="
  M 1624.75 370.71
  L 1536.75 370.54
  Q 1536.24 370.61 1535.76 370.47
  Q 1535.13 370.28 1535.81 370.28
  L 1624.47 370.28
  A 0.28 0.21 -1.0 0 1 1624.75 370.48
  L 1624.75 370.71
  Z"
/>
<path fill="#f7f7f7" d="
  M 524.00 370.71
  C 798.31 370.60 1072.63 370.41 1346.94 370.50
  C 1431.48 370.53 1484.84 371.34 1527.00 370.46
  L 1528.75 370.46
  L 1536.75 370.54
  L 1624.75 370.71
  L 1697.50 370.54
  Q 1697.70 370.42 1697.87 370.53
  A 0.84 0.23 38.9 0 0 1698.37 370.75
  Q 2087.94 370.75 2477.50 370.74
  Q 2477.77 370.74 2477.69 371.00
  L 27.44 371.00
  L 74.75 370.71
  L 322.75 370.71
  L 524.00 370.71
  Z"
/>
<path fill="#fdfdfd" d="
  M 2528.19 371.00
  L 2478.94 371.00
  Q 2503.56 370.37 2528.19 371.00
  Z"
/>
</svg>
