<svg viewBox="0 0 542 184" xmlns="http://www.w3.org/2000/svg">
  <g fill="#aaa">
    <path d="M17.2 0h39.52c0 5.97 0 11.95.01 17.92-11.65.01-23.3-.02-34.95 0 9.53 12.84 19.38 25.45 29.04 38.2 3.03 4.13 6.81 8 8.06 13.12 1.53 5.49.45 11.92-3.68 16.02-3.14 3.22-7.72 4.55-12.13 4.53-12.65.02-25.3-.01-37.96 0 .02-6 .01-12 .01-18.01 11.65-.04 23.29.07 34.93-.05C28.33 56.51 16.74 41.2 5.07 25.95c-2.41-3.07-3.72-7.05-3.24-10.96C2.58 7.16 9.37.59 17.2 0m250.22 0h18.51c7.41 23.14 14.64 46.34 22.04 69.48 7.32-23.17 14.6-46.34 22.01-69.48h18.49c-8.13 25.17-15.96 50.43-24.02 75.62-1.5 4.56-3.99 9.03-8.03 11.79-3.72 2.64-8.65 2.99-12.97 1.9-5.99-1.79-9.9-7.39-11.79-13.08-8.17-25.38-16.01-50.87-24.24-76.23M113.87 17.86c8.26.49 16.92-.85 24.79 2.36 10.07 3.83 18.04 12.74 20.64 23.21 1.3 4.72 1.03 9.65 1.01 14.5-9.17-.04-18.33-.03-27.5-.01-.01-5.13 0-10.27-.01-15.41 3.47 0 6.93.02 10.4 0-2.41-5.44-8.11-9.17-14.06-9.2.06 18.83.03 37.65.01 56.48-5.12.01-10.24-.02-15.36.03.04-23.99-.11-47.98.08-71.96m100.79.45c4.37-1.03 8.93.04 13.38-.24 14.07-.22 27.36 9.73 31.63 23.03 1.91 5.41 1.78 11.2 1.69 16.85-3.42-.05-6.83-.06-10.25-.03 5.84 10.72 12.07 21.22 18.07 31.85-5.96.03-11.91.05-17.87-.01-5.69-10.65-11.74-21.11-17.3-31.81-.42-5.12-.04-10.28-.17-15.41 3.43-.04 6.86-.02 10.3.01-2.14-5.6-8.02-8.91-13.79-9.42-.29 18.88-.04 37.77-.13 56.66-5.15 0-10.29.01-15.43-.01-.09-23.82.16-47.65-.13-71.47m240.03-.2c5.38-.11 10.77-.08 16.16-.01 8.8.12 16.49 8.06 16.63 16.8.07 12.67.08 25.34-.01 38-.22 8.65-7.66 16.43-16.34 16.82-5.39.14-10.78.11-16.16.02-8.74-.26-16.42-8.04-16.6-16.78-.06-12.64-.04-25.28-.02-37.92.02-8.71 7.62-16.65 16.34-16.93m1.81 15.56c-1.29.64-2.24 1.95-2.1 3.43-.08 10.99-.02 21.98-.03 32.97-.2 1.8.75 3.7 2.59 4.19 3.66.25 7.36.17 11.03.07 2.26.09 3.81-2.3 3.46-4.39-.01-10.98.04-21.96-.02-32.94.13-1.81-1.5-3.64-3.36-3.52-3.85-.01-7.75-.32-11.57.19M61.26 17.89c5.12.06 10.25-.13 15.37.13-.03 13.64-.06 27.28.02 40.91.19 8.3 7.5 15.42 15.76 15.66 0-18.85.06-37.7-.03-56.55 5.11-.3 10.23-.1 15.34-.13.06 23.96 0 47.93.03 71.89-8.45-.27-17.31 1.06-25.31-2.41-12.23-4.77-21.02-17.19-21.19-30.35-.05-13.05-.05-26.1.01-39.15m104.1.16c14.47-.37 28.95-.05 43.42-.16.08 5.14-.01 10.27.07 15.41-9.39.15-18.78-.12-28.16.14.16 10.51-.01 21.02.08 31.53-.12 4.99 4.3 9.57 9.32 9.46 6.23.07 12.46.03 18.69-.01.06 5.13.03 10.26.03 15.39-7.61-.09-15.22.09-22.82-.08-10.8-.46-20.24-10.03-20.55-20.83-.11-16.95.05-33.9-.08-50.85m179.17-.16c5.1 0 10.21.01 15.31 0 .09 23.97.02 47.94.04 71.91-5.12 0-10.23-.05-15.35.03-.03-23.98-.02-47.96 0-71.94m20.07 11.16c.52-6.56 7.03-11.31 13.37-11.14 11.81-.05 23.62 0 35.43-.02.04 5.15.01 10.3.03 15.45-10.01-.02-20.01.03-30.01-.03 8.91 12.45 17.99 24.77 26.95 37.17 2 2.79 3.63 6.08 3.36 9.61-.2 5.41-5.49 9.52-10.66 9.66-12.78.13-25.55-.03-38.33.07-.02-5.13-.01-10.25 0-15.38 9.79.03 19.59.01 29.38.01-7.93-11.23-16.14-22.26-24.18-33.41-2.59-3.53-5.82-7.29-5.34-11.99m53.09-11.16c5.14.05 10.29-.12 15.44.13-.03 23.92 0 47.84-.01 71.76-5.15.03-10.3-.02-15.44.04-.02-23.98-.03-47.95.01-71.93m74.69 4.57c4.25-6.6 15.81-6.56 19.45.64 5.11 10.99 9.57 22.29 14.73 33.26.15-12.82 0-25.64.07-38.47H542v64.45c-1.73 5.51-8.13 8.66-13.6 7.11-3.35-.91-5.85-3.66-7.23-6.74-5.03-10.96-9.43-22.21-14.68-33.06-.17 13.39.01 26.79-.09 40.18-5.11-.06-10.21-.04-15.32-.03 0-19.92.04-39.84-.02-59.76.07-2.55-.2-5.37 1.32-7.58"/>
    <path d="M185.58 42.59c7.76.02 15.51-.04 23.27.03-.07 5.09-.02 10.19-.04 15.29-7.73-.01-15.47-.04-23.21.01-.03-5.11 0-10.22-.02-15.33m-33.45 59.5c3.86-4.63 9.85-7.24 15.85-7.24 6.33.01 12.68-.09 19.01.05 7.68.22 14.97 5.12 17.96 12.2 2.2 4.65 1.58 9.9 1.63 14.88.09 6.22-3.17 12.11-7.98 15.94 4.92 3.77 8.3 9.73 8.2 16.02 0 4.4.24 8.83-.25 13.22-1.47 9.66-10.79 17.23-20.54 16.75-7.3-.19-14.63.39-21.9-.33-9.18-1.61-16.53-10.21-16.51-19.56.14-6.13-.89-12.68 1.95-18.37 1.35-3.01 3.63-5.44 6.09-7.58-5.65-4.12-8.81-11.14-8.29-18.1-.41-6.27.39-13.04 4.78-17.88m17.21 9.28c-4.27 2.67-2.19 8.48-2.59 12.62-.11 3.8 3.94 5.56 7.2 4.93 4.14-.57 9.8 1.87 12.57-2.42 1.43-3.28.52-7.07.72-10.56.19-3.28-3.13-5.74-6.24-5.23-3.86.29-7.99-.7-11.66.66m2.07 34.16c-2.08.32-3.95 2.24-4.03 4.38-.17 3.71-.09 7.43-.06 11.15-.31 2.7 2 5.43 4.74 5.42 3.61.09 7.23.08 10.85 0 2.41.06 4.72-2.1 4.79-4.52.13-4.03.15-8.06-.02-12.08-.11-2.32-2.28-4.39-4.59-4.4-3.89-.09-7.8-.18-11.68.05m40.55-30.55c-.16-11 10.05-20.71 21.04-19.87 7.67.34 15.45-.65 23.05.57 8.6 2.12 15.19 10.42 15.16 19.31.05 16.34.04 32.68.01 49.03.08 10.12-8.44 19.19-18.49 19.98h-22.42c-9.99-.88-18.47-9.87-18.35-19.97-.09-16.35-.1-32.7 0-49.05m22.23-1.85c-1.8.88-3.01 2.8-2.83 4.83-.02 14.37-.02 28.75 0 43.12-.27 2.63 1.98 5.21 4.63 5.28 3.67.13 7.35.11 11.02.02 2.72.02 5.03-2.65 4.77-5.34.02-14.35.02-28.7-.01-43.05.32-3.13-2.73-5.82-5.79-5.37-3.9.22-8.01-.56-11.79.51m43.17-4.58c2.63-7.71 10.35-13.52 18.58-13.41 6.71-.02 13.42-.03 20.13 0 8.21.03 15.81 5.94 18.35 13.65 1.19 3.28 1.08 6.8 1.07 10.23-.09 15.31.07 30.62-.07 45.93-.29 9.63-8.41 17.87-17.85 19.05h-23.15c-9.58-.97-17.88-9.34-18.12-19.07-.12-15.3.01-30.6-.06-45.9.01-3.51-.16-7.14 1.12-10.48m20.87 4.71c-2.11 1.04-2.83 3.54-2.67 5.73.05 14.01-.02 28.03.04 42.04-.16 2.55 1.8 5.16 4.43 5.31 3.65.19 7.31.1 10.97.06 2.84.13 5.28-2.53 5.11-5.33.07-13.67-.02-27.34.05-41.01-.04-1.93.14-4.18-1.33-5.69-2.19-2.62-5.89-1.53-8.84-1.76-2.57.19-5.37-.5-7.76.65m60.02-18.02c5.24-.29 10.49-.02 15.74-.11 4.28.06 8.76-.45 12.82 1.26 7.55 2.84 12.98 10.52 12.9 18.62 0 16.65.09 33.31-.04 49.97-.26 9.68-8.51 17.98-18.02 19.02h-23.12c-9.89-1.1-18.22-10.05-18.04-20.1-.03-16.3-.04-32.6 0-48.9-.07-9.79 7.99-18.87 17.76-19.76m4.09 18.12c-1.99 1.11-2.67 3.5-2.51 5.65.03 13.99-.03 27.99.03 41.98-.2 2.85 2.27 5.58 5.18 5.41 3.62.04 7.26.13 10.89-.06 2.64-.16 4.63-2.8 4.45-5.37q.045-21.51 0-43.02c.18-2.93-2.48-5.61-5.43-5.32-4.17.29-8.67-.79-12.61.73"/>
  </g>
</svg>