<?xml version="1.0" encoding="UTF-8" standalone="no"?>
<svg
   xmlns:dc="http://purl.org/dc/elements/1.1/"
   xmlns:cc="http://creativecommons.org/ns#"
   xmlns:rdf="http://www.w3.org/1999/02/22-rdf-syntax-ns#"
   xmlns:svg="http://www.w3.org/2000/svg"
   xmlns="http://www.w3.org/2000/svg"
   style="fill:none"
   id="svg60"
   version="1.1"
   viewBox="0 0 340 78"
   height="78"
   width="340">
  <metadata
     id="metadata18">
    <rdf:RDF>
      <cc:Work
         rdf:about="">
        <dc:format>image/svg+xml</dc:format>
        <dc:type
           rdf:resource="http://purl.org/dc/dcmitype/StillImage" />
        <dc:title></dc:title>
      </cc:Work>
    </rdf:RDF>
  </metadata>
  <defs
     id="defs64" />
  <g
     transform="translate(4.2426408,4.1109126)"
     id="g887">
    <path
       d="M 3.4771106e-6,-4.7814478e-8 V 70 H 70.000003 V -4.7814478e-8 H 43.028365 A 8.0568492,8.0568484 0 0 1 43.047829,0.39957974 8.0568492,8.0568484 0 0 1 34.991021,8.4563848 8.0568492,8.0568484 0 0 1 26.93422,0.39957974 8.0568492,8.0568484 0 0 1 26.986929,-4.7814478e-8 Z"
       style="fill:#688535;fill-opacity:1;fill-rule:evenodd;stroke-width:16.01350021;stroke-linecap:square;paint-order:markers stroke fill"
       id="rect885" />
    <rect
       y="39.274487"
       x="67.762474"
       height="0.062055942"
       width="0.13218075"
       id="rect5404"
       style="fill:#353985;fill-opacity:0.65042503;fill-rule:evenodd;stroke-width:9.23472977;stroke-linecap:square;paint-order:markers stroke fill" />
    <path
       d="m 15.788955,33.636849 v 8.209423 H 7.579532 v 6.511208 h 8.209423 v 8.209422 h 6.511212 V 48.35748 h 8.209422 v -6.511208 h -8.209422 v -8.209423 z"
       style="fill:#d3e3b7;fill-opacity:1;fill-rule:evenodd;stroke-width:9.23472977;stroke-linecap:square;paint-order:markers stroke fill"
       id="rect5406" />
    <ellipse
       ry="5.9514494"
       rx="5.9514499"
       cy="51.484741"
       cx="45.893055"
       id="path5553"
       style="fill:#d3e3b7;fill-opacity:1;fill-rule:evenodd;stroke-width:9.23472977;stroke-linecap:square;paint-order:markers stroke fill" />
    <ellipse
       ry="5.9514494"
       rx="5.9514499"
       cy="38.696362"
       cx="56.566952"
       id="path5553-6"
       style="fill:#d3e3b7;fill-opacity:1;fill-rule:evenodd;stroke-width:9.23472977;stroke-linecap:square;paint-order:markers stroke fill" />
  </g>
  <g
     style="font-weight:bold;font-size:62.63069916px;line-height:1.25;font-family:Cantarell;-inkscape-font-specification:'Cantarell Bold';text-align:center;letter-spacing:0px;word-spacing:0px;text-anchor:middle;fill:#000000;fill-opacity:1;stroke-width:2.93580008"
     id="text13293"
     transform="matrix(0.87082702,0,0,0.95418022,-4.708473,-5.381215)"
     aria-label="WASM-4">
    <path
       style="fill:#000000;fill-opacity:1"
       id="path828"
       d="m 128.04523,68.546761 h 8.5804 l 9.45724,-32.818487 10.2088,32.818487 h 8.39252 l 12.6514,-43.465706 h -8.14199 l -8.51778,32.755856 -9.70776,-32.505333 h -8.89356 l -9.3946,33.194271 -8.26725,-33.444794 h -9.20672 z" />
    <path
       style="fill:#000000;fill-opacity:1"
       id="path830"
       d="m 177.58599,68.546761 h 8.58041 l 3.56995,-10.897742 h 16.65976 l 3.50732,10.897742 h 8.95619 L 203.82826,25.081055 h -10.3967 z m 14.46769,-18.100272 6.01255,-18.413426 6.01255,18.413426 z" />
    <path
       style="fill:#000000;fill-opacity:1"
       id="path832"
       d="m 235.83245,69.173068 c 10.58458,0 16.97291,-5.260979 16.97291,-13.40297 0,-15.720306 -22.8602,-10.271435 -22.8602,-19.039733 0,-3.319427 3.00627,-5.198348 8.45514,-5.198348 3.56995,0 7.51569,0.688938 10.64722,1.878921 l 2.31734,-6.388331 c -3.69521,-1.628398 -8.20462,-2.567859 -12.52614,-2.567859 -10.33407,0 -17.28607,5.32361 -17.28607,13.528231 0,14.843476 22.79757,9.958282 22.79757,18.78921 0,3.194166 -2.81838,5.135717 -8.14199,5.135717 -3.94573,0 -8.7683,-0.876829 -13.08982,-2.69312 l -2.31733,6.513593 c 4.63467,2.129444 10.02091,3.444689 15.03137,3.444689 z" />
    <path
       style="fill:#000000;fill-opacity:1"
       id="path834"
       d="m 259.82,68.546761 h 7.82884 V 39.360855 l 11.46142,22.484421 h 6.20044 l 11.64931,-23.29862 v 30.000105 h 7.82883 V 25.081055 h -7.82883 L 282.61758,53.26487 267.7741,25.081055 H 259.82 Z" />
    <path
       style="fill:#000000;fill-opacity:1"
       id="path836"
       d="m 313.49446,55.707467 h 18.47605 v -6.513592 h -18.47605 z" />
    <path
       style="fill:#000000;fill-opacity:1"
       id="path838"
       d="m 357.64906,68.985175 h 7.82884 V 59.52794 h 7.70358 v -6.701485 h -7.70358 v -27.7454 h -7.64095 l -20.98128,30.250628 v 4.196257 h 20.79339 z M 345.43608,52.763824 357.64906,34.41303 v 18.350794 z" />
  </g>
</svg>
